%TF.GenerationSoftware,KiCad,Pcbnew,10.0.2*%
%TF.CreationDate,2026-05-16T13:24:59-03:00*%
%TF.ProjectId,u-blox-MAX-F10S-00B,752d626c-6f78-42d4-9d41-582d46313053,rev?*%
%TF.SameCoordinates,Original*%
%TF.FileFunction,Soldermask,Bot*%
%TF.FilePolarity,Negative*%
%FSLAX46Y46*%
G04 Gerber Fmt 4.6, Leading zero omitted, Abs format (unit mm)*
G04 Created by KiCad (PCBNEW 10.0.2) date 2026-05-16 13:24:59*
%MOMM*%
%LPD*%
G01*
G04 APERTURE LIST*
%ADD10C,0.700000*%
%ADD11C,4.400000*%
%ADD12R,5.080000X1.500000*%
G04 APERTURE END LIST*
D10*
%TO.C,H103*%
X132330000Y-115980000D03*
X132813274Y-114813274D03*
X132813274Y-117146726D03*
X133980000Y-114330000D03*
D11*
X133980000Y-115980000D03*
D10*
X133980000Y-117630000D03*
X135146726Y-114813274D03*
X135146726Y-117146726D03*
X135630000Y-115980000D03*
%TD*%
%TO.C,H104*%
X164330000Y-115980000D03*
X164813274Y-114813274D03*
X164813274Y-117146726D03*
X165980000Y-114330000D03*
D11*
X165980000Y-115980000D03*
D10*
X165980000Y-117630000D03*
X167146726Y-114813274D03*
X167146726Y-117146726D03*
X167630000Y-115980000D03*
%TD*%
D12*
%TO.C,J106*%
X132502500Y-99230000D03*
X132502500Y-90730000D03*
%TD*%
%TO.C,J105*%
X167467500Y-90730000D03*
X167467500Y-99230000D03*
%TD*%
D10*
%TO.C,H101*%
X132330000Y-83980000D03*
X132813274Y-82813274D03*
X132813274Y-85146726D03*
X133980000Y-82330000D03*
D11*
X133980000Y-83980000D03*
D10*
X133980000Y-85630000D03*
X135146726Y-82813274D03*
X135146726Y-85146726D03*
X135630000Y-83980000D03*
%TD*%
%TO.C,H102*%
X164330000Y-83980000D03*
X164813274Y-82813274D03*
X164813274Y-85146726D03*
X165980000Y-82330000D03*
D11*
X165980000Y-83980000D03*
D10*
X165980000Y-85630000D03*
X167146726Y-82813274D03*
X167146726Y-85146726D03*
X167630000Y-83980000D03*
%TD*%
G36*
X165980082Y-79980001D02*
G01*
X166175888Y-79982402D01*
X166176874Y-79982456D01*
X166566716Y-80020852D01*
X166567833Y-80021018D01*
X166951952Y-80097424D01*
X166953046Y-80097698D01*
X167327828Y-80211387D01*
X167328891Y-80211767D01*
X167690734Y-80361647D01*
X167691754Y-80362130D01*
X168037151Y-80546749D01*
X168038119Y-80547329D01*
X168363759Y-80764915D01*
X168364666Y-80765587D01*
X168667421Y-81014051D01*
X168668257Y-81014809D01*
X168945190Y-81291742D01*
X168945948Y-81292578D01*
X169194412Y-81595333D01*
X169195084Y-81596240D01*
X169412670Y-81921880D01*
X169413250Y-81922848D01*
X169597869Y-82268245D01*
X169598352Y-82269265D01*
X169748232Y-82631108D01*
X169748612Y-82632171D01*
X169862301Y-83006953D01*
X169862575Y-83008047D01*
X169938981Y-83392166D01*
X169939147Y-83393283D01*
X169977543Y-83783125D01*
X169977597Y-83784111D01*
X169979999Y-83979918D01*
X169980000Y-83980059D01*
X169980000Y-115979940D01*
X169979999Y-115980081D01*
X169977597Y-116175888D01*
X169977543Y-116176874D01*
X169939147Y-116566716D01*
X169938981Y-116567833D01*
X169862575Y-116951952D01*
X169862301Y-116953046D01*
X169748612Y-117327828D01*
X169748232Y-117328891D01*
X169598352Y-117690734D01*
X169597869Y-117691754D01*
X169413250Y-118037151D01*
X169412670Y-118038119D01*
X169195084Y-118363759D01*
X169194412Y-118364666D01*
X168945948Y-118667421D01*
X168945190Y-118668257D01*
X168668257Y-118945190D01*
X168667421Y-118945948D01*
X168364666Y-119194412D01*
X168363759Y-119195084D01*
X168038119Y-119412670D01*
X168037151Y-119413250D01*
X167691754Y-119597869D01*
X167690734Y-119598352D01*
X167328891Y-119748232D01*
X167327828Y-119748612D01*
X166953046Y-119862301D01*
X166951952Y-119862575D01*
X166567833Y-119938981D01*
X166566716Y-119939147D01*
X166176874Y-119977543D01*
X166175888Y-119977597D01*
X165980082Y-119979999D01*
X165979941Y-119980000D01*
X133980059Y-119980000D01*
X133979918Y-119979999D01*
X133784111Y-119977597D01*
X133783125Y-119977543D01*
X133393283Y-119939147D01*
X133392166Y-119938981D01*
X133008047Y-119862575D01*
X133006953Y-119862301D01*
X132632171Y-119748612D01*
X132631108Y-119748232D01*
X132269265Y-119598352D01*
X132268245Y-119597869D01*
X131922848Y-119413250D01*
X131921880Y-119412670D01*
X131596240Y-119195084D01*
X131595333Y-119194412D01*
X131292578Y-118945948D01*
X131291742Y-118945190D01*
X131014809Y-118668257D01*
X131014051Y-118667421D01*
X130765587Y-118364666D01*
X130764915Y-118363759D01*
X130547329Y-118038119D01*
X130546749Y-118037151D01*
X130362130Y-117691754D01*
X130361647Y-117690734D01*
X130211767Y-117328891D01*
X130211387Y-117327828D01*
X130097698Y-116953046D01*
X130097424Y-116951952D01*
X130021018Y-116567833D01*
X130020852Y-116566716D01*
X129982456Y-116176874D01*
X129982402Y-116175888D01*
X129980001Y-115980081D01*
X129980000Y-115979940D01*
X129980000Y-83980059D01*
X129980001Y-83979918D01*
X129982402Y-83784111D01*
X129982456Y-83783125D01*
X130020852Y-83393283D01*
X130021018Y-83392166D01*
X130097424Y-83008047D01*
X130097698Y-83006953D01*
X130211387Y-82632171D01*
X130211767Y-82631108D01*
X130361647Y-82269265D01*
X130362130Y-82268245D01*
X130546749Y-81922848D01*
X130547329Y-81921880D01*
X130764915Y-81596240D01*
X130765587Y-81595333D01*
X131014051Y-81292578D01*
X131014809Y-81291742D01*
X131291742Y-81014809D01*
X131292578Y-81014051D01*
X131595333Y-80765587D01*
X131596240Y-80764915D01*
X131921880Y-80547329D01*
X131922848Y-80546749D01*
X132268245Y-80362130D01*
X132269265Y-80361647D01*
X132631108Y-80211767D01*
X132632171Y-80211387D01*
X133006953Y-80097698D01*
X133008047Y-80097424D01*
X133392166Y-80021018D01*
X133393283Y-80020852D01*
X133783125Y-79982456D01*
X133784111Y-79982402D01*
X133979918Y-79980001D01*
X133980059Y-79980000D01*
X165979941Y-79980000D01*
X165980082Y-79980001D01*
G37*
M02*
