%TF.GenerationSoftware,KiCad,Pcbnew,10.0.2*%
%TF.CreationDate,2026-05-16T13:24:58-03:00*%
%TF.ProjectId,u-blox-MAX-F10S-00B,752d626c-6f78-42d4-9d41-582d46313053,rev?*%
%TF.SameCoordinates,Original*%
%TF.FileFunction,Copper,L3,Inr*%
%TF.FilePolarity,Positive*%
%FSLAX46Y46*%
G04 Gerber Fmt 4.6, Leading zero omitted, Abs format (unit mm)*
G04 Created by KiCad (PCBNEW 10.0.2) date 2026-05-16 13:24:58*
%MOMM*%
%LPD*%
G01*
G04 APERTURE LIST*
%TA.AperFunction,ComponentPad*%
%ADD10C,0.700000*%
%TD*%
%TA.AperFunction,ComponentPad*%
%ADD11C,4.400000*%
%TD*%
%TA.AperFunction,ViaPad*%
%ADD12C,0.600000*%
%TD*%
%TA.AperFunction,ViaPad*%
%ADD13C,0.500000*%
%TD*%
%TA.AperFunction,Conductor*%
%ADD14C,0.200000*%
%TD*%
G04 APERTURE END LIST*
D10*
%TO.N,GND*%
%TO.C,H103*%
X132330000Y-115980000D03*
X132813274Y-114813274D03*
X132813274Y-117146726D03*
X133980000Y-114330000D03*
D11*
X133980000Y-115980000D03*
D10*
X133980000Y-117630000D03*
X135146726Y-114813274D03*
X135146726Y-117146726D03*
X135630000Y-115980000D03*
%TD*%
%TO.N,GND*%
%TO.C,H104*%
X164330000Y-115980000D03*
X164813274Y-114813274D03*
X164813274Y-117146726D03*
X165980000Y-114330000D03*
D11*
X165980000Y-115980000D03*
D10*
X165980000Y-117630000D03*
X167146726Y-114813274D03*
X167146726Y-117146726D03*
X167630000Y-115980000D03*
%TD*%
%TO.N,GND*%
%TO.C,H101*%
X132330000Y-83980000D03*
X132813274Y-82813274D03*
X132813274Y-85146726D03*
X133980000Y-82330000D03*
D11*
X133980000Y-83980000D03*
D10*
X133980000Y-85630000D03*
X135146726Y-82813274D03*
X135146726Y-85146726D03*
X135630000Y-83980000D03*
%TD*%
%TO.N,GND*%
%TO.C,H102*%
X164330000Y-83980000D03*
X164813274Y-82813274D03*
X164813274Y-85146726D03*
X165980000Y-82330000D03*
D11*
X165980000Y-83980000D03*
D10*
X165980000Y-85630000D03*
X167146726Y-82813274D03*
X167146726Y-85146726D03*
X167630000Y-83980000D03*
%TD*%
D12*
%TO.N,+5V*%
X144140000Y-114740000D03*
D13*
%TO.N,/SCL*%
X163240000Y-105700000D03*
D12*
%TO.N,+5V*%
X138560000Y-85520000D03*
%TO.N,+3V3*%
X140710000Y-87260000D03*
X165653300Y-107978735D03*
X156150000Y-97450000D03*
D13*
%TO.N,+5V*%
X137730000Y-87640000D03*
X144720000Y-85800000D03*
%TO.N,+3V3*%
X137210000Y-106500000D03*
X137590000Y-110380000D03*
%TO.N,/SDA*%
X163310000Y-106978863D03*
X134760000Y-107980000D03*
%TO.N,/SCL*%
X134770000Y-108980000D03*
%TO.N,/TXD*%
X153640000Y-103327553D03*
X154900000Y-89370000D03*
%TO.N,/RXD*%
X153640000Y-102228854D03*
X152360000Y-84320000D03*
%TD*%
%TO.N,/SCL*%
D14*
X164018295Y-105978295D02*
X164480000Y-106440000D01*
X163438295Y-105978295D02*
X164018295Y-105978295D01*
X164480000Y-106440000D02*
X164480000Y-108060000D01*
X164480000Y-108060000D02*
X160710000Y-111830000D01*
X160710000Y-111830000D02*
X137230000Y-111830000D01*
X137230000Y-111830000D02*
X134770000Y-109370000D01*
%TO.N,/TXD*%
X154900000Y-102067553D02*
X153640000Y-103327553D01*
X154900000Y-97149131D02*
X154900000Y-97549131D01*
X154900000Y-97549131D02*
X154900000Y-99092931D01*
X156766576Y-96349131D02*
X155700000Y-96349131D01*
X155700000Y-94349131D02*
X156766576Y-94349131D01*
X154900000Y-99092931D02*
X154900000Y-102067553D01*
X154900000Y-89370000D02*
X154900000Y-93549131D01*
X157566576Y-95149131D02*
X157566576Y-95549131D01*
X156766576Y-94349131D02*
G75*
G02*
X157566569Y-95149131I24J-799969D01*
G01*
X157566576Y-95549131D02*
G75*
G02*
X156766576Y-96349076I-799976J31D01*
G01*
X154900000Y-93549131D02*
G75*
G03*
X155700000Y-94349100I800000J31D01*
G01*
X155700000Y-96349131D02*
G75*
G03*
X154900031Y-97149131I0J-799969D01*
G01*
%TO.N,/RXD*%
X152360000Y-100948854D02*
X153640000Y-102228854D01*
X152360000Y-84320000D02*
X152360000Y-100948854D01*
%TO.N,/SCL*%
X134770000Y-109370000D02*
X134770000Y-108980000D01*
X163240000Y-105700000D02*
X163240000Y-105780000D01*
X163240000Y-105780000D02*
X163438295Y-105978295D01*
%TO.N,/SDA*%
X162881137Y-106978863D02*
X163310000Y-106978863D01*
X159330000Y-110530000D02*
X162881137Y-106978863D01*
X154137291Y-108144538D02*
G75*
G02*
X154937291Y-107344491I800009J38D01*
G01*
X155337291Y-107344538D02*
G75*
G02*
X156137262Y-108144538I9J-799962D01*
G01*
X156137291Y-109730000D02*
G75*
G03*
X156937291Y-110530009I800009J0D01*
G01*
X134760000Y-107980000D02*
X136780000Y-107980000D01*
X153337291Y-110530000D02*
G75*
G03*
X154137300Y-109730000I9J800000D01*
G01*
X136780000Y-107980000D02*
X139330000Y-110530000D01*
X154137291Y-109730000D02*
X154137291Y-108144538D01*
X157884559Y-110530000D02*
X159330000Y-110530000D01*
X154937291Y-107344538D02*
X155337291Y-107344538D01*
X139330000Y-110530000D02*
X153337291Y-110530000D01*
X157337291Y-110530000D02*
X157884559Y-110530000D01*
X156137291Y-108144538D02*
X156137291Y-109730000D01*
X156937291Y-110530000D02*
X157337291Y-110530000D01*
%TD*%
%TA.AperFunction,Conductor*%
%TO.N,+3V3*%
G36*
X165978495Y-79980531D02*
G01*
X165981467Y-79980600D01*
X165984228Y-79980695D01*
X166308864Y-79995703D01*
X166311942Y-79995886D01*
X166315259Y-79996126D01*
X166318325Y-79996387D01*
X166390512Y-80003497D01*
X166392931Y-80003761D01*
X166394041Y-80003893D01*
X166395448Y-80004061D01*
X166397840Y-80004369D01*
X166681456Y-80043932D01*
X166684924Y-80044467D01*
X166688481Y-80045068D01*
X166691941Y-80045705D01*
X166757956Y-80058836D01*
X166760033Y-80059268D01*
X166762052Y-80059706D01*
X166764118Y-80060173D01*
X167048732Y-80127114D01*
X167052475Y-80128056D01*
X167056301Y-80129085D01*
X167060062Y-80130162D01*
X167115064Y-80146847D01*
X167116695Y-80147354D01*
X167118310Y-80147869D01*
X167119913Y-80148393D01*
X167407199Y-80244682D01*
X167411223Y-80246109D01*
X167415175Y-80247587D01*
X167419154Y-80249156D01*
X167439505Y-80257585D01*
X167456297Y-80264541D01*
X167457515Y-80265053D01*
X167458749Y-80265581D01*
X167459997Y-80266124D01*
X167753441Y-80395693D01*
X167757609Y-80397628D01*
X167761788Y-80399663D01*
X167765934Y-80401780D01*
X167773625Y-80405891D01*
X167774544Y-80406388D01*
X167775295Y-80406798D01*
X167776133Y-80407260D01*
X168016130Y-80540937D01*
X168077960Y-80575377D01*
X168077962Y-80575378D01*
X168077964Y-80575380D01*
X168082886Y-80578272D01*
X168087748Y-80581282D01*
X168092547Y-80584409D01*
X168383152Y-80783477D01*
X168387797Y-80786819D01*
X168392374Y-80790276D01*
X168396857Y-80793827D01*
X168667818Y-81018830D01*
X168672139Y-81022590D01*
X168676393Y-81026468D01*
X168680536Y-81030424D01*
X168929574Y-81279462D01*
X168933530Y-81283605D01*
X168937408Y-81287859D01*
X168941168Y-81292180D01*
X169166171Y-81563141D01*
X169169732Y-81567636D01*
X169173179Y-81572201D01*
X169176521Y-81576846D01*
X169375589Y-81867451D01*
X169378706Y-81872234D01*
X169381721Y-81877103D01*
X169384617Y-81882030D01*
X169460999Y-82019161D01*
X169467738Y-82031260D01*
X169552660Y-82183725D01*
X169553194Y-82184694D01*
X169553747Y-82185708D01*
X169554185Y-82186518D01*
X169558229Y-82194084D01*
X169560319Y-82198179D01*
X169562364Y-82202377D01*
X169564321Y-82206594D01*
X169693817Y-82499870D01*
X169694383Y-82501173D01*
X169694956Y-82502512D01*
X169695518Y-82503846D01*
X169710828Y-82540810D01*
X169712391Y-82544775D01*
X169713884Y-82548762D01*
X169715331Y-82552841D01*
X169796921Y-82796275D01*
X169811562Y-82839958D01*
X169812104Y-82841613D01*
X169812661Y-82843358D01*
X169813186Y-82845044D01*
X169829832Y-82899921D01*
X169830914Y-82903703D01*
X169831933Y-82907491D01*
X169832896Y-82911313D01*
X169899803Y-83195785D01*
X169900269Y-83197846D01*
X169900724Y-83199940D01*
X169901170Y-83202079D01*
X169914287Y-83268027D01*
X169914934Y-83271548D01*
X169915525Y-83275044D01*
X169916071Y-83278582D01*
X169955620Y-83562103D01*
X169955941Y-83564587D01*
X169956236Y-83567067D01*
X169956507Y-83569560D01*
X169963600Y-83641577D01*
X169963873Y-83644776D01*
X169964106Y-83647994D01*
X169964298Y-83651222D01*
X169979302Y-83975728D01*
X169979400Y-83978574D01*
X169979467Y-83981461D01*
X169979500Y-83984297D01*
X169979500Y-115975701D01*
X169979467Y-115978580D01*
X169979401Y-115981422D01*
X169979302Y-115984270D01*
X169964298Y-116308775D01*
X169964106Y-116312003D01*
X169963873Y-116315221D01*
X169963600Y-116318420D01*
X169956507Y-116390437D01*
X169956236Y-116392930D01*
X169955941Y-116395410D01*
X169955620Y-116397894D01*
X169916071Y-116681415D01*
X169915525Y-116684953D01*
X169914934Y-116688449D01*
X169914287Y-116691970D01*
X169901170Y-116757918D01*
X169900724Y-116760057D01*
X169900269Y-116762151D01*
X169899803Y-116764212D01*
X169832896Y-117048684D01*
X169831933Y-117052506D01*
X169830914Y-117056294D01*
X169829832Y-117060076D01*
X169813186Y-117114953D01*
X169812640Y-117116706D01*
X169812098Y-117118402D01*
X169811555Y-117120061D01*
X169715334Y-117407148D01*
X169713899Y-117411195D01*
X169712402Y-117415196D01*
X169710825Y-117419198D01*
X169695510Y-117456170D01*
X169694978Y-117457435D01*
X169694420Y-117458741D01*
X169693826Y-117460108D01*
X169564321Y-117753403D01*
X169562364Y-117757620D01*
X169560319Y-117761818D01*
X169558202Y-117765963D01*
X169554232Y-117773391D01*
X169553723Y-117774335D01*
X169553173Y-117775343D01*
X169552651Y-117776289D01*
X169384626Y-118077951D01*
X169381723Y-118082890D01*
X169378715Y-118087748D01*
X169375589Y-118092547D01*
X169176521Y-118383152D01*
X169173179Y-118387797D01*
X169169732Y-118392362D01*
X169166171Y-118396857D01*
X168941168Y-118667818D01*
X168937408Y-118672139D01*
X168933530Y-118676393D01*
X168929574Y-118680536D01*
X168680536Y-118929574D01*
X168676393Y-118933530D01*
X168672139Y-118937408D01*
X168667818Y-118941168D01*
X168396857Y-119166171D01*
X168392362Y-119169732D01*
X168387797Y-119173179D01*
X168383152Y-119176521D01*
X168092547Y-119375589D01*
X168087748Y-119378715D01*
X168082890Y-119381723D01*
X168077951Y-119384626D01*
X167776289Y-119552651D01*
X167775343Y-119553173D01*
X167774335Y-119553723D01*
X167773391Y-119554232D01*
X167765963Y-119558202D01*
X167761818Y-119560319D01*
X167757620Y-119562364D01*
X167753403Y-119564321D01*
X167460108Y-119693826D01*
X167458752Y-119694415D01*
X167458616Y-119694473D01*
X167457435Y-119694978D01*
X167456170Y-119695510D01*
X167419198Y-119710825D01*
X167415196Y-119712402D01*
X167411195Y-119713899D01*
X167407148Y-119715334D01*
X167120061Y-119811555D01*
X167118402Y-119812098D01*
X167116706Y-119812640D01*
X167114953Y-119813186D01*
X167060076Y-119829832D01*
X167056294Y-119830914D01*
X167052506Y-119831933D01*
X167048684Y-119832896D01*
X166764212Y-119899803D01*
X166762151Y-119900269D01*
X166760057Y-119900724D01*
X166757918Y-119901170D01*
X166691970Y-119914287D01*
X166688449Y-119914934D01*
X166684953Y-119915525D01*
X166681415Y-119916071D01*
X166397894Y-119955620D01*
X166395410Y-119955941D01*
X166392930Y-119956236D01*
X166390437Y-119956507D01*
X166318420Y-119963600D01*
X166315221Y-119963873D01*
X166312003Y-119964106D01*
X166308775Y-119964298D01*
X165984271Y-119979302D01*
X165981425Y-119979400D01*
X165978536Y-119979467D01*
X165975703Y-119979500D01*
X133984297Y-119979500D01*
X133981462Y-119979467D01*
X133978574Y-119979400D01*
X133975728Y-119979302D01*
X133651222Y-119964298D01*
X133647994Y-119964106D01*
X133644776Y-119963873D01*
X133641577Y-119963600D01*
X133569560Y-119956507D01*
X133567067Y-119956236D01*
X133564587Y-119955941D01*
X133562103Y-119955620D01*
X133278582Y-119916071D01*
X133275044Y-119915525D01*
X133271548Y-119914934D01*
X133268027Y-119914287D01*
X133202079Y-119901170D01*
X133199940Y-119900724D01*
X133197846Y-119900269D01*
X133195785Y-119899803D01*
X132911313Y-119832896D01*
X132907491Y-119831933D01*
X132903703Y-119830914D01*
X132899921Y-119829832D01*
X132845044Y-119813186D01*
X132843358Y-119812661D01*
X132841613Y-119812104D01*
X132839958Y-119811562D01*
X132796275Y-119796921D01*
X132552841Y-119715331D01*
X132548773Y-119713887D01*
X132547751Y-119713505D01*
X132544775Y-119712391D01*
X132540808Y-119710827D01*
X132503812Y-119695503D01*
X132502517Y-119694958D01*
X132501261Y-119694421D01*
X132499922Y-119693839D01*
X132386010Y-119643542D01*
X132386009Y-119643542D01*
X132206594Y-119564321D01*
X132202377Y-119562364D01*
X132198179Y-119560319D01*
X132194084Y-119558229D01*
X132186518Y-119554185D01*
X132185708Y-119553747D01*
X132184694Y-119553194D01*
X132183725Y-119552660D01*
X132050867Y-119478659D01*
X131882047Y-119384626D01*
X131877108Y-119381723D01*
X131872250Y-119378715D01*
X131867451Y-119375589D01*
X131576846Y-119176521D01*
X131572201Y-119173179D01*
X131567636Y-119169732D01*
X131563141Y-119166171D01*
X131292180Y-118941168D01*
X131287859Y-118937408D01*
X131283605Y-118933530D01*
X131279462Y-118929574D01*
X131030424Y-118680536D01*
X131026468Y-118676393D01*
X131022590Y-118672139D01*
X131018830Y-118667818D01*
X130793827Y-118396857D01*
X130790277Y-118392376D01*
X130786829Y-118387811D01*
X130783476Y-118383151D01*
X130760981Y-118350312D01*
X130584409Y-118092546D01*
X130581283Y-118087748D01*
X130578275Y-118082890D01*
X130575372Y-118077951D01*
X130407292Y-117776190D01*
X130406796Y-117775292D01*
X130406328Y-117774434D01*
X130405869Y-117773583D01*
X130401778Y-117765930D01*
X130399672Y-117761806D01*
X130397618Y-117757590D01*
X130395682Y-117753416D01*
X130266137Y-117460026D01*
X130265581Y-117458749D01*
X130265578Y-117458741D01*
X130265053Y-117457515D01*
X130264530Y-117456271D01*
X130249156Y-117419154D01*
X130247583Y-117415163D01*
X130246116Y-117411243D01*
X130244678Y-117407188D01*
X130156128Y-117142992D01*
X130148393Y-117119913D01*
X130147869Y-117118310D01*
X130147354Y-117116695D01*
X130146847Y-117115064D01*
X130130162Y-117060062D01*
X130129083Y-117056294D01*
X130128056Y-117052475D01*
X130127114Y-117048732D01*
X130060173Y-116764118D01*
X130059706Y-116762052D01*
X130059268Y-116760033D01*
X130058832Y-116757936D01*
X130045705Y-116691941D01*
X130045068Y-116688481D01*
X130044467Y-116684924D01*
X130043931Y-116681444D01*
X130039115Y-116646919D01*
X130004375Y-116397877D01*
X130004060Y-116395441D01*
X130004056Y-116395410D01*
X130003754Y-116392869D01*
X130003496Y-116390498D01*
X130002732Y-116382731D01*
X129996390Y-116318352D01*
X129996123Y-116315221D01*
X129995885Y-116311926D01*
X129995702Y-116308832D01*
X129986732Y-116114811D01*
X129980695Y-115984219D01*
X129980599Y-115981422D01*
X129980531Y-115978500D01*
X129980500Y-115975701D01*
X129980500Y-115845181D01*
X131579500Y-115845181D01*
X131579500Y-116114817D01*
X131609247Y-116378829D01*
X131609248Y-116378840D01*
X131609686Y-116382719D01*
X131609687Y-116382728D01*
X131609688Y-116382732D01*
X131610685Y-116387101D01*
X131610690Y-116387129D01*
X131612581Y-116395410D01*
X131612866Y-116396657D01*
X131613150Y-116397900D01*
X131669683Y-116645591D01*
X131669764Y-116645861D01*
X131670147Y-116646919D01*
X131758731Y-116900075D01*
X131758737Y-116900089D01*
X131875713Y-117142992D01*
X131875917Y-117143350D01*
X131876603Y-117144409D01*
X132019162Y-117371289D01*
X132187266Y-117582085D01*
X132377915Y-117772734D01*
X132588711Y-117940838D01*
X132817003Y-118084284D01*
X133059921Y-118201267D01*
X133179882Y-118243243D01*
X133304547Y-118286865D01*
X133310789Y-118289658D01*
X133311645Y-118289814D01*
X133317109Y-118290933D01*
X133549925Y-118344071D01*
X133577268Y-118350312D01*
X133577272Y-118350312D01*
X133577281Y-118350314D01*
X133706150Y-118364833D01*
X133827790Y-118378538D01*
X133835393Y-118380500D01*
X134114812Y-118380500D01*
X134140310Y-118380500D01*
X134145444Y-118377696D01*
X134157914Y-118375642D01*
X134306388Y-118358913D01*
X134382718Y-118350314D01*
X134382721Y-118350313D01*
X134382732Y-118350312D01*
X134645591Y-118290316D01*
X134900079Y-118201267D01*
X135142997Y-118084284D01*
X135371289Y-117940838D01*
X135582085Y-117772734D01*
X135772734Y-117582085D01*
X135940838Y-117371289D01*
X136084284Y-117142997D01*
X136201267Y-116900079D01*
X136290316Y-116645591D01*
X136350312Y-116382732D01*
X136350313Y-116382718D01*
X136350315Y-116382711D01*
X136380500Y-116114810D01*
X136380500Y-115845188D01*
X136380499Y-115845186D01*
X136380498Y-115845181D01*
X136350312Y-115577268D01*
X136290316Y-115314409D01*
X136289852Y-115313084D01*
X136260823Y-115230123D01*
X136201267Y-115059921D01*
X136084284Y-114817003D01*
X135940838Y-114588711D01*
X135772734Y-114377915D01*
X135582085Y-114187266D01*
X135371289Y-114019162D01*
X135144409Y-113876603D01*
X135143350Y-113875917D01*
X135142992Y-113875713D01*
X134900089Y-113758737D01*
X134900075Y-113758731D01*
X134653237Y-113672358D01*
X134653231Y-113672356D01*
X134645602Y-113669687D01*
X134645594Y-113669684D01*
X134448446Y-113624687D01*
X134448304Y-113624654D01*
X134448164Y-113624622D01*
X134383981Y-113609973D01*
X134382947Y-113609725D01*
X134382737Y-113609688D01*
X134382719Y-113609686D01*
X134382719Y-113609684D01*
X134382638Y-113609670D01*
X134382528Y-113609664D01*
X134114817Y-113579500D01*
X134114813Y-113579500D01*
X134114809Y-113579500D01*
X133845191Y-113579500D01*
X133845186Y-113579500D01*
X133845181Y-113579500D01*
X133577292Y-113609683D01*
X133577265Y-113609688D01*
X133314412Y-113669681D01*
X133314137Y-113669764D01*
X133313084Y-113670146D01*
X133059923Y-113758731D01*
X133059901Y-113758740D01*
X132817010Y-113875710D01*
X132588709Y-114019162D01*
X132588707Y-114019163D01*
X132377921Y-114187258D01*
X132187258Y-114377921D01*
X132019163Y-114588707D01*
X132019162Y-114588709D01*
X131875710Y-114817010D01*
X131758740Y-115059901D01*
X131758731Y-115059923D01*
X131670146Y-115313084D01*
X131669764Y-115314137D01*
X131669681Y-115314412D01*
X131609688Y-115577265D01*
X131609683Y-115577292D01*
X131579500Y-115845181D01*
X129980500Y-115845181D01*
X129980500Y-108181406D01*
X130815755Y-108181406D01*
X130815755Y-108181408D01*
X130815755Y-108181412D01*
X130815755Y-108181416D01*
X130816222Y-108187913D01*
X130828607Y-108244512D01*
X130828803Y-108245404D01*
X132410550Y-112459046D01*
X132413161Y-112465628D01*
X132413367Y-112466146D01*
X132413698Y-112466937D01*
X132413699Y-112466939D01*
X132413700Y-112466940D01*
X132464044Y-112538758D01*
X132464045Y-112538760D01*
X132464046Y-112538761D01*
X132464047Y-112538762D01*
X132470521Y-112544725D01*
X132538966Y-112586499D01*
X135908704Y-113822737D01*
X135917745Y-113825817D01*
X135918780Y-113826143D01*
X135926986Y-113828513D01*
X135928232Y-113828873D01*
X135928236Y-113828874D01*
X141658618Y-115336343D01*
X141665384Y-115338331D01*
X143286141Y-115865326D01*
X143291700Y-115867047D01*
X143291712Y-115867050D01*
X143291720Y-115867053D01*
X143292301Y-115867224D01*
X143292316Y-115867228D01*
X143292329Y-115867232D01*
X143295288Y-115868056D01*
X143298061Y-115868829D01*
X143595516Y-115947106D01*
X143608743Y-115954499D01*
X143620839Y-115956838D01*
X143649577Y-115977326D01*
X143656852Y-115984270D01*
X143779304Y-116101156D01*
X143798200Y-116124126D01*
X144075359Y-116558342D01*
X144075361Y-116558345D01*
X144075364Y-116558349D01*
X144102428Y-116591755D01*
X144104473Y-116594280D01*
X144108140Y-116597887D01*
X144144545Y-116626399D01*
X144658793Y-116942859D01*
X144724033Y-116968908D01*
X144724036Y-116968908D01*
X144724037Y-116968909D01*
X144727247Y-116969586D01*
X144731614Y-116970509D01*
X144745659Y-116971019D01*
X144801838Y-116973060D01*
X144801838Y-116973059D01*
X144801842Y-116973060D01*
X145235710Y-116913896D01*
X145252159Y-116910131D01*
X145271479Y-116905711D01*
X145271484Y-116905709D01*
X145271494Y-116905707D01*
X145275381Y-116904443D01*
X145309058Y-116890060D01*
X145842190Y-116603749D01*
X145854404Y-116596638D01*
X145855739Y-116595798D01*
X145857877Y-116594435D01*
X145921702Y-116528933D01*
X145926288Y-116521420D01*
X145953912Y-116446130D01*
X145975411Y-116308775D01*
X146047974Y-115845181D01*
X163579500Y-115845181D01*
X163579500Y-116114817D01*
X163609247Y-116378829D01*
X163609248Y-116378840D01*
X163609686Y-116382719D01*
X163609687Y-116382728D01*
X163609688Y-116382732D01*
X163610685Y-116387101D01*
X163610690Y-116387129D01*
X163612581Y-116395410D01*
X163612866Y-116396657D01*
X163613150Y-116397900D01*
X163669683Y-116645591D01*
X163669764Y-116645861D01*
X163670147Y-116646919D01*
X163758731Y-116900075D01*
X163758737Y-116900089D01*
X163875713Y-117142992D01*
X163875917Y-117143350D01*
X163876603Y-117144409D01*
X164019162Y-117371289D01*
X164187266Y-117582085D01*
X164377915Y-117772734D01*
X164588711Y-117940838D01*
X164817003Y-118084284D01*
X165059921Y-118201267D01*
X165179882Y-118243243D01*
X165304547Y-118286865D01*
X165310789Y-118289658D01*
X165311645Y-118289814D01*
X165317109Y-118290933D01*
X165549925Y-118344071D01*
X165577268Y-118350312D01*
X165577272Y-118350312D01*
X165577281Y-118350314D01*
X165706150Y-118364833D01*
X165827790Y-118378538D01*
X165835393Y-118380500D01*
X166114812Y-118380500D01*
X166140310Y-118380500D01*
X166145444Y-118377696D01*
X166157914Y-118375642D01*
X166306388Y-118358913D01*
X166382718Y-118350314D01*
X166382721Y-118350313D01*
X166382732Y-118350312D01*
X166645591Y-118290316D01*
X166900079Y-118201267D01*
X167142997Y-118084284D01*
X167371289Y-117940838D01*
X167582085Y-117772734D01*
X167772734Y-117582085D01*
X167940838Y-117371289D01*
X168084284Y-117142997D01*
X168201267Y-116900079D01*
X168290316Y-116645591D01*
X168350312Y-116382732D01*
X168350313Y-116382718D01*
X168350315Y-116382711D01*
X168380500Y-116114810D01*
X168380500Y-115845188D01*
X168380499Y-115845186D01*
X168380498Y-115845181D01*
X168350312Y-115577268D01*
X168290316Y-115314409D01*
X168289852Y-115313084D01*
X168260823Y-115230123D01*
X168201267Y-115059921D01*
X168084284Y-114817003D01*
X167940838Y-114588711D01*
X167772734Y-114377915D01*
X167582085Y-114187266D01*
X167371289Y-114019162D01*
X167144409Y-113876603D01*
X167143350Y-113875917D01*
X167142992Y-113875713D01*
X166900089Y-113758737D01*
X166900075Y-113758731D01*
X166653237Y-113672358D01*
X166653231Y-113672356D01*
X166645602Y-113669687D01*
X166645594Y-113669684D01*
X166448446Y-113624687D01*
X166448304Y-113624654D01*
X166448164Y-113624622D01*
X166383981Y-113609973D01*
X166382947Y-113609725D01*
X166382737Y-113609688D01*
X166382719Y-113609686D01*
X166382719Y-113609684D01*
X166382638Y-113609670D01*
X166382528Y-113609664D01*
X166114817Y-113579500D01*
X166114813Y-113579500D01*
X166114809Y-113579500D01*
X165845191Y-113579500D01*
X165845186Y-113579500D01*
X165845181Y-113579500D01*
X165577292Y-113609683D01*
X165577265Y-113609688D01*
X165314412Y-113669681D01*
X165314137Y-113669764D01*
X165313084Y-113670146D01*
X165059923Y-113758731D01*
X165059901Y-113758740D01*
X164817010Y-113875710D01*
X164588709Y-114019162D01*
X164588707Y-114019163D01*
X164377921Y-114187258D01*
X164187258Y-114377921D01*
X164019163Y-114588707D01*
X164019162Y-114588709D01*
X163875710Y-114817010D01*
X163758740Y-115059901D01*
X163758731Y-115059923D01*
X163670146Y-115313084D01*
X163669764Y-115314137D01*
X163669681Y-115314412D01*
X163609688Y-115577265D01*
X163609683Y-115577292D01*
X163579500Y-115845181D01*
X146047974Y-115845181D01*
X146051519Y-115822532D01*
X146089908Y-115577265D01*
X146132722Y-115303731D01*
X146135170Y-115268793D01*
X146135110Y-115264892D01*
X146131600Y-115230107D01*
X145823110Y-113588144D01*
X145818230Y-113567889D01*
X145817570Y-113565654D01*
X145814723Y-113556761D01*
X145806476Y-113543519D01*
X145766382Y-113479135D01*
X145766376Y-113479127D01*
X145760178Y-113472879D01*
X145760176Y-113472878D01*
X145693688Y-113428066D01*
X145693689Y-113428066D01*
X145413399Y-113310647D01*
X144961323Y-113121264D01*
X144961314Y-113121261D01*
X144961311Y-113121260D01*
X144926264Y-113110145D01*
X144926248Y-113110141D01*
X144922248Y-113109257D01*
X144885776Y-113104569D01*
X138918001Y-112876186D01*
X138888368Y-112871417D01*
X137163120Y-112373640D01*
X137000726Y-112326785D01*
X135960508Y-112026656D01*
X135906200Y-111994184D01*
X134255313Y-110304904D01*
X134249274Y-110298260D01*
X133941145Y-109933536D01*
X133352231Y-109236456D01*
X133324005Y-109172543D01*
X133322982Y-109159059D01*
X133322872Y-109153887D01*
X133309240Y-108510436D01*
X133559500Y-108510436D01*
X133559500Y-108589563D01*
X133567523Y-108619508D01*
X133567524Y-108619508D01*
X133579979Y-108665990D01*
X133579981Y-108665993D01*
X133580005Y-108666051D01*
X133580487Y-108666870D01*
X133617689Y-108731308D01*
X133619072Y-108733880D01*
X133619458Y-108734429D01*
X133675492Y-108790463D01*
X133676172Y-108790953D01*
X133678667Y-108792295D01*
X133744004Y-108830017D01*
X133744011Y-108830021D01*
X133820438Y-108850500D01*
X133820440Y-108850500D01*
X133899560Y-108850500D01*
X133899562Y-108850500D01*
X133975989Y-108830021D01*
X134044511Y-108790460D01*
X134100460Y-108734511D01*
X134140021Y-108665989D01*
X134160500Y-108589562D01*
X134160500Y-108510438D01*
X134140021Y-108434011D01*
X134140017Y-108434004D01*
X134100464Y-108365495D01*
X134100458Y-108365487D01*
X134100454Y-108365483D01*
X134100453Y-108365481D01*
X134044517Y-108309545D01*
X134044515Y-108309544D01*
X134044512Y-108309541D01*
X134044504Y-108309535D01*
X134015748Y-108292933D01*
X133976872Y-108270488D01*
X133976050Y-108270004D01*
X133975995Y-108269981D01*
X133975991Y-108269980D01*
X133975990Y-108269979D01*
X133950513Y-108263152D01*
X133950509Y-108263150D01*
X133899563Y-108249500D01*
X133899562Y-108249500D01*
X133820438Y-108249500D01*
X133782224Y-108259739D01*
X133782221Y-108259739D01*
X133744010Y-108269978D01*
X133743939Y-108270008D01*
X133743130Y-108270485D01*
X133675508Y-108309526D01*
X133675483Y-108309544D01*
X133675481Y-108309545D01*
X133619545Y-108365481D01*
X133619544Y-108365483D01*
X133619526Y-108365508D01*
X133580485Y-108433130D01*
X133580010Y-108433936D01*
X133579977Y-108434013D01*
X133571280Y-108466474D01*
X133559500Y-108510436D01*
X133309240Y-108510436D01*
X133296745Y-107920689D01*
X134309500Y-107920689D01*
X134309500Y-107920691D01*
X134309500Y-108039309D01*
X134340201Y-108153886D01*
X134399511Y-108256613D01*
X134483387Y-108340489D01*
X134528586Y-108366585D01*
X134556328Y-108388401D01*
X134565906Y-108398446D01*
X134597922Y-108460548D01*
X134591281Y-108530101D01*
X134591273Y-108530121D01*
X134590669Y-108531629D01*
X134556755Y-108579243D01*
X134552968Y-108582524D01*
X134533773Y-108596191D01*
X134493395Y-108619503D01*
X134493393Y-108619505D01*
X134493386Y-108619510D01*
X134493370Y-108619525D01*
X134409517Y-108703378D01*
X134409513Y-108703383D01*
X134409507Y-108703392D01*
X134356339Y-108795483D01*
X134350203Y-108806110D01*
X134350199Y-108806119D01*
X134334687Y-108864011D01*
X134319500Y-108920691D01*
X134319500Y-109039309D01*
X134350201Y-109153886D01*
X134409511Y-109256613D01*
X134409513Y-109256615D01*
X134421416Y-109268518D01*
X134441427Y-109294730D01*
X134453192Y-109315342D01*
X134469500Y-109376811D01*
X134469500Y-109409562D01*
X134483152Y-109460513D01*
X134489979Y-109485990D01*
X134489980Y-109485991D01*
X134506651Y-109514866D01*
X134506652Y-109514867D01*
X134529539Y-109554509D01*
X134529541Y-109554512D01*
X137045492Y-112070463D01*
X137046172Y-112070953D01*
X137048667Y-112072295D01*
X137114004Y-112110017D01*
X137114011Y-112110021D01*
X137190438Y-112130500D01*
X137190440Y-112130500D01*
X160749560Y-112130500D01*
X160749562Y-112130500D01*
X160825989Y-112110021D01*
X160894511Y-112070460D01*
X160950460Y-112014511D01*
X164024533Y-108940438D01*
X164919500Y-108940438D01*
X164919500Y-108949732D01*
X164919500Y-109019563D01*
X164933150Y-109070509D01*
X164933151Y-109070509D01*
X164933152Y-109070513D01*
X164939979Y-109095990D01*
X164939980Y-109095991D01*
X164939981Y-109095995D01*
X164940003Y-109096048D01*
X164940489Y-109096873D01*
X164977689Y-109161307D01*
X164979074Y-109163882D01*
X164979458Y-109164429D01*
X165035492Y-109220463D01*
X165036172Y-109220953D01*
X165038667Y-109222295D01*
X165104004Y-109260017D01*
X165104011Y-109260021D01*
X165180438Y-109280500D01*
X165180440Y-109280500D01*
X165259560Y-109280500D01*
X165259562Y-109280500D01*
X165335989Y-109260021D01*
X165404511Y-109220460D01*
X165460460Y-109164511D01*
X165500021Y-109095989D01*
X165520500Y-109019562D01*
X165520500Y-108940438D01*
X165500021Y-108864011D01*
X165500017Y-108864004D01*
X165460464Y-108795495D01*
X165460458Y-108795487D01*
X165460454Y-108795483D01*
X165460453Y-108795481D01*
X165404517Y-108739545D01*
X165404515Y-108739544D01*
X165404512Y-108739541D01*
X165404504Y-108739535D01*
X165379164Y-108724905D01*
X165336872Y-108700488D01*
X165336050Y-108700004D01*
X165335995Y-108699981D01*
X165335991Y-108699980D01*
X165335990Y-108699979D01*
X165310513Y-108693152D01*
X165310509Y-108693150D01*
X165259563Y-108679500D01*
X165259562Y-108679500D01*
X165180438Y-108679500D01*
X165142224Y-108689739D01*
X165142221Y-108689739D01*
X165104010Y-108699978D01*
X165103939Y-108700008D01*
X165103130Y-108700485D01*
X165035508Y-108739526D01*
X165035483Y-108739544D01*
X165035481Y-108739545D01*
X164979545Y-108795481D01*
X164979544Y-108795483D01*
X164979526Y-108795508D01*
X164948103Y-108849933D01*
X164948100Y-108849942D01*
X164939982Y-108864004D01*
X164939979Y-108864009D01*
X164926326Y-108914962D01*
X164919500Y-108940438D01*
X164024533Y-108940438D01*
X164720460Y-108244511D01*
X164750700Y-108192133D01*
X164760021Y-108175989D01*
X164780500Y-108099562D01*
X164780500Y-106400438D01*
X164760021Y-106324011D01*
X164723076Y-106260020D01*
X164720464Y-106255495D01*
X164720458Y-106255487D01*
X164720455Y-106255484D01*
X164720454Y-106255482D01*
X164202807Y-105737836D01*
X164202805Y-105737834D01*
X164186981Y-105728698D01*
X164186978Y-105728696D01*
X164186978Y-105728695D01*
X164171158Y-105719562D01*
X164171154Y-105719561D01*
X164152720Y-105708918D01*
X164148821Y-105706667D01*
X164134286Y-105698274D01*
X164115169Y-105693152D01*
X164105272Y-105690500D01*
X164105271Y-105690499D01*
X164064220Y-105679500D01*
X164057857Y-105677795D01*
X164057856Y-105677795D01*
X163813420Y-105677795D01*
X163813415Y-105677794D01*
X163813413Y-105677795D01*
X163778479Y-105672770D01*
X163763480Y-105668365D01*
X163704712Y-105630597D01*
X163698905Y-105623896D01*
X163672831Y-105574752D01*
X163672767Y-105574512D01*
X163659799Y-105526114D01*
X163600489Y-105423387D01*
X163516613Y-105339511D01*
X163413886Y-105280201D01*
X163299309Y-105249500D01*
X163299306Y-105249500D01*
X163180691Y-105249500D01*
X163089728Y-105273873D01*
X163089723Y-105273874D01*
X163066114Y-105280201D01*
X163066112Y-105280201D01*
X163066112Y-105280202D01*
X163044947Y-105292421D01*
X163044939Y-105292425D01*
X162963386Y-105339511D01*
X162963378Y-105339517D01*
X162879517Y-105423378D01*
X162879513Y-105423383D01*
X162879509Y-105423389D01*
X162879507Y-105423391D01*
X162837884Y-105495487D01*
X162837883Y-105495488D01*
X162820201Y-105526111D01*
X162820201Y-105526112D01*
X162798981Y-105605306D01*
X162789500Y-105640691D01*
X162789500Y-105759309D01*
X162820201Y-105873886D01*
X162879511Y-105976613D01*
X162963387Y-106060489D01*
X163066114Y-106119799D01*
X163139440Y-106139446D01*
X163169341Y-106151831D01*
X163196661Y-106167604D01*
X163222335Y-106187306D01*
X163253836Y-106218807D01*
X163254355Y-106219188D01*
X163256993Y-106220608D01*
X163317405Y-106255487D01*
X163317407Y-106255487D01*
X163322306Y-106258316D01*
X163398733Y-106278795D01*
X163477857Y-106278795D01*
X163824632Y-106278795D01*
X163851120Y-106282603D01*
X163859564Y-106283816D01*
X163884808Y-106291229D01*
X163937554Y-106322525D01*
X164130573Y-106515544D01*
X164151723Y-106543796D01*
X164164331Y-106566885D01*
X164179500Y-106626314D01*
X164179500Y-107866337D01*
X164179499Y-107866339D01*
X164179500Y-107866340D01*
X164174476Y-107901274D01*
X164167064Y-107926515D01*
X164135769Y-107979259D01*
X160634455Y-111480573D01*
X160606204Y-111501722D01*
X160583116Y-111514330D01*
X160523686Y-111529500D01*
X137423663Y-111529500D01*
X137423662Y-111529499D01*
X137423662Y-111529500D01*
X137388727Y-111524477D01*
X137363485Y-111517065D01*
X137310740Y-111485769D01*
X136755410Y-110930439D01*
X137919500Y-110930439D01*
X137919500Y-111009563D01*
X137933150Y-111060509D01*
X137933151Y-111060509D01*
X137933152Y-111060513D01*
X137939979Y-111085990D01*
X137939980Y-111085991D01*
X137939981Y-111085995D01*
X137940003Y-111086048D01*
X137940489Y-111086873D01*
X137977689Y-111151307D01*
X137979074Y-111153882D01*
X137979458Y-111154429D01*
X138035492Y-111210463D01*
X138036172Y-111210953D01*
X138038667Y-111212295D01*
X138104004Y-111250017D01*
X138104011Y-111250021D01*
X138180438Y-111270500D01*
X138180440Y-111270500D01*
X138259560Y-111270500D01*
X138259562Y-111270500D01*
X138335989Y-111250021D01*
X138404511Y-111210460D01*
X138460460Y-111154511D01*
X138500021Y-111085989D01*
X138520500Y-111009562D01*
X138520500Y-110930438D01*
X138500021Y-110854011D01*
X138486447Y-110830500D01*
X138486446Y-110830498D01*
X138460468Y-110785501D01*
X138460460Y-110785489D01*
X138460453Y-110785481D01*
X138404517Y-110729545D01*
X138404515Y-110729544D01*
X138404512Y-110729541D01*
X138404504Y-110729535D01*
X138378481Y-110714511D01*
X138336872Y-110690488D01*
X138336050Y-110690004D01*
X138335995Y-110689981D01*
X138335991Y-110689980D01*
X138335990Y-110689979D01*
X138310513Y-110683152D01*
X138310509Y-110683150D01*
X138259563Y-110669500D01*
X138259562Y-110669500D01*
X138180438Y-110669500D01*
X138142224Y-110679739D01*
X138142221Y-110679739D01*
X138104010Y-110689978D01*
X138103939Y-110690008D01*
X138103130Y-110690485D01*
X138035508Y-110729526D01*
X138035483Y-110729544D01*
X138035481Y-110729545D01*
X137979545Y-110785481D01*
X137979544Y-110785483D01*
X137979541Y-110785486D01*
X137979541Y-110785487D01*
X137979540Y-110785489D01*
X137979526Y-110785508D01*
X137940485Y-110853130D01*
X137940010Y-110853936D01*
X137939977Y-110854013D01*
X137926326Y-110904958D01*
X137926327Y-110904959D01*
X137919500Y-110930439D01*
X136755410Y-110930439D01*
X135192476Y-109367505D01*
X135171324Y-109339249D01*
X135163832Y-109325528D01*
X135163042Y-109321895D01*
X135148981Y-109257261D01*
X135149613Y-109248420D01*
X135165910Y-109195262D01*
X135179027Y-109172543D01*
X135189799Y-109153886D01*
X135220500Y-109039309D01*
X135220500Y-108920691D01*
X135189799Y-108806114D01*
X135130489Y-108703387D01*
X135046613Y-108619511D01*
X135001411Y-108593413D01*
X135001410Y-108593412D01*
X135001409Y-108593412D01*
X135001406Y-108593410D01*
X134973666Y-108571593D01*
X134964066Y-108561524D01*
X134932052Y-108499420D01*
X134938275Y-108430933D01*
X134939391Y-108428068D01*
X134982075Y-108372754D01*
X134992912Y-108365718D01*
X135036613Y-108340489D01*
X135051994Y-108325106D01*
X135057492Y-108321340D01*
X135059662Y-108318057D01*
X135076010Y-108308655D01*
X135089591Y-108299352D01*
X135093747Y-108297516D01*
X135099177Y-108295581D01*
X135103592Y-108293169D01*
X135108360Y-108291065D01*
X135126208Y-108288728D01*
X135158445Y-108280500D01*
X136586337Y-108280500D01*
X136621269Y-108285521D01*
X136646513Y-108292934D01*
X136699259Y-108324230D01*
X139145489Y-110770460D01*
X139204826Y-110804718D01*
X139204831Y-110804723D01*
X139204832Y-110804722D01*
X139213995Y-110810013D01*
X139213999Y-110810015D01*
X139214008Y-110810020D01*
X139214012Y-110810022D01*
X139290438Y-110830500D01*
X139290440Y-110830500D01*
X153433571Y-110830500D01*
X153433573Y-110830500D01*
X153623210Y-110797062D01*
X153804159Y-110731201D01*
X153970923Y-110634920D01*
X154118434Y-110511143D01*
X154242211Y-110363632D01*
X154338492Y-110196868D01*
X154404353Y-110015919D01*
X154437791Y-109826282D01*
X154437791Y-109730001D01*
X154437791Y-109682406D01*
X154437791Y-109682405D01*
X154437791Y-108154979D01*
X154437985Y-108148040D01*
X154437987Y-108148013D01*
X154438377Y-108141055D01*
X154438957Y-108134180D01*
X154447973Y-108054171D01*
X154450300Y-108040478D01*
X154453378Y-108026991D01*
X154457225Y-108013637D01*
X154480349Y-107947550D01*
X154485661Y-107934729D01*
X154485667Y-107934717D01*
X154491670Y-107922250D01*
X154498385Y-107910101D01*
X154535642Y-107850807D01*
X154543666Y-107839499D01*
X154552316Y-107828652D01*
X154561558Y-107818312D01*
X154611065Y-107768805D01*
X154621405Y-107759563D01*
X154632252Y-107750913D01*
X154643560Y-107742889D01*
X154702854Y-107705632D01*
X154715003Y-107698917D01*
X154727489Y-107692905D01*
X154740303Y-107687596D01*
X154806399Y-107664468D01*
X154819749Y-107660624D01*
X154833242Y-107657545D01*
X154846947Y-107655217D01*
X154846956Y-107655216D01*
X154902617Y-107648945D01*
X154926934Y-107646205D01*
X154933842Y-107645623D01*
X154940794Y-107645233D01*
X154947739Y-107645038D01*
X155326843Y-107645038D01*
X155333799Y-107645233D01*
X155340740Y-107645623D01*
X155347665Y-107646207D01*
X155379303Y-107649771D01*
X155427644Y-107655218D01*
X155441320Y-107657541D01*
X155454844Y-107660627D01*
X155468193Y-107664474D01*
X155534265Y-107687594D01*
X155547093Y-107692906D01*
X155559579Y-107698919D01*
X155571733Y-107705637D01*
X155586136Y-107714687D01*
X155625675Y-107739532D01*
X155625676Y-107739532D01*
X155630989Y-107742870D01*
X155642336Y-107750921D01*
X155653165Y-107759557D01*
X155663532Y-107768822D01*
X155713005Y-107818295D01*
X155722270Y-107828662D01*
X155730906Y-107839491D01*
X155738954Y-107850833D01*
X155776188Y-107910091D01*
X155782912Y-107922257D01*
X155788913Y-107934717D01*
X155794237Y-107947570D01*
X155817354Y-108013637D01*
X155821202Y-108026994D01*
X155824280Y-108040478D01*
X155826610Y-108054189D01*
X155835620Y-108134149D01*
X155836204Y-108141066D01*
X155836595Y-108148013D01*
X155836791Y-108154981D01*
X155836791Y-109826286D01*
X155870222Y-110015889D01*
X155870785Y-110018704D01*
X155873250Y-110024220D01*
X155881133Y-110045876D01*
X155883112Y-110051312D01*
X155883112Y-110051313D01*
X155936090Y-110196868D01*
X155936091Y-110196870D01*
X155954929Y-110229499D01*
X155954930Y-110229500D01*
X155994628Y-110298260D01*
X156032371Y-110363632D01*
X156156148Y-110511143D01*
X156303659Y-110634920D01*
X156470423Y-110731201D01*
X156651372Y-110797062D01*
X156651376Y-110797062D01*
X156651377Y-110797063D01*
X156689460Y-110803778D01*
X156841009Y-110830500D01*
X156841011Y-110830500D01*
X159369560Y-110830500D01*
X159369562Y-110830500D01*
X159445989Y-110810021D01*
X159514511Y-110770460D01*
X159570460Y-110714511D01*
X162897866Y-107387103D01*
X162926114Y-107365960D01*
X162939834Y-107358469D01*
X163008099Y-107343619D01*
X163008100Y-107343619D01*
X163016940Y-107344251D01*
X163070098Y-107360548D01*
X163132661Y-107396669D01*
X163135684Y-107398547D01*
X163156333Y-107404079D01*
X163250691Y-107429363D01*
X163250694Y-107429363D01*
X163369306Y-107429363D01*
X163369309Y-107429363D01*
X163483886Y-107398662D01*
X163586613Y-107339352D01*
X163670489Y-107255476D01*
X163729799Y-107152749D01*
X163760500Y-107038172D01*
X163760500Y-106919554D01*
X163729799Y-106804977D01*
X163670489Y-106702250D01*
X163586613Y-106618374D01*
X163483886Y-106559064D01*
X163369309Y-106528363D01*
X163369306Y-106528363D01*
X163250691Y-106528363D01*
X163159728Y-106552736D01*
X163159723Y-106552737D01*
X163136114Y-106559064D01*
X163136112Y-106559064D01*
X163136112Y-106559065D01*
X163114947Y-106571284D01*
X163114939Y-106571288D01*
X163033386Y-106618374D01*
X163033383Y-106618376D01*
X163022326Y-106629433D01*
X163022325Y-106629435D01*
X163022322Y-106629437D01*
X162994071Y-106650587D01*
X162970984Y-106663194D01*
X162911555Y-106678363D01*
X162841572Y-106678363D01*
X162811004Y-106686554D01*
X162765144Y-106698841D01*
X162751012Y-106707000D01*
X162751009Y-106707003D01*
X162728474Y-106720015D01*
X162728465Y-106720020D01*
X162696635Y-106738395D01*
X162696629Y-106738399D01*
X162696620Y-106738407D01*
X159254455Y-110180573D01*
X159234813Y-110195277D01*
X159226204Y-110201722D01*
X159203116Y-110214330D01*
X159143686Y-110229500D01*
X156947738Y-110229500D01*
X156940769Y-110229304D01*
X156933823Y-110228913D01*
X156926918Y-110228330D01*
X156918658Y-110227400D01*
X156918647Y-110227399D01*
X156846942Y-110219319D01*
X156833231Y-110216989D01*
X156819747Y-110213911D01*
X156806390Y-110210063D01*
X156740323Y-110186946D01*
X156727470Y-110181622D01*
X156715010Y-110175621D01*
X156702844Y-110168897D01*
X156643586Y-110131663D01*
X156632244Y-110123615D01*
X156621415Y-110114979D01*
X156611048Y-110105714D01*
X156561575Y-110056241D01*
X156552311Y-110045876D01*
X156543673Y-110035045D01*
X156535622Y-110023697D01*
X156530735Y-110015919D01*
X156498391Y-109964445D01*
X156491666Y-109952277D01*
X156485661Y-109939805D01*
X156480345Y-109926970D01*
X156470247Y-109898114D01*
X156457224Y-109860897D01*
X156453378Y-109847542D01*
X156450296Y-109834036D01*
X156447971Y-109820347D01*
X156438959Y-109740367D01*
X156438376Y-109733448D01*
X156437986Y-109726496D01*
X156437791Y-109719551D01*
X156437791Y-108048253D01*
X156437774Y-108048083D01*
X156437539Y-108046833D01*
X156436418Y-108040478D01*
X156404353Y-107858619D01*
X156338492Y-107677670D01*
X156242211Y-107510906D01*
X156118434Y-107363395D01*
X155970923Y-107239618D01*
X155970920Y-107239616D01*
X155970919Y-107239615D01*
X155877169Y-107185489D01*
X155806510Y-107144694D01*
X155804332Y-107143373D01*
X155802589Y-107142765D01*
X155631514Y-107080498D01*
X155625998Y-107078033D01*
X155623180Y-107077469D01*
X155433577Y-107044038D01*
X155433575Y-107044038D01*
X155433573Y-107044038D01*
X155376853Y-107044038D01*
X154984885Y-107044038D01*
X154937290Y-107044038D01*
X154841009Y-107044038D01*
X154841006Y-107044038D01*
X154841003Y-107044038D01*
X154651382Y-107077472D01*
X154471994Y-107142765D01*
X154470425Y-107143336D01*
X154470418Y-107143339D01*
X154470416Y-107143340D01*
X154470414Y-107143341D01*
X154470409Y-107143343D01*
X154303664Y-107239613D01*
X154303657Y-107239618D01*
X154156148Y-107363395D01*
X154032371Y-107510904D01*
X154032366Y-107510911D01*
X153936096Y-107677656D01*
X153936094Y-107677661D01*
X153936087Y-107677677D01*
X153870225Y-107858629D01*
X153836791Y-108048250D01*
X153836791Y-109719554D01*
X153836596Y-109726510D01*
X153836206Y-109733451D01*
X153835621Y-109740380D01*
X153826610Y-109820347D01*
X153824280Y-109834058D01*
X153821202Y-109847542D01*
X153817354Y-109860899D01*
X153794237Y-109926966D01*
X153788913Y-109939819D01*
X153782912Y-109952279D01*
X153776188Y-109964445D01*
X153738954Y-110023703D01*
X153730906Y-110035045D01*
X153722270Y-110045874D01*
X153713005Y-110056241D01*
X153663532Y-110105714D01*
X153653165Y-110114979D01*
X153642336Y-110123615D01*
X153630994Y-110131663D01*
X153571736Y-110168897D01*
X153559570Y-110175621D01*
X153547110Y-110181622D01*
X153534257Y-110186946D01*
X153468190Y-110210063D01*
X153454833Y-110213911D01*
X153441349Y-110216989D01*
X153427637Y-110219319D01*
X153353631Y-110227658D01*
X153353630Y-110227658D01*
X153347656Y-110228331D01*
X153340739Y-110228915D01*
X153333796Y-110229305D01*
X153326843Y-110229500D01*
X139523663Y-110229500D01*
X139523662Y-110229499D01*
X139523662Y-110229500D01*
X139488727Y-110224477D01*
X139463485Y-110217065D01*
X139410740Y-110185769D01*
X136964517Y-107739545D01*
X136964515Y-107739544D01*
X136964512Y-107739541D01*
X136964504Y-107739535D01*
X136942548Y-107726859D01*
X136907620Y-107706693D01*
X136907617Y-107706692D01*
X136895995Y-107699982D01*
X136895990Y-107699979D01*
X136858333Y-107689889D01*
X136854620Y-107688894D01*
X136854611Y-107688891D01*
X136819562Y-107679500D01*
X136819560Y-107679500D01*
X135165794Y-107679500D01*
X135165793Y-107679499D01*
X135165793Y-107679500D01*
X135130858Y-107674477D01*
X135105616Y-107667065D01*
X135052871Y-107635769D01*
X135036615Y-107619513D01*
X135036613Y-107619511D01*
X134933886Y-107560201D01*
X134819309Y-107529500D01*
X134819306Y-107529500D01*
X134700691Y-107529500D01*
X134609728Y-107553873D01*
X134609723Y-107553874D01*
X134586114Y-107560201D01*
X134586112Y-107560201D01*
X134586112Y-107560202D01*
X134564946Y-107572422D01*
X134564937Y-107572426D01*
X134483386Y-107619511D01*
X134420351Y-107682546D01*
X134420350Y-107682545D01*
X134420338Y-107682559D01*
X134414840Y-107688056D01*
X134399418Y-107696474D01*
X134392128Y-107714687D01*
X134391635Y-107716956D01*
X134390192Y-107719525D01*
X134386693Y-107725584D01*
X134385958Y-107726859D01*
X134385954Y-107726866D01*
X134374569Y-107746585D01*
X134340200Y-107806112D01*
X134340174Y-107806178D01*
X134339933Y-107807109D01*
X134309500Y-107920689D01*
X133296745Y-107920689D01*
X133284240Y-107330436D01*
X133669500Y-107330436D01*
X133669500Y-107330438D01*
X133669500Y-107409562D01*
X133674806Y-107429363D01*
X133689979Y-107485990D01*
X133689982Y-107485995D01*
X133697111Y-107498344D01*
X133697112Y-107498345D01*
X133727689Y-107551308D01*
X133729035Y-107553810D01*
X133729541Y-107554512D01*
X133785492Y-107610463D01*
X133786174Y-107610955D01*
X133788680Y-107612303D01*
X133845380Y-107645038D01*
X133845382Y-107645039D01*
X133845381Y-107645039D01*
X133850660Y-107648086D01*
X133854011Y-107650021D01*
X133930438Y-107670500D01*
X133930440Y-107670500D01*
X134009560Y-107670500D01*
X134009562Y-107670500D01*
X134085989Y-107650021D01*
X134154511Y-107610460D01*
X134195122Y-107569848D01*
X134212031Y-107560615D01*
X134214586Y-107558179D01*
X134218340Y-107540930D01*
X134219734Y-107538447D01*
X134250021Y-107485989D01*
X134270500Y-107409562D01*
X134270500Y-107330438D01*
X134250021Y-107254011D01*
X134241710Y-107239616D01*
X134210472Y-107185508D01*
X134210468Y-107185501D01*
X134210460Y-107185489D01*
X134210453Y-107185481D01*
X134154517Y-107129545D01*
X134154515Y-107129544D01*
X134154512Y-107129541D01*
X134154504Y-107129535D01*
X134129164Y-107114905D01*
X134086872Y-107090488D01*
X134086050Y-107090004D01*
X134085995Y-107089981D01*
X134085991Y-107089980D01*
X134085990Y-107089979D01*
X134060513Y-107083152D01*
X134060509Y-107083150D01*
X134009563Y-107069500D01*
X134009562Y-107069500D01*
X133930438Y-107069500D01*
X133930437Y-107069500D01*
X133900671Y-107077475D01*
X133900672Y-107077476D01*
X133854009Y-107089979D01*
X133853937Y-107090009D01*
X133853130Y-107090485D01*
X133785508Y-107129526D01*
X133785483Y-107129544D01*
X133785481Y-107129545D01*
X133729545Y-107185481D01*
X133729544Y-107185483D01*
X133729541Y-107185486D01*
X133729541Y-107185487D01*
X133729540Y-107185489D01*
X133729526Y-107185508D01*
X133690485Y-107253130D01*
X133690010Y-107253936D01*
X133689977Y-107254013D01*
X133678870Y-107295468D01*
X133669500Y-107330436D01*
X133284240Y-107330436D01*
X133276708Y-106974913D01*
X133283566Y-106931543D01*
X133628432Y-105940438D01*
X134449500Y-105940438D01*
X134449500Y-105949732D01*
X134449500Y-106019564D01*
X134459434Y-106056637D01*
X134459436Y-106056645D01*
X134460466Y-106060486D01*
X134469979Y-106095990D01*
X134469982Y-106095995D01*
X134476631Y-106107512D01*
X134476632Y-106107514D01*
X134507689Y-106161308D01*
X134509035Y-106163810D01*
X134509541Y-106164512D01*
X134565488Y-106220459D01*
X134566180Y-106220958D01*
X134568680Y-106222303D01*
X134626158Y-106255487D01*
X134634009Y-106260020D01*
X134634010Y-106260020D01*
X134634011Y-106260021D01*
X134710438Y-106280500D01*
X134710440Y-106280500D01*
X134789560Y-106280500D01*
X134789562Y-106280500D01*
X134865989Y-106260021D01*
X134934511Y-106220460D01*
X134990460Y-106164511D01*
X135030021Y-106095989D01*
X135050500Y-106019562D01*
X135050500Y-105940438D01*
X135030021Y-105864011D01*
X135030017Y-105864004D01*
X134990464Y-105795495D01*
X134990458Y-105795487D01*
X134990454Y-105795483D01*
X134990453Y-105795481D01*
X134934511Y-105739539D01*
X134931413Y-105737494D01*
X134920860Y-105725006D01*
X134907004Y-105716332D01*
X134904112Y-105710194D01*
X134840511Y-105693151D01*
X134840511Y-105693150D01*
X134789563Y-105679500D01*
X134789562Y-105679500D01*
X134710438Y-105679500D01*
X134672224Y-105689739D01*
X134672221Y-105689739D01*
X134634010Y-105699978D01*
X134633939Y-105700008D01*
X134633130Y-105700485D01*
X134565508Y-105739526D01*
X134565483Y-105739544D01*
X134565481Y-105739545D01*
X134509545Y-105795481D01*
X134509544Y-105795483D01*
X134509526Y-105795508D01*
X134478103Y-105849933D01*
X134478100Y-105849942D01*
X134469982Y-105864004D01*
X134469979Y-105864009D01*
X134456326Y-105914962D01*
X134449500Y-105940438D01*
X133628432Y-105940438D01*
X133732820Y-105640438D01*
X136639500Y-105640438D01*
X136639500Y-105719561D01*
X136653150Y-105770509D01*
X136653151Y-105770509D01*
X136653152Y-105770513D01*
X136659979Y-105795990D01*
X136659980Y-105795991D01*
X136659981Y-105795995D01*
X136660003Y-105796048D01*
X136660489Y-105796873D01*
X136697689Y-105861307D01*
X136699074Y-105863882D01*
X136699458Y-105864429D01*
X136755492Y-105920463D01*
X136756172Y-105920953D01*
X136758667Y-105922295D01*
X136824004Y-105960017D01*
X136824011Y-105960021D01*
X136900438Y-105980500D01*
X136900440Y-105980500D01*
X136979560Y-105980500D01*
X136979562Y-105980500D01*
X137055989Y-105960021D01*
X137124511Y-105920460D01*
X137180460Y-105864511D01*
X137220021Y-105795989D01*
X137240500Y-105719562D01*
X137240500Y-105640438D01*
X137220021Y-105564011D01*
X137220017Y-105564004D01*
X137180464Y-105495495D01*
X137180458Y-105495487D01*
X137180454Y-105495483D01*
X137180454Y-105495482D01*
X137126909Y-105441938D01*
X137124514Y-105439543D01*
X137124511Y-105439540D01*
X137124507Y-105439537D01*
X137124501Y-105439533D01*
X137123729Y-105439087D01*
X137056872Y-105400488D01*
X137056050Y-105400004D01*
X137055995Y-105399981D01*
X137055991Y-105399980D01*
X137055990Y-105399979D01*
X137030513Y-105393152D01*
X137030509Y-105393150D01*
X136979563Y-105379500D01*
X136979562Y-105379500D01*
X136900438Y-105379500D01*
X136862224Y-105389739D01*
X136862221Y-105389739D01*
X136824010Y-105399978D01*
X136823939Y-105400008D01*
X136823130Y-105400485D01*
X136755508Y-105439526D01*
X136755482Y-105439544D01*
X136699545Y-105495481D01*
X136699544Y-105495483D01*
X136699541Y-105495486D01*
X136699541Y-105495487D01*
X136699540Y-105495489D01*
X136699526Y-105495508D01*
X136660485Y-105563130D01*
X136660009Y-105563937D01*
X136659978Y-105564010D01*
X136657167Y-105574504D01*
X136639500Y-105640438D01*
X133732820Y-105640438D01*
X133833729Y-105350438D01*
X140899500Y-105350438D01*
X140899500Y-105359732D01*
X140899500Y-105429563D01*
X140913150Y-105480509D01*
X140913151Y-105480509D01*
X140913152Y-105480513D01*
X140919979Y-105505990D01*
X140919980Y-105505991D01*
X140919981Y-105505995D01*
X140920003Y-105506048D01*
X140920489Y-105506873D01*
X140957689Y-105571307D01*
X140959074Y-105573882D01*
X140959458Y-105574429D01*
X141015492Y-105630463D01*
X141016174Y-105630955D01*
X141018680Y-105632303D01*
X141063380Y-105658110D01*
X141063382Y-105658111D01*
X141063381Y-105658111D01*
X141079645Y-105667500D01*
X141084011Y-105670021D01*
X141160438Y-105690500D01*
X141160440Y-105690500D01*
X141239560Y-105690500D01*
X141239562Y-105690500D01*
X141315989Y-105670021D01*
X141384511Y-105630460D01*
X141440460Y-105574511D01*
X141440462Y-105574507D01*
X141440466Y-105574503D01*
X141468960Y-105525145D01*
X141480021Y-105505989D01*
X141500500Y-105429562D01*
X141500500Y-105350438D01*
X141480021Y-105274011D01*
X141477026Y-105268824D01*
X141465871Y-105249501D01*
X141453762Y-105228528D01*
X141440464Y-105205495D01*
X141440458Y-105205487D01*
X141440457Y-105205486D01*
X141440453Y-105205481D01*
X141384517Y-105149545D01*
X141384515Y-105149544D01*
X141384512Y-105149541D01*
X141384504Y-105149535D01*
X141359164Y-105134905D01*
X141316872Y-105110488D01*
X141316050Y-105110004D01*
X141315995Y-105109981D01*
X141315991Y-105109980D01*
X141315990Y-105109979D01*
X141290513Y-105103152D01*
X141290509Y-105103150D01*
X141239563Y-105089500D01*
X141239562Y-105089500D01*
X141160438Y-105089500D01*
X141122224Y-105099739D01*
X141122221Y-105099739D01*
X141084010Y-105109978D01*
X141083939Y-105110008D01*
X141083130Y-105110485D01*
X141015508Y-105149526D01*
X141015483Y-105149544D01*
X141015481Y-105149545D01*
X140959545Y-105205481D01*
X140959544Y-105205483D01*
X140959526Y-105205508D01*
X140928103Y-105259933D01*
X140928100Y-105259942D01*
X140919982Y-105274004D01*
X140919979Y-105274009D01*
X140918320Y-105280201D01*
X140899500Y-105350438D01*
X133833729Y-105350438D01*
X134166574Y-104393880D01*
X155529500Y-104393880D01*
X155529500Y-104403174D01*
X155529500Y-104473005D01*
X155543150Y-104523951D01*
X155543151Y-104523951D01*
X155543152Y-104523955D01*
X155549979Y-104549432D01*
X155549980Y-104549433D01*
X155549981Y-104549437D01*
X155550003Y-104549490D01*
X155550489Y-104550315D01*
X155587689Y-104614749D01*
X155589074Y-104617324D01*
X155589458Y-104617871D01*
X155645492Y-104673905D01*
X155646172Y-104674395D01*
X155648667Y-104675737D01*
X155714004Y-104713459D01*
X155714011Y-104713463D01*
X155790438Y-104733942D01*
X155790440Y-104733942D01*
X155869560Y-104733942D01*
X155869562Y-104733942D01*
X155945989Y-104713463D01*
X156014511Y-104673902D01*
X156070460Y-104617953D01*
X156110021Y-104549431D01*
X156130500Y-104473004D01*
X156130500Y-104393880D01*
X156110021Y-104317453D01*
X156105984Y-104310460D01*
X156070464Y-104248937D01*
X156070458Y-104248929D01*
X156070457Y-104248928D01*
X156070453Y-104248923D01*
X156014517Y-104192987D01*
X156014515Y-104192986D01*
X156014512Y-104192983D01*
X156014504Y-104192977D01*
X155989164Y-104178347D01*
X155946872Y-104153930D01*
X155946050Y-104153446D01*
X155945995Y-104153423D01*
X155945991Y-104153422D01*
X155945990Y-104153421D01*
X155920513Y-104146594D01*
X155920509Y-104146592D01*
X155869563Y-104132942D01*
X155869562Y-104132942D01*
X155790438Y-104132942D01*
X155752224Y-104143181D01*
X155752221Y-104143181D01*
X155714010Y-104153420D01*
X155713939Y-104153450D01*
X155713130Y-104153927D01*
X155645508Y-104192968D01*
X155645483Y-104192986D01*
X155645481Y-104192987D01*
X155589545Y-104248923D01*
X155589544Y-104248925D01*
X155589526Y-104248950D01*
X155558103Y-104303375D01*
X155558100Y-104303384D01*
X155549982Y-104317446D01*
X155549979Y-104317451D01*
X155541252Y-104350021D01*
X155529500Y-104393880D01*
X134166574Y-104393880D01*
X136464313Y-97790438D01*
X143830929Y-97790438D01*
X143830929Y-97799732D01*
X143830929Y-97869563D01*
X143844579Y-97920509D01*
X143844580Y-97920509D01*
X143844581Y-97920513D01*
X143851408Y-97945990D01*
X143851409Y-97945991D01*
X143851410Y-97945995D01*
X143851432Y-97946048D01*
X143851918Y-97946873D01*
X143889118Y-98011307D01*
X143890503Y-98013882D01*
X143890887Y-98014429D01*
X143946921Y-98070463D01*
X143947601Y-98070953D01*
X143950096Y-98072295D01*
X144015433Y-98110017D01*
X144015440Y-98110021D01*
X144091867Y-98130500D01*
X144091869Y-98130500D01*
X144170989Y-98130500D01*
X144170991Y-98130500D01*
X144247418Y-98110021D01*
X144315940Y-98070460D01*
X144371889Y-98014511D01*
X144411450Y-97945989D01*
X144431929Y-97869562D01*
X144431929Y-97790438D01*
X144411450Y-97714011D01*
X144411446Y-97714004D01*
X144371893Y-97645495D01*
X144371887Y-97645487D01*
X144371883Y-97645483D01*
X144371882Y-97645481D01*
X144315946Y-97589545D01*
X144315944Y-97589544D01*
X144315941Y-97589541D01*
X144315933Y-97589535D01*
X144290593Y-97574905D01*
X144248301Y-97550488D01*
X144247479Y-97550004D01*
X144247424Y-97549981D01*
X144247420Y-97549980D01*
X144247419Y-97549979D01*
X144221942Y-97543152D01*
X144221938Y-97543150D01*
X144170992Y-97529500D01*
X144170991Y-97529500D01*
X144091867Y-97529500D01*
X144053653Y-97539739D01*
X144053650Y-97539739D01*
X144015439Y-97549978D01*
X144015368Y-97550008D01*
X144014559Y-97550485D01*
X143946937Y-97589526D01*
X143946912Y-97589544D01*
X143946910Y-97589545D01*
X143890974Y-97645481D01*
X143890973Y-97645483D01*
X143890955Y-97645508D01*
X143859532Y-97699933D01*
X143859529Y-97699942D01*
X143851411Y-97714004D01*
X143851408Y-97714009D01*
X143837755Y-97764962D01*
X143830929Y-97790438D01*
X136464313Y-97790438D01*
X137229126Y-95592451D01*
X143834824Y-95592451D01*
X143834824Y-95601741D01*
X143834824Y-95671576D01*
X143848474Y-95722522D01*
X143848475Y-95722522D01*
X143848476Y-95722526D01*
X143855303Y-95748003D01*
X143855304Y-95748004D01*
X143855305Y-95748008D01*
X143855327Y-95748061D01*
X143855813Y-95748886D01*
X143893013Y-95813320D01*
X143894398Y-95815895D01*
X143894782Y-95816442D01*
X143950816Y-95872476D01*
X143951496Y-95872966D01*
X143953991Y-95874308D01*
X144019328Y-95912030D01*
X144019335Y-95912034D01*
X144095762Y-95932513D01*
X144095764Y-95932513D01*
X144174884Y-95932513D01*
X144174886Y-95932513D01*
X144251313Y-95912034D01*
X144319835Y-95872473D01*
X144375784Y-95816524D01*
X144415345Y-95748002D01*
X144435824Y-95671575D01*
X144435824Y-95592451D01*
X144415345Y-95516024D01*
X144406981Y-95501537D01*
X144406980Y-95501535D01*
X144375792Y-95447514D01*
X144375784Y-95447502D01*
X144375777Y-95447494D01*
X144319841Y-95391558D01*
X144319839Y-95391557D01*
X144319836Y-95391554D01*
X144319828Y-95391548D01*
X144294488Y-95376918D01*
X144252196Y-95352501D01*
X144251374Y-95352017D01*
X144251319Y-95351994D01*
X144251315Y-95351993D01*
X144251314Y-95351992D01*
X144225837Y-95345165D01*
X144225833Y-95345163D01*
X144174887Y-95331513D01*
X144174886Y-95331513D01*
X144095762Y-95331513D01*
X144057548Y-95341752D01*
X144057545Y-95341752D01*
X144019334Y-95351991D01*
X144019263Y-95352021D01*
X144018454Y-95352498D01*
X143950832Y-95391539D01*
X143950807Y-95391557D01*
X143950805Y-95391558D01*
X143894869Y-95447494D01*
X143894868Y-95447496D01*
X143894865Y-95447499D01*
X143894865Y-95447500D01*
X143894864Y-95447502D01*
X143894850Y-95447521D01*
X143863425Y-95501950D01*
X143863422Y-95501958D01*
X143855306Y-95516017D01*
X143855303Y-95516022D01*
X143844577Y-95556053D01*
X143834824Y-95592451D01*
X137229126Y-95592451D01*
X139985676Y-87670438D01*
X142049500Y-87670438D01*
X142049500Y-87749563D01*
X142063150Y-87800509D01*
X142063151Y-87800509D01*
X142063152Y-87800513D01*
X142069979Y-87825990D01*
X142069980Y-87825991D01*
X142069981Y-87825995D01*
X142070003Y-87826048D01*
X142070489Y-87826873D01*
X142107689Y-87891307D01*
X142109074Y-87893882D01*
X142109458Y-87894429D01*
X142165492Y-87950463D01*
X142166172Y-87950953D01*
X142168667Y-87952295D01*
X142234004Y-87990017D01*
X142234011Y-87990021D01*
X142310438Y-88010500D01*
X142310440Y-88010500D01*
X142389560Y-88010500D01*
X142389562Y-88010500D01*
X142465989Y-87990021D01*
X142534511Y-87950460D01*
X142590460Y-87894511D01*
X142630021Y-87825989D01*
X142650500Y-87749562D01*
X142650500Y-87670438D01*
X142630021Y-87594011D01*
X142622331Y-87580691D01*
X142622329Y-87580687D01*
X142622329Y-87580686D01*
X142601413Y-87544459D01*
X142590464Y-87525495D01*
X142590458Y-87525487D01*
X142590457Y-87525486D01*
X142590453Y-87525481D01*
X142534517Y-87469545D01*
X142534515Y-87469544D01*
X142534512Y-87469541D01*
X142534504Y-87469535D01*
X142509164Y-87454905D01*
X142466872Y-87430488D01*
X142466050Y-87430004D01*
X142465995Y-87429981D01*
X142465991Y-87429980D01*
X142465990Y-87429979D01*
X142440513Y-87423152D01*
X142440509Y-87423150D01*
X142389563Y-87409500D01*
X142389562Y-87409500D01*
X142310438Y-87409500D01*
X142272224Y-87419739D01*
X142272221Y-87419739D01*
X142234010Y-87429978D01*
X142233939Y-87430008D01*
X142233130Y-87430485D01*
X142165508Y-87469526D01*
X142165483Y-87469544D01*
X142165481Y-87469545D01*
X142109545Y-87525481D01*
X142109544Y-87525483D01*
X142109526Y-87525508D01*
X142070485Y-87593130D01*
X142070009Y-87593937D01*
X142069979Y-87594009D01*
X142063149Y-87619500D01*
X142049500Y-87670438D01*
X139985676Y-87670438D01*
X139991784Y-87652884D01*
X140003907Y-87627661D01*
X140594679Y-86687796D01*
X140644450Y-86642757D01*
X142253997Y-85842430D01*
X142322788Y-85830208D01*
X142345440Y-85834874D01*
X143659505Y-86236393D01*
X143659986Y-86236542D01*
X144654053Y-86544705D01*
X144655697Y-86545180D01*
X144661576Y-86546882D01*
X144662435Y-86547113D01*
X144680042Y-86547933D01*
X144750464Y-86551217D01*
X144750469Y-86551217D01*
X144750469Y-86551216D01*
X144750472Y-86551217D01*
X144759148Y-86549732D01*
X144834017Y-86521050D01*
X145816867Y-85901855D01*
X145838602Y-85886088D01*
X145840906Y-85884175D01*
X145852267Y-85874008D01*
X145902329Y-85797470D01*
X145905387Y-85789217D01*
X145918156Y-85721533D01*
X145899421Y-85632016D01*
X145895746Y-85624018D01*
X145891768Y-85618529D01*
X145848711Y-85559103D01*
X145848708Y-85559099D01*
X144570340Y-84374271D01*
X144568255Y-84372339D01*
X144480984Y-84291453D01*
X149510493Y-84291453D01*
X149510493Y-84300747D01*
X149510493Y-84370579D01*
X149513745Y-84382717D01*
X149513746Y-84382717D01*
X149530972Y-84447005D01*
X149530974Y-84447008D01*
X149530998Y-84447066D01*
X149531480Y-84447885D01*
X149568682Y-84512323D01*
X149570065Y-84514895D01*
X149570451Y-84515444D01*
X149626481Y-84571474D01*
X149627174Y-84571974D01*
X149629691Y-84573328D01*
X149670025Y-84596615D01*
X149670027Y-84596615D01*
X149695004Y-84611036D01*
X149771431Y-84631515D01*
X149771433Y-84631515D01*
X149850553Y-84631515D01*
X149850555Y-84631515D01*
X149891894Y-84620438D01*
X151029500Y-84620438D01*
X151029500Y-84629732D01*
X151029500Y-84699563D01*
X151043150Y-84750509D01*
X151043151Y-84750509D01*
X151043152Y-84750513D01*
X151049979Y-84775990D01*
X151049980Y-84775991D01*
X151049981Y-84775995D01*
X151050003Y-84776048D01*
X151050489Y-84776873D01*
X151087689Y-84841307D01*
X151089074Y-84843882D01*
X151089458Y-84844429D01*
X151145492Y-84900463D01*
X151146172Y-84900953D01*
X151148667Y-84902295D01*
X151214004Y-84940017D01*
X151214011Y-84940021D01*
X151290438Y-84960500D01*
X151290440Y-84960500D01*
X151369560Y-84960500D01*
X151369562Y-84960500D01*
X151445989Y-84940021D01*
X151514511Y-84900460D01*
X151570460Y-84844511D01*
X151610021Y-84775989D01*
X151630500Y-84699562D01*
X151630500Y-84620438D01*
X151610021Y-84544011D01*
X151593576Y-84515527D01*
X151570464Y-84475495D01*
X151570458Y-84475487D01*
X151570453Y-84475481D01*
X151514517Y-84419545D01*
X151514515Y-84419544D01*
X151514512Y-84419541D01*
X151514504Y-84419535D01*
X151498443Y-84410262D01*
X151455460Y-84385446D01*
X151455457Y-84385444D01*
X151445995Y-84379982D01*
X151445990Y-84379979D01*
X151435637Y-84377205D01*
X151429516Y-84375565D01*
X151429514Y-84375564D01*
X151417478Y-84372339D01*
X151417477Y-84372339D01*
X151369562Y-84359500D01*
X151369561Y-84359500D01*
X151290442Y-84359500D01*
X151290438Y-84359500D01*
X151252224Y-84369739D01*
X151252221Y-84369739D01*
X151214010Y-84379978D01*
X151213939Y-84380008D01*
X151213130Y-84380485D01*
X151145508Y-84419526D01*
X151145483Y-84419544D01*
X151145481Y-84419545D01*
X151089545Y-84475481D01*
X151089544Y-84475483D01*
X151089541Y-84475486D01*
X151089541Y-84475487D01*
X151089540Y-84475489D01*
X151089526Y-84475508D01*
X151058103Y-84529933D01*
X151058100Y-84529942D01*
X151049982Y-84544004D01*
X151049979Y-84544009D01*
X151042620Y-84571473D01*
X151029500Y-84620438D01*
X149891894Y-84620438D01*
X149926982Y-84611036D01*
X149995504Y-84571475D01*
X150051453Y-84515526D01*
X150091014Y-84447004D01*
X150111493Y-84370577D01*
X150111493Y-84291453D01*
X150103250Y-84260691D01*
X151909500Y-84260691D01*
X151909500Y-84379309D01*
X151940201Y-84493886D01*
X151999511Y-84596613D01*
X151999513Y-84596615D01*
X152010574Y-84607676D01*
X152031723Y-84635927D01*
X152044331Y-84659016D01*
X152059500Y-84718445D01*
X152059500Y-100988417D01*
X152073150Y-101039363D01*
X152073151Y-101039363D01*
X152073152Y-101039367D01*
X152079979Y-101064844D01*
X152079980Y-101064845D01*
X152079981Y-101064849D01*
X152080004Y-101064904D01*
X152080488Y-101065726D01*
X152119535Y-101133358D01*
X152119541Y-101133366D01*
X152119544Y-101133369D01*
X152119545Y-101133371D01*
X152720798Y-101734623D01*
X153140574Y-102154399D01*
X153161723Y-102182650D01*
X153174331Y-102205739D01*
X153189500Y-102265168D01*
X153189500Y-102288162D01*
X153216692Y-102389646D01*
X153217162Y-102395223D01*
X153218638Y-102398075D01*
X153220374Y-102433326D01*
X153220232Y-102434839D01*
X153194370Y-102499746D01*
X153137521Y-102540366D01*
X153067736Y-102543804D01*
X153064679Y-102543026D01*
X152990511Y-102523151D01*
X152990511Y-102523150D01*
X152939563Y-102509500D01*
X152939562Y-102509500D01*
X152860438Y-102509500D01*
X152822224Y-102519739D01*
X152822221Y-102519739D01*
X152784010Y-102529978D01*
X152783939Y-102530008D01*
X152783130Y-102530485D01*
X152715508Y-102569526D01*
X152715483Y-102569544D01*
X152715481Y-102569545D01*
X152659545Y-102625481D01*
X152659544Y-102625483D01*
X152659526Y-102625508D01*
X152620485Y-102693130D01*
X152620010Y-102693936D01*
X152619977Y-102694013D01*
X152606326Y-102744958D01*
X152606326Y-102744962D01*
X152599500Y-102770438D01*
X152599500Y-102770440D01*
X152599500Y-102849563D01*
X152613150Y-102900509D01*
X152613151Y-102900509D01*
X152613152Y-102900513D01*
X152619979Y-102925990D01*
X152619980Y-102925991D01*
X152619981Y-102925995D01*
X152620003Y-102926048D01*
X152620489Y-102926873D01*
X152657689Y-102991307D01*
X152659074Y-102993882D01*
X152659458Y-102994429D01*
X152715492Y-103050463D01*
X152716176Y-103050956D01*
X152718694Y-103052311D01*
X152752972Y-103072101D01*
X152784000Y-103090015D01*
X152784004Y-103090017D01*
X152784007Y-103090019D01*
X152784011Y-103090021D01*
X152860438Y-103110500D01*
X152860440Y-103110500D01*
X152939560Y-103110500D01*
X152939562Y-103110500D01*
X153015989Y-103090021D01*
X153015993Y-103090018D01*
X153022041Y-103088398D01*
X153030204Y-103085734D01*
X153046804Y-103081706D01*
X153116594Y-103085026D01*
X153173511Y-103125551D01*
X153199483Y-103190414D01*
X153199483Y-103190418D01*
X153200212Y-103198050D01*
X153196550Y-103241930D01*
X153189500Y-103268242D01*
X153189500Y-103268244D01*
X153189500Y-103386862D01*
X153220201Y-103501439D01*
X153279511Y-103604166D01*
X153279513Y-103604168D01*
X153284458Y-103610612D01*
X153284363Y-103610684D01*
X153289412Y-103617428D01*
X153300553Y-103632310D01*
X153307205Y-103644492D01*
X153322057Y-103712765D01*
X153297641Y-103778230D01*
X153297638Y-103778232D01*
X153292544Y-103785037D01*
X153255280Y-103818112D01*
X153235493Y-103829536D01*
X153235490Y-103829537D01*
X153235485Y-103829542D01*
X153235478Y-103829548D01*
X153179545Y-103885481D01*
X153179544Y-103885483D01*
X153179526Y-103885508D01*
X153140485Y-103953130D01*
X153140010Y-103953936D01*
X153139977Y-103954013D01*
X153126326Y-104004958D01*
X153126327Y-104004959D01*
X153119500Y-104030439D01*
X153119500Y-104109564D01*
X153124943Y-104129877D01*
X153124947Y-104129889D01*
X153125765Y-104132942D01*
X153139979Y-104185990D01*
X153139982Y-104185995D01*
X153147046Y-104198231D01*
X153147047Y-104198233D01*
X153177689Y-104251308D01*
X153179035Y-104253810D01*
X153179541Y-104254512D01*
X153235488Y-104310459D01*
X153236186Y-104310962D01*
X153238700Y-104312315D01*
X153247600Y-104317453D01*
X153247602Y-104317453D01*
X153304011Y-104350021D01*
X153380438Y-104370500D01*
X153380440Y-104370500D01*
X153459560Y-104370500D01*
X153459562Y-104370500D01*
X153535989Y-104350021D01*
X153565930Y-104332734D01*
X153604507Y-104310463D01*
X153604508Y-104310461D01*
X153604511Y-104310460D01*
X153660460Y-104254511D01*
X153700021Y-104185989D01*
X153720500Y-104109562D01*
X153720500Y-104030438D01*
X153700021Y-103954011D01*
X153700017Y-103954004D01*
X153696911Y-103946505D01*
X153697431Y-103946289D01*
X153688542Y-103924086D01*
X153685269Y-103910594D01*
X153688594Y-103840807D01*
X153729121Y-103783894D01*
X153735814Y-103778630D01*
X153780365Y-103756333D01*
X153813886Y-103747352D01*
X153916613Y-103688042D01*
X154000489Y-103604166D01*
X154059799Y-103501439D01*
X154090500Y-103386862D01*
X154090500Y-103371215D01*
X154095522Y-103336282D01*
X154102934Y-103311037D01*
X154134228Y-103258295D01*
X154622086Y-102770438D01*
X155140460Y-102252064D01*
X155176701Y-102189292D01*
X155180021Y-102183542D01*
X155200500Y-102107115D01*
X155200500Y-99053369D01*
X155200500Y-98990438D01*
X156779500Y-98990438D01*
X156779500Y-98999732D01*
X156779500Y-99069563D01*
X156793150Y-99120509D01*
X156793151Y-99120509D01*
X156793152Y-99120513D01*
X156799979Y-99145990D01*
X156799980Y-99145991D01*
X156799981Y-99145995D01*
X156800003Y-99146048D01*
X156800489Y-99146873D01*
X156837689Y-99211307D01*
X156839074Y-99213882D01*
X156839458Y-99214429D01*
X156895492Y-99270463D01*
X156896172Y-99270953D01*
X156898667Y-99272295D01*
X156964004Y-99310017D01*
X156964011Y-99310021D01*
X157040438Y-99330500D01*
X157040440Y-99330500D01*
X157119560Y-99330500D01*
X157119562Y-99330500D01*
X157195989Y-99310021D01*
X157264511Y-99270460D01*
X157320460Y-99214511D01*
X157360021Y-99145989D01*
X157380500Y-99069562D01*
X157380500Y-98990439D01*
X157699500Y-98990439D01*
X157699500Y-99069563D01*
X157713150Y-99120509D01*
X157713151Y-99120509D01*
X157713152Y-99120513D01*
X157719979Y-99145990D01*
X157719980Y-99145991D01*
X157719981Y-99145995D01*
X157720003Y-99146048D01*
X157720489Y-99146873D01*
X157757689Y-99211307D01*
X157759074Y-99213882D01*
X157759458Y-99214429D01*
X157815492Y-99270463D01*
X157816172Y-99270953D01*
X157818667Y-99272295D01*
X157884004Y-99310017D01*
X157884011Y-99310021D01*
X157960438Y-99330500D01*
X157960440Y-99330500D01*
X158039560Y-99330500D01*
X158039562Y-99330500D01*
X158115989Y-99310021D01*
X158184511Y-99270460D01*
X158240460Y-99214511D01*
X158280021Y-99145989D01*
X158300500Y-99069562D01*
X158300500Y-98990438D01*
X158280021Y-98914011D01*
X158280017Y-98914004D01*
X158240464Y-98845495D01*
X158240458Y-98845487D01*
X158240454Y-98845483D01*
X158240453Y-98845481D01*
X158184517Y-98789545D01*
X158184515Y-98789544D01*
X158184512Y-98789541D01*
X158184504Y-98789535D01*
X158159164Y-98774905D01*
X158116872Y-98750488D01*
X158116050Y-98750004D01*
X158115995Y-98749981D01*
X158115991Y-98749980D01*
X158115990Y-98749979D01*
X158090513Y-98743152D01*
X158090509Y-98743150D01*
X158039563Y-98729500D01*
X158039562Y-98729500D01*
X157960438Y-98729500D01*
X157922224Y-98739739D01*
X157922221Y-98739739D01*
X157884010Y-98749978D01*
X157883939Y-98750008D01*
X157883130Y-98750485D01*
X157815508Y-98789526D01*
X157815483Y-98789544D01*
X157815481Y-98789545D01*
X157759545Y-98845481D01*
X157759544Y-98845483D01*
X157759526Y-98845508D01*
X157720485Y-98913130D01*
X157720010Y-98913936D01*
X157719977Y-98914013D01*
X157706326Y-98964958D01*
X157706327Y-98964959D01*
X157699500Y-98990439D01*
X157380500Y-98990439D01*
X157380500Y-98990438D01*
X157360021Y-98914011D01*
X157360017Y-98914004D01*
X157320464Y-98845495D01*
X157320458Y-98845487D01*
X157320454Y-98845483D01*
X157320453Y-98845481D01*
X157264517Y-98789545D01*
X157264515Y-98789544D01*
X157264512Y-98789541D01*
X157264504Y-98789535D01*
X157239164Y-98774905D01*
X157196872Y-98750488D01*
X157196050Y-98750004D01*
X157195995Y-98749981D01*
X157195991Y-98749980D01*
X157195990Y-98749979D01*
X157170513Y-98743152D01*
X157170509Y-98743150D01*
X157119563Y-98729500D01*
X157119562Y-98729500D01*
X157040438Y-98729500D01*
X157002224Y-98739739D01*
X157002221Y-98739739D01*
X156964010Y-98749978D01*
X156963939Y-98750008D01*
X156963130Y-98750485D01*
X156895508Y-98789526D01*
X156895483Y-98789544D01*
X156895481Y-98789545D01*
X156839545Y-98845481D01*
X156839544Y-98845483D01*
X156839526Y-98845508D01*
X156808103Y-98899933D01*
X156808100Y-98899942D01*
X156799982Y-98914004D01*
X156799979Y-98914009D01*
X156786326Y-98964962D01*
X156779500Y-98990438D01*
X155200500Y-98990438D01*
X155200500Y-98230438D01*
X167159500Y-98230438D01*
X167159500Y-98239732D01*
X167159500Y-98309563D01*
X167173150Y-98360509D01*
X167173151Y-98360509D01*
X167173152Y-98360513D01*
X167179979Y-98385990D01*
X167179980Y-98385991D01*
X167179981Y-98385995D01*
X167180003Y-98386048D01*
X167180489Y-98386873D01*
X167217689Y-98451307D01*
X167219074Y-98453882D01*
X167219458Y-98454429D01*
X167275492Y-98510463D01*
X167276174Y-98510955D01*
X167278680Y-98512303D01*
X167326690Y-98540021D01*
X167326692Y-98540022D01*
X167326691Y-98540022D01*
X167340344Y-98547904D01*
X167344011Y-98550021D01*
X167420438Y-98570500D01*
X167420440Y-98570500D01*
X167499560Y-98570500D01*
X167499562Y-98570500D01*
X167575989Y-98550021D01*
X167644511Y-98510460D01*
X167700460Y-98454511D01*
X167740021Y-98385989D01*
X167760500Y-98309562D01*
X167760500Y-98230438D01*
X167740021Y-98154011D01*
X167740020Y-98154009D01*
X167740020Y-98154008D01*
X167734246Y-98144008D01*
X167734244Y-98144005D01*
X167714621Y-98110017D01*
X167700464Y-98085495D01*
X167700458Y-98085487D01*
X167700453Y-98085481D01*
X167644517Y-98029545D01*
X167644515Y-98029544D01*
X167644512Y-98029541D01*
X167644504Y-98029535D01*
X167612932Y-98011307D01*
X167576872Y-97990488D01*
X167576050Y-97990004D01*
X167575995Y-97989981D01*
X167575991Y-97989980D01*
X167575990Y-97989979D01*
X167550513Y-97983152D01*
X167550509Y-97983150D01*
X167499563Y-97969500D01*
X167499562Y-97969500D01*
X167420438Y-97969500D01*
X167382224Y-97979739D01*
X167382221Y-97979739D01*
X167344010Y-97989978D01*
X167343939Y-97990008D01*
X167343130Y-97990485D01*
X167275508Y-98029526D01*
X167275483Y-98029544D01*
X167275481Y-98029545D01*
X167219545Y-98085481D01*
X167219544Y-98085483D01*
X167219541Y-98085486D01*
X167219541Y-98085487D01*
X167219540Y-98085489D01*
X167219526Y-98085508D01*
X167188103Y-98139933D01*
X167188100Y-98139942D01*
X167179982Y-98154004D01*
X167179979Y-98154009D01*
X167166326Y-98204962D01*
X167159500Y-98230438D01*
X155200500Y-98230438D01*
X155200500Y-97509569D01*
X155200500Y-97159575D01*
X155200695Y-97152629D01*
X155201085Y-97145678D01*
X155201668Y-97138759D01*
X155210680Y-97058774D01*
X155213004Y-97045091D01*
X155216088Y-97031576D01*
X155219927Y-97018249D01*
X155243061Y-96952137D01*
X155248370Y-96939322D01*
X155254379Y-96926843D01*
X155261094Y-96914694D01*
X155298351Y-96855400D01*
X155306375Y-96844092D01*
X155315025Y-96833245D01*
X155324267Y-96822905D01*
X155373774Y-96773398D01*
X155384114Y-96764156D01*
X155394961Y-96755506D01*
X155406269Y-96747482D01*
X155465563Y-96710225D01*
X155477712Y-96703510D01*
X155490198Y-96697498D01*
X155503012Y-96692189D01*
X155569108Y-96669061D01*
X155582458Y-96665217D01*
X155595951Y-96662138D01*
X155609656Y-96659810D01*
X155665326Y-96653538D01*
X155689643Y-96650798D01*
X155696551Y-96650216D01*
X155703503Y-96649826D01*
X155710448Y-96649631D01*
X156862856Y-96649631D01*
X156862858Y-96649631D01*
X157052495Y-96616193D01*
X157233444Y-96550332D01*
X157400208Y-96454051D01*
X157547719Y-96330274D01*
X157671496Y-96182763D01*
X157767777Y-96015999D01*
X157833638Y-95835050D01*
X157867076Y-95645413D01*
X157867076Y-95549132D01*
X157867076Y-95501537D01*
X157867076Y-95501536D01*
X157867076Y-95109569D01*
X157867076Y-95052849D01*
X157833638Y-94863212D01*
X157767777Y-94682263D01*
X157671496Y-94515499D01*
X157547719Y-94367988D01*
X157456467Y-94291418D01*
X157400211Y-94244213D01*
X157400204Y-94244208D01*
X157293777Y-94182763D01*
X157235795Y-94149287D01*
X157233617Y-94147966D01*
X157231874Y-94147358D01*
X157060799Y-94085091D01*
X157055283Y-94082626D01*
X157052465Y-94082062D01*
X156862862Y-94048631D01*
X156862860Y-94048631D01*
X156862858Y-94048631D01*
X156806138Y-94048631D01*
X155710447Y-94048631D01*
X155703478Y-94048435D01*
X155696532Y-94048044D01*
X155689627Y-94047461D01*
X155681367Y-94046531D01*
X155681356Y-94046530D01*
X155609651Y-94038450D01*
X155595940Y-94036120D01*
X155582456Y-94033042D01*
X155569099Y-94029194D01*
X155503032Y-94006077D01*
X155490179Y-94000753D01*
X155477719Y-93994752D01*
X155465553Y-93988028D01*
X155406295Y-93950794D01*
X155394953Y-93942746D01*
X155384124Y-93934110D01*
X155373757Y-93924845D01*
X155324284Y-93875372D01*
X155315020Y-93865007D01*
X155306382Y-93854176D01*
X155298331Y-93842828D01*
X155293444Y-93835050D01*
X155261100Y-93783576D01*
X155254375Y-93771408D01*
X155248370Y-93758936D01*
X155243054Y-93746101D01*
X155232956Y-93717245D01*
X155219933Y-93680028D01*
X155216088Y-93666678D01*
X155213005Y-93653167D01*
X155210680Y-93639484D01*
X155201668Y-93559498D01*
X155201085Y-93552579D01*
X155200695Y-93545627D01*
X155200500Y-93538682D01*
X155200500Y-91660438D01*
X167189500Y-91660438D01*
X167189500Y-91669732D01*
X167189500Y-91739561D01*
X167203150Y-91790509D01*
X167203151Y-91790509D01*
X167203152Y-91790513D01*
X167209979Y-91815990D01*
X167209980Y-91815991D01*
X167209981Y-91815995D01*
X167210003Y-91816048D01*
X167210489Y-91816873D01*
X167247689Y-91881307D01*
X167249074Y-91883882D01*
X167249458Y-91884429D01*
X167305492Y-91940463D01*
X167306172Y-91940953D01*
X167308667Y-91942295D01*
X167374004Y-91980017D01*
X167374011Y-91980021D01*
X167450438Y-92000500D01*
X167450440Y-92000500D01*
X167529560Y-92000500D01*
X167529562Y-92000500D01*
X167605989Y-91980021D01*
X167674511Y-91940460D01*
X167730460Y-91884511D01*
X167770021Y-91815989D01*
X167790500Y-91739562D01*
X167790500Y-91660438D01*
X167770021Y-91584011D01*
X167758470Y-91564004D01*
X167758469Y-91564002D01*
X167730468Y-91515501D01*
X167730460Y-91515489D01*
X167730453Y-91515481D01*
X167674517Y-91459545D01*
X167674515Y-91459544D01*
X167674512Y-91459541D01*
X167674504Y-91459535D01*
X167639873Y-91439541D01*
X167606872Y-91420488D01*
X167606050Y-91420004D01*
X167605995Y-91419981D01*
X167605991Y-91419980D01*
X167605990Y-91419979D01*
X167580513Y-91413152D01*
X167580509Y-91413150D01*
X167529563Y-91399500D01*
X167529562Y-91399500D01*
X167450438Y-91399500D01*
X167412224Y-91409739D01*
X167412221Y-91409739D01*
X167374010Y-91419978D01*
X167373939Y-91420008D01*
X167373130Y-91420485D01*
X167305508Y-91459526D01*
X167305483Y-91459544D01*
X167305481Y-91459545D01*
X167249545Y-91515481D01*
X167249544Y-91515483D01*
X167249541Y-91515486D01*
X167249541Y-91515487D01*
X167249540Y-91515489D01*
X167249526Y-91515508D01*
X167218103Y-91569933D01*
X167218100Y-91569942D01*
X167209982Y-91584004D01*
X167209979Y-91584009D01*
X167196326Y-91634962D01*
X167189500Y-91660438D01*
X155200500Y-91660438D01*
X155200500Y-89930439D01*
X155599500Y-89930439D01*
X155599500Y-90009563D01*
X155613150Y-90060509D01*
X155613151Y-90060509D01*
X155613152Y-90060513D01*
X155619979Y-90085990D01*
X155619980Y-90085991D01*
X155619981Y-90085995D01*
X155620003Y-90086048D01*
X155620489Y-90086873D01*
X155657689Y-90151307D01*
X155659074Y-90153882D01*
X155659458Y-90154429D01*
X155715492Y-90210463D01*
X155716172Y-90210953D01*
X155718667Y-90212295D01*
X155784004Y-90250017D01*
X155784011Y-90250021D01*
X155860438Y-90270500D01*
X155860440Y-90270500D01*
X155939560Y-90270500D01*
X155939562Y-90270500D01*
X156015989Y-90250021D01*
X156084511Y-90210460D01*
X156140460Y-90154511D01*
X156180021Y-90085989D01*
X156200500Y-90009562D01*
X156200500Y-89930438D01*
X156180021Y-89854011D01*
X156180017Y-89854004D01*
X156140464Y-89785495D01*
X156140458Y-89785487D01*
X156140454Y-89785483D01*
X156140453Y-89785481D01*
X156084517Y-89729545D01*
X156084515Y-89729544D01*
X156084512Y-89729541D01*
X156084504Y-89729535D01*
X156059164Y-89714905D01*
X156016872Y-89690488D01*
X156016050Y-89690004D01*
X156015995Y-89689981D01*
X156015991Y-89689980D01*
X156015990Y-89689979D01*
X155990513Y-89683152D01*
X155990509Y-89683150D01*
X155939563Y-89669500D01*
X155939562Y-89669500D01*
X155860438Y-89669500D01*
X155822224Y-89679739D01*
X155822221Y-89679739D01*
X155784010Y-89689978D01*
X155783939Y-89690008D01*
X155783130Y-89690485D01*
X155715508Y-89729526D01*
X155715483Y-89729544D01*
X155715481Y-89729545D01*
X155659545Y-89785481D01*
X155659544Y-89785483D01*
X155659526Y-89785508D01*
X155620485Y-89853130D01*
X155620010Y-89853936D01*
X155619977Y-89854013D01*
X155606326Y-89904958D01*
X155606327Y-89904959D01*
X155599500Y-89930439D01*
X155200500Y-89930439D01*
X155200500Y-89775793D01*
X155205522Y-89740860D01*
X155212934Y-89715615D01*
X155244230Y-89662871D01*
X155260489Y-89646613D01*
X155319799Y-89543886D01*
X155350500Y-89429309D01*
X155350500Y-89310691D01*
X155319799Y-89196114D01*
X155260489Y-89093387D01*
X155176613Y-89009511D01*
X155073886Y-88950201D01*
X154959309Y-88919500D01*
X154959306Y-88919500D01*
X154840691Y-88919500D01*
X154749728Y-88943873D01*
X154749723Y-88943874D01*
X154726114Y-88950201D01*
X154726112Y-88950201D01*
X154726112Y-88950202D01*
X154704947Y-88962421D01*
X154704939Y-88962425D01*
X154623386Y-89009511D01*
X154623378Y-89009517D01*
X154539517Y-89093378D01*
X154539513Y-89093383D01*
X154539511Y-89093387D01*
X154480201Y-89196114D01*
X154449500Y-89310691D01*
X154449500Y-89429309D01*
X154480201Y-89543886D01*
X154539511Y-89646613D01*
X154539513Y-89646615D01*
X154550574Y-89657676D01*
X154571723Y-89685927D01*
X154584331Y-89709016D01*
X154599500Y-89768445D01*
X154599500Y-93645417D01*
X154632931Y-93835020D01*
X154633494Y-93837835D01*
X154635959Y-93843351D01*
X154645821Y-93870444D01*
X154698798Y-94015996D01*
X154698801Y-94016003D01*
X154698803Y-94016006D01*
X154698805Y-94016011D01*
X154774969Y-94147930D01*
X154795077Y-94182759D01*
X154795080Y-94182763D01*
X154918857Y-94330274D01*
X155066368Y-94454051D01*
X155233132Y-94550332D01*
X155414081Y-94616193D01*
X155414085Y-94616193D01*
X155414086Y-94616194D01*
X155452169Y-94622909D01*
X155603718Y-94649631D01*
X155660438Y-94649631D01*
X156718981Y-94649631D01*
X156756128Y-94649631D01*
X156763084Y-94649826D01*
X156770025Y-94650216D01*
X156776950Y-94650800D01*
X156808588Y-94654364D01*
X156856929Y-94659811D01*
X156870605Y-94662134D01*
X156884129Y-94665220D01*
X156897478Y-94669067D01*
X156963550Y-94692187D01*
X156976378Y-94697499D01*
X156988862Y-94703511D01*
X157001014Y-94710227D01*
X157039924Y-94734676D01*
X157060280Y-94747467D01*
X157071621Y-94755514D01*
X157082450Y-94764150D01*
X157092817Y-94773415D01*
X157142290Y-94822888D01*
X157151555Y-94833255D01*
X157160191Y-94844084D01*
X157168239Y-94855426D01*
X157205473Y-94914684D01*
X157212197Y-94926850D01*
X157218198Y-94939310D01*
X157223522Y-94952163D01*
X157246639Y-95018230D01*
X157250487Y-95031587D01*
X157253565Y-95045071D01*
X157255895Y-95058782D01*
X157264905Y-95138742D01*
X157265489Y-95145659D01*
X157265880Y-95152606D01*
X157266076Y-95159574D01*
X157266076Y-95538684D01*
X157265880Y-95545652D01*
X157265489Y-95552599D01*
X157264905Y-95559515D01*
X157255895Y-95639477D01*
X157253565Y-95653189D01*
X157250487Y-95666673D01*
X157246639Y-95680030D01*
X157223522Y-95746097D01*
X157218198Y-95758950D01*
X157212197Y-95771410D01*
X157205473Y-95783576D01*
X157168239Y-95842834D01*
X157160191Y-95854176D01*
X157151555Y-95865005D01*
X157142290Y-95875372D01*
X157092817Y-95924845D01*
X157082450Y-95934110D01*
X157071621Y-95942746D01*
X157060279Y-95950794D01*
X157001021Y-95988028D01*
X156988855Y-95994752D01*
X156976395Y-96000753D01*
X156963542Y-96006077D01*
X156897475Y-96029194D01*
X156884118Y-96033042D01*
X156870634Y-96036120D01*
X156856922Y-96038450D01*
X156782919Y-96046788D01*
X156782915Y-96046789D01*
X156776941Y-96047462D01*
X156770024Y-96048046D01*
X156763081Y-96048436D01*
X156756128Y-96048631D01*
X155603712Y-96048631D01*
X155414091Y-96082065D01*
X155414086Y-96082067D01*
X155233134Y-96147929D01*
X155233127Y-96147932D01*
X155233125Y-96147933D01*
X155233123Y-96147934D01*
X155233118Y-96147936D01*
X155066373Y-96244206D01*
X155066366Y-96244211D01*
X154918857Y-96367988D01*
X154795080Y-96515497D01*
X154795075Y-96515504D01*
X154698805Y-96682249D01*
X154698803Y-96682254D01*
X154698796Y-96682270D01*
X154632934Y-96863222D01*
X154599500Y-97052843D01*
X154599500Y-101873890D01*
X154599499Y-101873892D01*
X154599500Y-101873893D01*
X154594476Y-101908827D01*
X154587064Y-101934068D01*
X154555769Y-101986812D01*
X154313775Y-102228805D01*
X154285520Y-102249956D01*
X154274572Y-102255934D01*
X154206299Y-102270786D01*
X154140835Y-102246369D01*
X154100302Y-102193863D01*
X154093615Y-102177442D01*
X154088688Y-102162784D01*
X154059799Y-102054968D01*
X154000489Y-101952241D01*
X153916613Y-101868365D01*
X153813886Y-101809055D01*
X153699309Y-101778354D01*
X153699306Y-101778354D01*
X153683663Y-101778354D01*
X153683662Y-101778353D01*
X153683662Y-101778354D01*
X153648727Y-101773331D01*
X153623485Y-101765919D01*
X153570740Y-101734623D01*
X152709426Y-100873309D01*
X152688274Y-100845053D01*
X152675667Y-100821964D01*
X152660500Y-100762539D01*
X152660500Y-84725793D01*
X152665522Y-84690860D01*
X152672934Y-84665615D01*
X152704245Y-84612856D01*
X152706602Y-84610500D01*
X152720489Y-84596613D01*
X152779799Y-84493886D01*
X152810500Y-84379309D01*
X152810500Y-84260691D01*
X152779799Y-84146114D01*
X152720489Y-84043387D01*
X152636613Y-83959511D01*
X152628167Y-83954635D01*
X152618571Y-83949094D01*
X152618570Y-83949094D01*
X152533886Y-83900201D01*
X152419309Y-83869500D01*
X152419306Y-83869500D01*
X152300691Y-83869500D01*
X152209728Y-83893873D01*
X152209723Y-83893874D01*
X152186114Y-83900201D01*
X152186112Y-83900201D01*
X152186112Y-83900202D01*
X152164947Y-83912421D01*
X152164939Y-83912425D01*
X152083386Y-83959511D01*
X152083378Y-83959517D01*
X151999517Y-84043378D01*
X151999513Y-84043383D01*
X151958274Y-84114811D01*
X151940201Y-84146114D01*
X151909500Y-84260691D01*
X150103250Y-84260691D01*
X150091014Y-84215026D01*
X150078877Y-84194004D01*
X150051465Y-84146523D01*
X150051461Y-84146516D01*
X150051453Y-84146504D01*
X150051446Y-84146496D01*
X149995510Y-84090560D01*
X149995508Y-84090559D01*
X149995505Y-84090556D01*
X149995497Y-84090550D01*
X149985934Y-84085029D01*
X149938101Y-84057412D01*
X149938096Y-84057410D01*
X149926988Y-84050997D01*
X149926983Y-84050994D01*
X149898582Y-84043384D01*
X149894283Y-84042232D01*
X149894280Y-84042231D01*
X149872567Y-84036413D01*
X149850555Y-84030515D01*
X149850554Y-84030515D01*
X149771435Y-84030515D01*
X149771431Y-84030515D01*
X149733217Y-84040754D01*
X149733214Y-84040754D01*
X149695003Y-84050993D01*
X149694932Y-84051023D01*
X149694123Y-84051500D01*
X149626501Y-84090541D01*
X149626476Y-84090559D01*
X149626474Y-84090560D01*
X149570538Y-84146496D01*
X149570537Y-84146498D01*
X149570534Y-84146501D01*
X149570534Y-84146502D01*
X149570533Y-84146504D01*
X149570519Y-84146523D01*
X149539096Y-84200948D01*
X149539093Y-84200957D01*
X149530975Y-84215019D01*
X149530972Y-84215024D01*
X149522022Y-84248426D01*
X149510493Y-84291453D01*
X144480984Y-84291453D01*
X144221573Y-84051023D01*
X143999480Y-83845181D01*
X163579500Y-83845181D01*
X163579500Y-84114817D01*
X163609064Y-84377205D01*
X163609686Y-84382719D01*
X163609687Y-84382728D01*
X163609688Y-84382732D01*
X163610689Y-84387118D01*
X163610691Y-84387129D01*
X163615630Y-84408766D01*
X163618090Y-84419545D01*
X163619561Y-84425987D01*
X163619561Y-84425989D01*
X163669683Y-84645591D01*
X163669764Y-84645861D01*
X163670147Y-84646919D01*
X163758731Y-84900075D01*
X163758737Y-84900089D01*
X163875713Y-85142992D01*
X163875917Y-85143350D01*
X163876603Y-85144409D01*
X164019162Y-85371289D01*
X164187266Y-85582085D01*
X164377915Y-85772734D01*
X164588711Y-85940838D01*
X164817003Y-86084284D01*
X165059921Y-86201267D01*
X165251049Y-86268145D01*
X165304540Y-86286862D01*
X165310787Y-86289658D01*
X165311645Y-86289814D01*
X165317109Y-86290933D01*
X165549925Y-86344071D01*
X165577268Y-86350312D01*
X165577272Y-86350312D01*
X165577281Y-86350314D01*
X165706150Y-86364833D01*
X165827790Y-86378538D01*
X165835393Y-86380500D01*
X166114812Y-86380500D01*
X166140310Y-86380500D01*
X166145444Y-86377696D01*
X166157914Y-86375642D01*
X166306388Y-86358913D01*
X166382718Y-86350314D01*
X166382721Y-86350313D01*
X166382732Y-86350312D01*
X166645591Y-86290316D01*
X166900079Y-86201267D01*
X167142997Y-86084284D01*
X167371289Y-85940838D01*
X167582085Y-85772734D01*
X167772734Y-85582085D01*
X167940838Y-85371289D01*
X168084284Y-85142997D01*
X168201267Y-84900079D01*
X168290316Y-84645591D01*
X168350312Y-84382732D01*
X168350313Y-84382720D01*
X168350314Y-84382717D01*
X168365833Y-84244977D01*
X168380500Y-84114809D01*
X168380500Y-83845191D01*
X168350312Y-83577268D01*
X168290316Y-83314409D01*
X168289852Y-83313084D01*
X168251010Y-83202079D01*
X168201267Y-83059921D01*
X168084284Y-82817003D01*
X167940838Y-82588711D01*
X167772734Y-82377915D01*
X167582085Y-82187266D01*
X167582084Y-82187265D01*
X167582082Y-82187263D01*
X167578244Y-82184203D01*
X167578235Y-82184196D01*
X167386459Y-82031260D01*
X167386456Y-82031257D01*
X167371301Y-82019170D01*
X167371296Y-82019166D01*
X167144408Y-81876602D01*
X167143352Y-81875919D01*
X167142992Y-81875713D01*
X166900089Y-81758737D01*
X166900075Y-81758731D01*
X166653237Y-81672358D01*
X166653231Y-81672356D01*
X166645602Y-81669687D01*
X166645594Y-81669684D01*
X166448446Y-81624687D01*
X166448304Y-81624654D01*
X166448164Y-81624622D01*
X166383981Y-81609973D01*
X166382947Y-81609725D01*
X166382737Y-81609688D01*
X166382719Y-81609686D01*
X166382719Y-81609684D01*
X166382638Y-81609670D01*
X166382528Y-81609664D01*
X166114817Y-81579500D01*
X166114813Y-81579500D01*
X166114809Y-81579500D01*
X165845191Y-81579500D01*
X165845186Y-81579500D01*
X165845181Y-81579500D01*
X165577292Y-81609683D01*
X165577265Y-81609688D01*
X165314412Y-81669681D01*
X165314137Y-81669764D01*
X165313084Y-81670146D01*
X165059923Y-81758731D01*
X165059901Y-81758740D01*
X164817010Y-81875710D01*
X164588709Y-82019162D01*
X164588707Y-82019163D01*
X164377921Y-82187258D01*
X164187258Y-82377921D01*
X164019163Y-82588707D01*
X164019162Y-82588709D01*
X163875710Y-82817010D01*
X163758740Y-83059901D01*
X163758731Y-83059923D01*
X163670146Y-83313084D01*
X163669764Y-83314137D01*
X163669681Y-83314412D01*
X163609688Y-83577265D01*
X163609683Y-83577292D01*
X163579500Y-83845181D01*
X143999480Y-83845181D01*
X142583561Y-82532865D01*
X142578049Y-82527938D01*
X142577395Y-82527375D01*
X142577392Y-82527373D01*
X142500140Y-82485567D01*
X142500133Y-82485564D01*
X142491686Y-82483130D01*
X142491681Y-82483129D01*
X142411789Y-82476377D01*
X137623275Y-83015084D01*
X137601069Y-83018823D01*
X137601068Y-83018824D01*
X137598646Y-83019369D01*
X137588248Y-83022000D01*
X137588245Y-83022001D01*
X137507909Y-83065709D01*
X137507907Y-83065710D01*
X137501310Y-83071528D01*
X137452664Y-83135289D01*
X137452663Y-83135291D01*
X136941084Y-84180066D01*
X136883586Y-84297492D01*
X136289843Y-85510066D01*
X136232345Y-85627492D01*
X136035972Y-86028534D01*
X136027489Y-86048452D01*
X136027487Y-86048458D01*
X136026652Y-86050746D01*
X136020288Y-86071552D01*
X136020286Y-86071559D01*
X136020286Y-86071561D01*
X135622492Y-87670438D01*
X135582589Y-87830823D01*
X135563514Y-87907492D01*
X135453215Y-88350823D01*
X135434140Y-88427492D01*
X132920599Y-98530299D01*
X132920110Y-98532313D01*
X132920020Y-98532693D01*
X132919227Y-98536171D01*
X130819983Y-108122724D01*
X130819982Y-108122730D01*
X130815755Y-108181406D01*
X129980500Y-108181406D01*
X129980500Y-98220438D01*
X132019500Y-98220438D01*
X132019500Y-98299562D01*
X132022179Y-98309560D01*
X132039979Y-98375990D01*
X132039981Y-98375993D01*
X132040005Y-98376051D01*
X132040487Y-98376870D01*
X132077689Y-98441308D01*
X132079072Y-98443880D01*
X132079458Y-98444429D01*
X132135492Y-98500463D01*
X132136172Y-98500953D01*
X132138667Y-98502295D01*
X132204004Y-98540017D01*
X132204011Y-98540021D01*
X132280438Y-98560500D01*
X132280440Y-98560500D01*
X132359560Y-98560500D01*
X132359562Y-98560500D01*
X132435989Y-98540021D01*
X132504511Y-98500460D01*
X132560460Y-98444511D01*
X132600021Y-98375989D01*
X132620500Y-98299562D01*
X132620500Y-98220438D01*
X132600021Y-98144011D01*
X132600017Y-98144004D01*
X132560464Y-98075495D01*
X132560458Y-98075487D01*
X132560454Y-98075483D01*
X132560453Y-98075481D01*
X132504517Y-98019545D01*
X132504515Y-98019544D01*
X132504512Y-98019541D01*
X132504504Y-98019535D01*
X132479164Y-98004905D01*
X132436872Y-97980488D01*
X132436050Y-97980004D01*
X132435995Y-97979981D01*
X132435991Y-97979980D01*
X132435990Y-97979979D01*
X132410513Y-97973152D01*
X132410509Y-97973150D01*
X132359563Y-97959500D01*
X132359562Y-97959500D01*
X132280438Y-97959500D01*
X132280436Y-97959500D01*
X132243116Y-97969499D01*
X132243117Y-97969500D01*
X132204013Y-97979977D01*
X132203936Y-97980010D01*
X132203130Y-97980485D01*
X132135508Y-98019526D01*
X132135483Y-98019544D01*
X132135481Y-98019545D01*
X132079545Y-98075481D01*
X132079544Y-98075483D01*
X132079526Y-98075508D01*
X132048103Y-98129933D01*
X132048100Y-98129942D01*
X132039982Y-98144004D01*
X132039979Y-98144009D01*
X132037301Y-98154004D01*
X132019500Y-98220438D01*
X129980500Y-98220438D01*
X129980500Y-91640438D01*
X132209500Y-91640438D01*
X132209500Y-91719562D01*
X132214859Y-91739560D01*
X132229979Y-91795990D01*
X132229982Y-91795995D01*
X132237108Y-91808338D01*
X132237109Y-91808340D01*
X132267689Y-91861308D01*
X132269035Y-91863810D01*
X132269541Y-91864512D01*
X132325488Y-91920459D01*
X132326181Y-91920959D01*
X132328692Y-91922310D01*
X132360130Y-91940460D01*
X132394011Y-91960021D01*
X132470438Y-91980500D01*
X132470440Y-91980500D01*
X132549560Y-91980500D01*
X132549562Y-91980500D01*
X132625989Y-91960021D01*
X132694511Y-91920460D01*
X132750460Y-91864511D01*
X132790021Y-91795989D01*
X132810500Y-91719562D01*
X132810500Y-91640438D01*
X132790021Y-91564011D01*
X132790017Y-91564004D01*
X132750464Y-91495495D01*
X132750458Y-91495487D01*
X132750454Y-91495483D01*
X132750453Y-91495481D01*
X132694517Y-91439545D01*
X132694515Y-91439544D01*
X132694512Y-91439541D01*
X132694504Y-91439535D01*
X132660635Y-91419981D01*
X132626872Y-91400488D01*
X132626050Y-91400004D01*
X132625995Y-91399981D01*
X132625991Y-91399980D01*
X132625990Y-91399979D01*
X132600513Y-91393152D01*
X132600509Y-91393150D01*
X132549563Y-91379500D01*
X132549562Y-91379500D01*
X132470438Y-91379500D01*
X132432224Y-91389739D01*
X132432221Y-91389739D01*
X132394010Y-91399978D01*
X132393939Y-91400008D01*
X132393130Y-91400485D01*
X132325508Y-91439526D01*
X132325483Y-91439544D01*
X132325481Y-91439545D01*
X132269545Y-91495481D01*
X132269544Y-91495483D01*
X132269526Y-91495508D01*
X132238103Y-91549933D01*
X132238100Y-91549942D01*
X132229982Y-91564004D01*
X132229979Y-91564009D01*
X132224620Y-91584009D01*
X132209500Y-91640438D01*
X129980500Y-91640438D01*
X129980500Y-83984296D01*
X129980532Y-83981461D01*
X129980533Y-83981418D01*
X129980600Y-83978531D01*
X129980697Y-83975728D01*
X129985609Y-83869500D01*
X129986733Y-83845181D01*
X131579500Y-83845181D01*
X131579500Y-84114817D01*
X131609064Y-84377205D01*
X131609686Y-84382719D01*
X131609687Y-84382728D01*
X131609688Y-84382732D01*
X131610689Y-84387118D01*
X131610691Y-84387129D01*
X131615630Y-84408766D01*
X131618090Y-84419545D01*
X131619561Y-84425987D01*
X131619561Y-84425989D01*
X131669683Y-84645591D01*
X131669764Y-84645861D01*
X131670147Y-84646919D01*
X131758731Y-84900075D01*
X131758737Y-84900089D01*
X131875713Y-85142992D01*
X131875917Y-85143350D01*
X131876603Y-85144409D01*
X132019162Y-85371289D01*
X132187266Y-85582085D01*
X132377915Y-85772734D01*
X132588711Y-85940838D01*
X132817003Y-86084284D01*
X133059921Y-86201267D01*
X133251049Y-86268145D01*
X133304540Y-86286862D01*
X133310787Y-86289658D01*
X133311645Y-86289814D01*
X133317109Y-86290933D01*
X133549925Y-86344071D01*
X133577268Y-86350312D01*
X133577272Y-86350312D01*
X133577281Y-86350314D01*
X133706150Y-86364833D01*
X133827790Y-86378538D01*
X133835393Y-86380500D01*
X134114812Y-86380500D01*
X134140310Y-86380500D01*
X134145444Y-86377696D01*
X134157914Y-86375642D01*
X134306388Y-86358913D01*
X134382718Y-86350314D01*
X134382721Y-86350313D01*
X134382732Y-86350312D01*
X134645591Y-86290316D01*
X134900079Y-86201267D01*
X135142997Y-86084284D01*
X135371289Y-85940838D01*
X135582085Y-85772734D01*
X135772734Y-85582085D01*
X135940838Y-85371289D01*
X136084284Y-85142997D01*
X136201267Y-84900079D01*
X136290316Y-84645591D01*
X136350312Y-84382732D01*
X136350313Y-84382720D01*
X136350314Y-84382717D01*
X136365445Y-84248427D01*
X136365445Y-84248426D01*
X136376928Y-84146510D01*
X136380500Y-84114809D01*
X136380500Y-83845191D01*
X136350312Y-83577268D01*
X136290316Y-83314409D01*
X136289852Y-83313084D01*
X136251010Y-83202079D01*
X136201267Y-83059921D01*
X136084284Y-82817003D01*
X135940838Y-82588711D01*
X135772734Y-82377915D01*
X135582085Y-82187266D01*
X135582084Y-82187265D01*
X135582082Y-82187263D01*
X135578244Y-82184203D01*
X135578235Y-82184196D01*
X135386459Y-82031260D01*
X135386456Y-82031257D01*
X135371301Y-82019170D01*
X135371296Y-82019166D01*
X135144408Y-81876602D01*
X135143352Y-81875919D01*
X135142992Y-81875713D01*
X134900089Y-81758737D01*
X134900075Y-81758731D01*
X134653237Y-81672358D01*
X134653231Y-81672356D01*
X134645602Y-81669687D01*
X134645594Y-81669684D01*
X134448446Y-81624687D01*
X134448304Y-81624654D01*
X134448164Y-81624622D01*
X134383981Y-81609973D01*
X134382947Y-81609725D01*
X134382737Y-81609688D01*
X134382719Y-81609686D01*
X134382719Y-81609684D01*
X134382638Y-81609670D01*
X134382528Y-81609664D01*
X134114817Y-81579500D01*
X134114813Y-81579500D01*
X134114809Y-81579500D01*
X133845191Y-81579500D01*
X133845186Y-81579500D01*
X133845181Y-81579500D01*
X133577292Y-81609683D01*
X133577265Y-81609688D01*
X133314412Y-81669681D01*
X133314137Y-81669764D01*
X133313084Y-81670146D01*
X133059923Y-81758731D01*
X133059901Y-81758740D01*
X132817010Y-81875710D01*
X132588709Y-82019162D01*
X132588707Y-82019163D01*
X132377921Y-82187258D01*
X132187258Y-82377921D01*
X132019163Y-82588707D01*
X132019162Y-82588709D01*
X131875710Y-82817010D01*
X131758740Y-83059901D01*
X131758731Y-83059923D01*
X131670146Y-83313084D01*
X131669764Y-83314137D01*
X131669681Y-83314412D01*
X131609688Y-83577265D01*
X131609683Y-83577292D01*
X131579500Y-83845181D01*
X129986733Y-83845181D01*
X129995704Y-83651127D01*
X129995886Y-83648047D01*
X129996126Y-83644735D01*
X129996386Y-83641695D01*
X130003498Y-83569476D01*
X130003753Y-83567132D01*
X130004069Y-83564475D01*
X130004360Y-83562223D01*
X130043933Y-83278531D01*
X130044474Y-83275031D01*
X130045063Y-83271547D01*
X130045711Y-83268027D01*
X130058848Y-83201982D01*
X130059273Y-83199941D01*
X130059696Y-83197990D01*
X130060159Y-83195938D01*
X130127124Y-82911218D01*
X130128064Y-82907491D01*
X130129083Y-82903703D01*
X130130150Y-82899974D01*
X130130166Y-82899921D01*
X130146877Y-82844830D01*
X130147335Y-82843360D01*
X130147895Y-82841604D01*
X130148377Y-82840133D01*
X130244699Y-82552748D01*
X130246113Y-82548762D01*
X130247587Y-82544821D01*
X130249130Y-82540906D01*
X130264635Y-82503472D01*
X130265041Y-82502510D01*
X130265615Y-82501167D01*
X130266008Y-82500264D01*
X130395700Y-82206539D01*
X130397644Y-82202354D01*
X130399656Y-82198224D01*
X130401747Y-82194126D01*
X130406042Y-82186093D01*
X130406345Y-82185532D01*
X130406803Y-82184694D01*
X130407141Y-82184079D01*
X130575385Y-81882022D01*
X130578265Y-81877121D01*
X130581292Y-81872234D01*
X130584409Y-81867452D01*
X130658881Y-81758735D01*
X130658884Y-81758731D01*
X130783526Y-81576772D01*
X130786818Y-81572201D01*
X130790281Y-81567615D01*
X130793802Y-81563171D01*
X131018862Y-81292142D01*
X131022589Y-81287859D01*
X131026477Y-81283593D01*
X131030392Y-81279494D01*
X131279494Y-81030392D01*
X131283604Y-81026468D01*
X131287868Y-81022580D01*
X131292142Y-81018862D01*
X131563171Y-80793802D01*
X131567636Y-80790266D01*
X131572186Y-80786829D01*
X131576828Y-80783489D01*
X131576846Y-80783477D01*
X131867465Y-80584399D01*
X131872231Y-80581293D01*
X131877136Y-80578256D01*
X131882012Y-80575391D01*
X132184079Y-80407141D01*
X132184714Y-80406791D01*
X132185596Y-80406310D01*
X132186130Y-80406021D01*
X132194126Y-80401747D01*
X132198224Y-80399656D01*
X132202354Y-80397644D01*
X132206539Y-80395700D01*
X132500264Y-80266008D01*
X132501167Y-80265615D01*
X132502510Y-80265041D01*
X132503472Y-80264635D01*
X132540906Y-80249130D01*
X132544821Y-80247587D01*
X132548772Y-80246109D01*
X132552748Y-80244699D01*
X132840133Y-80148377D01*
X132841604Y-80147895D01*
X132843360Y-80147335D01*
X132844830Y-80146877D01*
X132899976Y-80130149D01*
X132903708Y-80129081D01*
X132907502Y-80128060D01*
X132911218Y-80127124D01*
X133195938Y-80060159D01*
X133197970Y-80059700D01*
X133198804Y-80059519D01*
X133199941Y-80059273D01*
X133201982Y-80058848D01*
X133268082Y-80045700D01*
X133271526Y-80045066D01*
X133275046Y-80044471D01*
X133278532Y-80043933D01*
X133562169Y-80004368D01*
X133564600Y-80004054D01*
X133567048Y-80003763D01*
X133569492Y-80003496D01*
X133641702Y-79996385D01*
X133644716Y-79996127D01*
X133648065Y-79995885D01*
X133651118Y-79995704D01*
X133947706Y-79981992D01*
X133975791Y-79980694D01*
X133978533Y-79980600D01*
X133981491Y-79980531D01*
X133984298Y-79980500D01*
X165975703Y-79980500D01*
X165978495Y-79980531D01*
G37*
%TD.AperFunction*%
%TD*%
%TA.AperFunction,Conductor*%
%TO.N,+5V*%
G36*
X142443221Y-82683027D02*
G01*
X142443866Y-82683583D01*
X145709015Y-85709819D01*
X145712690Y-85717817D01*
X145709632Y-85726070D01*
X145707328Y-85727983D01*
X144724478Y-86347178D01*
X144715802Y-86348663D01*
X144714943Y-86348432D01*
X143720022Y-86040006D01*
X143720000Y-86040000D01*
X142790503Y-85755987D01*
X142280001Y-85600000D01*
X142279999Y-85600000D01*
X140470002Y-86499998D01*
X140469998Y-86500002D01*
X139810003Y-87549993D01*
X139809999Y-87550002D01*
X133069999Y-106919998D01*
X133119999Y-109279997D01*
X133119999Y-109279998D01*
X133119999Y-109279999D01*
X133120000Y-109280000D01*
X134100000Y-110440000D01*
X135820000Y-112200000D01*
X135820001Y-112200000D01*
X135820002Y-112200001D01*
X138134409Y-112867764D01*
X138870000Y-113080000D01*
X144877920Y-113309920D01*
X144881921Y-113310804D01*
X145614286Y-113617606D01*
X145620484Y-113623854D01*
X145621144Y-113626089D01*
X145929634Y-115268052D01*
X145929694Y-115271953D01*
X145750884Y-116414352D01*
X145746298Y-116421865D01*
X145744963Y-116422705D01*
X145211831Y-116709016D01*
X145207944Y-116710280D01*
X144774076Y-116769444D01*
X144766495Y-116767843D01*
X144252247Y-116451383D01*
X144248580Y-116447776D01*
X144232577Y-116422705D01*
X143950000Y-115980000D01*
X143730000Y-115770000D01*
X143729997Y-115769999D01*
X143350314Y-115670082D01*
X143349685Y-115669897D01*
X141720007Y-115140002D01*
X141720002Y-115140000D01*
X141720000Y-115140000D01*
X135980517Y-113630136D01*
X135979482Y-113629810D01*
X132609744Y-112393572D01*
X132603270Y-112387609D01*
X132602939Y-112386818D01*
X131021193Y-108173180D01*
X131020726Y-108166683D01*
X133119968Y-98580141D01*
X133120038Y-98579846D01*
X135568030Y-88740500D01*
X135652636Y-88400438D01*
X137389500Y-88400438D01*
X137389500Y-88479562D01*
X137409979Y-88555989D01*
X137449540Y-88624511D01*
X137505489Y-88680460D01*
X137574011Y-88720021D01*
X137650438Y-88740500D01*
X137729562Y-88740500D01*
X137805989Y-88720021D01*
X137874511Y-88680460D01*
X137930460Y-88624511D01*
X137970021Y-88555989D01*
X137990500Y-88479562D01*
X137990500Y-88400438D01*
X137970021Y-88324011D01*
X137930460Y-88255489D01*
X137874511Y-88199540D01*
X137874510Y-88199539D01*
X137805987Y-88159978D01*
X137805988Y-88159978D01*
X137729562Y-88139500D01*
X137650438Y-88139500D01*
X137574012Y-88159978D01*
X137505489Y-88199539D01*
X137449539Y-88255489D01*
X137409978Y-88324012D01*
X137389500Y-88400438D01*
X135652636Y-88400438D01*
X135782010Y-87880438D01*
X138719500Y-87880438D01*
X138719500Y-87959562D01*
X138739979Y-88035989D01*
X138779540Y-88104511D01*
X138835489Y-88160460D01*
X138904011Y-88200021D01*
X138980438Y-88220500D01*
X139059562Y-88220500D01*
X139135989Y-88200021D01*
X139204511Y-88160460D01*
X139260460Y-88104511D01*
X139300021Y-88035989D01*
X139320500Y-87959562D01*
X139320500Y-87880438D01*
X139300021Y-87804011D01*
X139260460Y-87735489D01*
X139204511Y-87679540D01*
X139204510Y-87679539D01*
X139135987Y-87639978D01*
X139135988Y-87639978D01*
X139059562Y-87619500D01*
X138980438Y-87619500D01*
X138904012Y-87639978D01*
X138835489Y-87679539D01*
X138779539Y-87735489D01*
X138739978Y-87804012D01*
X138719500Y-87880438D01*
X135782010Y-87880438D01*
X136219707Y-86121176D01*
X136220536Y-86118904D01*
X136474405Y-85600438D01*
X137159500Y-85600438D01*
X137159500Y-85679561D01*
X137172474Y-85727983D01*
X137179979Y-85755989D01*
X137219540Y-85824511D01*
X137275489Y-85880460D01*
X137344011Y-85920021D01*
X137420438Y-85940500D01*
X137499562Y-85940500D01*
X137575989Y-85920021D01*
X137644511Y-85880460D01*
X137700460Y-85824511D01*
X137740021Y-85755989D01*
X137760500Y-85679562D01*
X137760500Y-85600438D01*
X137740021Y-85524011D01*
X137700460Y-85455489D01*
X137644511Y-85399540D01*
X137644510Y-85399539D01*
X137575987Y-85359978D01*
X137575988Y-85359978D01*
X137499562Y-85339500D01*
X137420438Y-85339500D01*
X137344012Y-85359978D01*
X137275489Y-85399539D01*
X137219539Y-85455489D01*
X137179978Y-85524012D01*
X137159500Y-85600438D01*
X136474405Y-85600438D01*
X137125646Y-84270438D01*
X139129500Y-84270438D01*
X139129500Y-84349562D01*
X139149979Y-84425989D01*
X139189540Y-84494511D01*
X139245489Y-84550460D01*
X139314011Y-84590021D01*
X139390438Y-84610500D01*
X139469562Y-84610500D01*
X139545989Y-84590021D01*
X139614511Y-84550460D01*
X139670460Y-84494511D01*
X139710021Y-84425989D01*
X139730500Y-84349562D01*
X139730500Y-84270438D01*
X139710021Y-84194011D01*
X139670460Y-84125489D01*
X139614511Y-84069540D01*
X139614510Y-84069539D01*
X139545987Y-84029978D01*
X139545988Y-84029978D01*
X139469562Y-84009500D01*
X139390438Y-84009500D01*
X139314012Y-84029978D01*
X139245489Y-84069539D01*
X139189539Y-84125489D01*
X139149978Y-84194012D01*
X139129500Y-84270438D01*
X137125646Y-84270438D01*
X137637226Y-83225663D01*
X137643826Y-83219843D01*
X137646258Y-83219295D01*
X142434763Y-82680589D01*
X142443221Y-82683027D01*
G37*
%TD.AperFunction*%
%TD*%
M02*
