%TF.GenerationSoftware,KiCad,Pcbnew,10.0.2*%
%TF.CreationDate,2026-05-16T13:24:58-03:00*%
%TF.ProjectId,u-blox-MAX-F10S-00B,752d626c-6f78-42d4-9d41-582d46313053,rev?*%
%TF.SameCoordinates,Original*%
%TF.FileFunction,Copper,L1,Top*%
%TF.FilePolarity,Positive*%
%FSLAX46Y46*%
G04 Gerber Fmt 4.6, Leading zero omitted, Abs format (unit mm)*
G04 Created by KiCad (PCBNEW 10.0.2) date 2026-05-16 13:24:58*
%MOMM*%
%LPD*%
G01*
G04 APERTURE LIST*
G04 Aperture macros list*
%AMRoundRect*
0 Rectangle with rounded corners*
0 $1 Rounding radius*
0 $2 $3 $4 $5 $6 $7 $8 $9 X,Y pos of 4 corners*
0 Add a 4 corners polygon primitive as box body*
4,1,4,$2,$3,$4,$5,$6,$7,$8,$9,$2,$3,0*
0 Add four circle primitives for the rounded corners*
1,1,$1+$1,$2,$3*
1,1,$1+$1,$4,$5*
1,1,$1+$1,$6,$7*
1,1,$1+$1,$8,$9*
0 Add four rect primitives between the rounded corners*
20,1,$1+$1,$2,$3,$4,$5,0*
20,1,$1+$1,$4,$5,$6,$7,0*
20,1,$1+$1,$6,$7,$8,$9,0*
20,1,$1+$1,$8,$9,$2,$3,0*%
G04 Aperture macros list end*
%TA.AperFunction,SMDPad,CuDef*%
%ADD10R,1.000000X2.510000*%
%TD*%
%TA.AperFunction,SMDPad,CuDef*%
%ADD11R,0.550000X1.310000*%
%TD*%
%TA.AperFunction,SMDPad,CuDef*%
%ADD12R,0.400000X0.300000*%
%TD*%
%TA.AperFunction,SMDPad,CuDef*%
%ADD13R,1.550000X0.600000*%
%TD*%
%TA.AperFunction,SMDPad,CuDef*%
%ADD14R,1.800000X1.200000*%
%TD*%
%TA.AperFunction,SMDPad,CuDef*%
%ADD15RoundRect,0.140000X0.140000X0.170000X-0.140000X0.170000X-0.140000X-0.170000X0.140000X-0.170000X0*%
%TD*%
%TA.AperFunction,SMDPad,CuDef*%
%ADD16RoundRect,0.140000X-0.170000X0.140000X-0.170000X-0.140000X0.170000X-0.140000X0.170000X0.140000X0*%
%TD*%
%TA.AperFunction,SMDPad,CuDef*%
%ADD17RoundRect,0.135000X0.185000X-0.135000X0.185000X0.135000X-0.185000X0.135000X-0.185000X-0.135000X0*%
%TD*%
%TA.AperFunction,ComponentPad*%
%ADD18C,0.700000*%
%TD*%
%TA.AperFunction,ComponentPad*%
%ADD19C,4.400000*%
%TD*%
%TA.AperFunction,SMDPad,CuDef*%
%ADD20R,5.080000X1.500000*%
%TD*%
%TA.AperFunction,SMDPad,CuDef*%
%ADD21RoundRect,0.135000X-0.185000X0.135000X-0.185000X-0.135000X0.185000X-0.135000X0.185000X0.135000X0*%
%TD*%
%TA.AperFunction,SMDPad,CuDef*%
%ADD22R,1.000000X3.150000*%
%TD*%
%TA.AperFunction,SMDPad,CuDef*%
%ADD23R,1.800000X0.700000*%
%TD*%
%TA.AperFunction,SMDPad,CuDef*%
%ADD24R,1.800000X0.800000*%
%TD*%
%TA.AperFunction,SMDPad,CuDef*%
%ADD25RoundRect,0.140000X0.170000X-0.140000X0.170000X0.140000X-0.170000X0.140000X-0.170000X-0.140000X0*%
%TD*%
%TA.AperFunction,ViaPad*%
%ADD26C,0.600000*%
%TD*%
%TA.AperFunction,ViaPad*%
%ADD27C,0.500000*%
%TD*%
%TA.AperFunction,Conductor*%
%ADD28C,0.200000*%
%TD*%
%TA.AperFunction,Conductor*%
%ADD29C,0.400000*%
%TD*%
%TA.AperFunction,Conductor*%
%ADD30C,0.300000*%
%TD*%
G04 APERTURE END LIST*
D10*
%TO.P,J104,7,Pin_7_7*%
%TO.N,/TIMEPULSE*%
X157600000Y-118260000D03*
%TO.P,J104,6,Pin_6_6*%
%TO.N,/EXTINT*%
X155060000Y-114950000D03*
%TO.P,J104,5,Pin_5_5*%
%TO.N,/V_BCKP*%
X152520000Y-118260000D03*
%TO.P,J104,4,Pin_4_4*%
%TO.N,/RESET_N*%
X149980000Y-114950000D03*
%TO.P,J104,3,Pin_3_3*%
%TO.N,/SAFEBOOT_N*%
X147440000Y-118260000D03*
%TO.P,J104,2,Pin_2_2*%
%TO.N,+5V*%
X144900000Y-114950000D03*
%TO.P,J104,1,Pin_1_1*%
%TO.N,GND*%
X142360000Y-118260000D03*
%TD*%
D11*
%TO.P,U101,7,EPAD_7*%
%TO.N,GND*%
X139565300Y-86390001D03*
D12*
%TO.P,U101,6,BYP_6*%
%TO.N,Net-(U101-BYP)*%
X140190000Y-85890002D03*
%TO.P,U101,5,ADJ_5*%
%TO.N,Net-(U101-ADJ)*%
X140190000Y-86390001D03*
%TO.P,U101,4,OUT_4*%
%TO.N,+3V3*%
X140190000Y-86890000D03*
%TO.P,U101,3,IN_3*%
%TO.N,+5V*%
X138940600Y-86890000D03*
%TO.P,U101,2,GND_2*%
%TO.N,GND*%
X138940600Y-86390001D03*
%TO.P,U101,1,EN_1*%
%TO.N,+5V*%
X138940600Y-85890002D03*
%TD*%
D13*
%TO.P,J103,1,1_1*%
%TO.N,GND*%
X164240000Y-108980000D03*
%TO.P,J103,2,2_2*%
%TO.N,+3V3*%
X164240000Y-107980000D03*
%TO.P,J103,3,3_3*%
%TO.N,/SDA*%
X164240000Y-106980000D03*
%TO.P,J103,4,4_4*%
%TO.N,/SCL*%
X164240000Y-105980000D03*
D14*
%TO.P,J103,S1*%
%TO.N,N/C*%
X168115000Y-110280000D03*
%TO.P,J103,S2*%
X168115000Y-104680000D03*
%TD*%
D15*
%TO.P,C101,1*%
%TO.N,Net-(U101-BYP)*%
X140390000Y-84860000D03*
%TO.P,C101,2*%
%TO.N,GND*%
X139430000Y-84860000D03*
%TD*%
D16*
%TO.P,C104,1*%
%TO.N,+3V3*%
X157084104Y-97555560D03*
%TO.P,C104,2*%
%TO.N,GND*%
X157084104Y-98515560D03*
%TD*%
D17*
%TO.P,R103,1*%
%TO.N,+3V3*%
X141410000Y-87239999D03*
%TO.P,R103,2*%
%TO.N,Net-(U101-ADJ)*%
X141410000Y-86220001D03*
%TD*%
D18*
%TO.P,H103,1,1_1*%
%TO.N,GND*%
X132330000Y-115980000D03*
X132813274Y-114813274D03*
X132813274Y-117146726D03*
X133980000Y-114330000D03*
D19*
X133980000Y-115980000D03*
D18*
X133980000Y-117630000D03*
X135146726Y-114813274D03*
X135146726Y-117146726D03*
X135630000Y-115980000D03*
%TD*%
D15*
%TO.P,C103,1*%
%TO.N,+3V3*%
X140460000Y-87920000D03*
%TO.P,C103,2*%
%TO.N,GND*%
X139500000Y-87920000D03*
%TD*%
D17*
%TO.P,R102,1*%
%TO.N,+3V3*%
X137209799Y-109999999D03*
%TO.P,R102,2*%
%TO.N,/SCL*%
X137209799Y-108980001D03*
%TD*%
D16*
%TO.P,C105,1*%
%TO.N,+3V3*%
X157999665Y-97556255D03*
%TO.P,C105,2*%
%TO.N,GND*%
X157999665Y-98516255D03*
%TD*%
D18*
%TO.P,H104,1,1_1*%
%TO.N,GND*%
X164330000Y-115980000D03*
X164813274Y-114813274D03*
X164813274Y-117146726D03*
X165980000Y-114330000D03*
D19*
X165980000Y-115980000D03*
D18*
X165980000Y-117630000D03*
X167146726Y-114813274D03*
X167146726Y-117146726D03*
X167630000Y-115980000D03*
%TD*%
D20*
%TO.P,J106,1,In_1*%
%TO.N,/RF_IN*%
X132502500Y-94980000D03*
%TO.P,J106,2,Ext_2*%
%TO.N,GND*%
X132502500Y-99230000D03*
X132502500Y-90730000D03*
%TD*%
D13*
%TO.P,J102,1,1_1*%
%TO.N,GND*%
X135720000Y-105980000D03*
%TO.P,J102,2,2_2*%
%TO.N,+3V3*%
X135720000Y-106980000D03*
%TO.P,J102,3,3_3*%
%TO.N,/SDA*%
X135720000Y-107980000D03*
%TO.P,J102,4,4_4*%
%TO.N,/SCL*%
X135720000Y-108980000D03*
D14*
%TO.P,J102,S1*%
%TO.N,N/C*%
X131845000Y-104680000D03*
%TO.P,J102,S2*%
X131845000Y-110280000D03*
%TD*%
D20*
%TO.P,J105,1,In_1*%
%TO.N,/TIMEPULSE*%
X167467500Y-94980000D03*
%TO.P,J105,2,Ext_2*%
%TO.N,GND*%
X167467500Y-90730000D03*
X167467500Y-99230000D03*
%TD*%
D18*
%TO.P,H101,1,1_1*%
%TO.N,GND*%
X132330000Y-83980000D03*
X132813274Y-82813274D03*
X132813274Y-85146726D03*
X133980000Y-82330000D03*
D19*
X133980000Y-83980000D03*
D18*
X133980000Y-85630000D03*
X135146726Y-82813274D03*
X135146726Y-85146726D03*
X135630000Y-83980000D03*
%TD*%
D21*
%TO.P,R101,1*%
%TO.N,+3V3*%
X137210705Y-106960001D03*
%TO.P,R101,2*%
%TO.N,/SDA*%
X137210705Y-107979999D03*
%TD*%
D18*
%TO.P,H102,1,1_1*%
%TO.N,GND*%
X164330000Y-83980000D03*
X164813274Y-82813274D03*
X164813274Y-85146726D03*
X165980000Y-82330000D03*
D19*
X165980000Y-83980000D03*
D18*
X165980000Y-85630000D03*
X167146726Y-82813274D03*
X167146726Y-85146726D03*
X167630000Y-83980000D03*
%TD*%
D22*
%TO.P,J107,1,Pin_1_1*%
%TO.N,/DCD#*%
X154890000Y-82555000D03*
%TO.P,J107,2,Pin_2_2*%
%TO.N,/TXD*%
X154890000Y-87605000D03*
%TO.P,J107,3,Pin_3_3*%
%TO.N,/RXD*%
X152350000Y-82555000D03*
%TO.P,J107,4,Pin_4_4*%
%TO.N,/DSR#*%
X152350000Y-87605000D03*
%TO.P,J107,5,Pin_5_5*%
%TO.N,GND*%
X149810000Y-82554999D03*
%TO.P,J107,6,Pin_6_6*%
%TO.N,/DTR#*%
X149810000Y-87605001D03*
%TO.P,J107,7,Pin_7_7*%
%TO.N,/CTS#*%
X147270000Y-82555000D03*
%TO.P,J107,8,Pin_8_8*%
%TO.N,/RTS#*%
X147270000Y-87605000D03*
%TO.P,J107,9,Pin_9_9*%
%TO.N,/RI#*%
X144730000Y-82555000D03*
%TO.P,J107,10,Pin_10_10*%
%TO.N,+5V*%
X144730000Y-87605000D03*
%TD*%
D23*
%TO.P,IC101,1,GND_1*%
%TO.N,GND*%
X154730000Y-104430000D03*
D24*
%TO.P,IC101,2,TXD_2*%
%TO.N,/TXD*%
X154730000Y-103330000D03*
%TO.P,IC101,3,RXD_3*%
%TO.N,/RXD*%
X154730000Y-102230000D03*
%TO.P,IC101,4,TIMEPULSE_4*%
%TO.N,/TIMEPULSE*%
X154730000Y-101130000D03*
%TO.P,IC101,5,EXTINT_5*%
%TO.N,/EXTINT*%
X154730000Y-100030000D03*
%TO.P,IC101,6,V_BCKP_6*%
%TO.N,/V_BCKP*%
X154730000Y-98930000D03*
%TO.P,IC101,7,V_IO_7*%
%TO.N,+3V3*%
X154730000Y-97830000D03*
%TO.P,IC101,8,VCC_8*%
X154730000Y-96730000D03*
D23*
%TO.P,IC101,9,RESET_N_9*%
%TO.N,/RESET_N*%
X154730000Y-95630000D03*
%TO.P,IC101,10,GND_10*%
%TO.N,GND*%
X145230000Y-95630000D03*
D24*
%TO.P,IC101,11,RF_IN_11*%
%TO.N,/RF_IN*%
X145230000Y-96730000D03*
%TO.P,IC101,12,GND_12*%
%TO.N,GND*%
X145230000Y-97830000D03*
%TO.P,IC101,13,LNA_EN_13*%
%TO.N,unconnected-(IC101-LNA_EN-Pad13)*%
X145230000Y-98930000D03*
%TO.P,IC101,14,VCC_RF_14*%
%TO.N,unconnected-(IC101-VCC_RF-Pad14)*%
X145230000Y-100030000D03*
%TO.P,IC101,15,VIO_SEL_15*%
%TO.N,unconnected-(IC101-VIO_SEL-Pad15)*%
X145230000Y-101130000D03*
%TO.P,IC101,16,SDA_16*%
%TO.N,/SDA*%
X145230000Y-102230000D03*
%TO.P,IC101,17,SCL_17*%
%TO.N,/SCL*%
X145230000Y-103330000D03*
D23*
%TO.P,IC101,18,SAFEBOOT_N_18*%
%TO.N,/SAFEBOOT_N*%
X145230000Y-104430000D03*
%TD*%
D25*
%TO.P,C102,1*%
%TO.N,+5V*%
X137723200Y-87118641D03*
%TO.P,C102,2*%
%TO.N,GND*%
X137723200Y-86158641D03*
%TD*%
D21*
%TO.P,R104,1*%
%TO.N,Net-(U101-ADJ)*%
X142350000Y-86219403D03*
%TO.P,R104,2*%
%TO.N,GND*%
X142350000Y-87239401D03*
%TD*%
D26*
%TO.N,+5V*%
X144140000Y-114740000D03*
D27*
%TO.N,/SCL*%
X163240000Y-105700000D03*
%TO.N,GND*%
X132320000Y-98260000D03*
X133860000Y-108550000D03*
D26*
%TO.N,+5V*%
X138560000Y-85520000D03*
%TO.N,+3V3*%
X140710000Y-87260000D03*
X165653300Y-107978735D03*
X156150000Y-97450000D03*
D27*
%TO.N,GND*%
X158000000Y-99030000D03*
X157080000Y-99030000D03*
X141200000Y-105390000D03*
X137460000Y-85640000D03*
X137690000Y-88440000D03*
%TO.N,+5V*%
X137730000Y-87640000D03*
X144720000Y-85800000D03*
%TO.N,GND*%
X139430000Y-84310000D03*
X155900000Y-89970000D03*
X151330000Y-84660000D03*
X155830000Y-104433442D03*
X138220000Y-110970000D03*
X142350000Y-87710000D03*
X152900000Y-102810000D03*
X153420000Y-104070000D03*
X167460000Y-98270000D03*
X144135324Y-95632013D03*
X133970000Y-107370000D03*
X134750000Y-105980000D03*
X139020000Y-87920000D03*
X136940000Y-105680000D03*
X132510000Y-91680000D03*
X144131429Y-97830000D03*
X149810993Y-84331015D03*
X165220000Y-108980000D03*
X167490000Y-91700000D03*
%TO.N,+3V3*%
X137210000Y-106500000D03*
X137590000Y-110380000D03*
%TO.N,/SDA*%
X163310000Y-106978863D03*
X134760000Y-107980000D03*
%TO.N,/SCL*%
X134770000Y-108980000D03*
%TO.N,/TXD*%
X153640000Y-103327553D03*
X154900000Y-89370000D03*
%TO.N,/RXD*%
X153640000Y-102228854D03*
X152360000Y-84320000D03*
%TD*%
%TO.N,/TIMEPULSE*%
D28*
X167467500Y-94980000D02*
X164300000Y-94980000D01*
X164300000Y-94980000D02*
X158150000Y-101130000D01*
X158150000Y-101130000D02*
X154730000Y-101130000D01*
%TO.N,+5V*%
D29*
X144140000Y-114740000D02*
X144690000Y-114740000D01*
X144690000Y-114740000D02*
X144900000Y-114950000D01*
%TO.N,/TIMEPULSE*%
D28*
X154730000Y-101130000D02*
X152340000Y-101130000D01*
X152340000Y-101130000D02*
X151670000Y-101800000D01*
X151670000Y-101800000D02*
X151670000Y-108110000D01*
X151670000Y-108110000D02*
X157600000Y-114040000D01*
X157600000Y-114040000D02*
X157600000Y-118260000D01*
%TO.N,/EXTINT*%
X154730000Y-100030000D02*
X151300000Y-100030000D01*
X151300000Y-100030000D02*
X150390000Y-100940000D01*
X150390000Y-100940000D02*
X150390000Y-108800000D01*
X150390000Y-108800000D02*
X155060000Y-113470000D01*
X155060000Y-113470000D02*
X155060000Y-114950000D01*
%TO.N,/V_BCKP*%
X149400000Y-99940000D02*
X149400000Y-111400000D01*
X150410000Y-98930000D02*
X149400000Y-99940000D01*
X154730000Y-98930000D02*
X150410000Y-98930000D01*
X149400000Y-111400000D02*
X152520000Y-114520000D01*
X152520000Y-114520000D02*
X152520000Y-118260000D01*
%TO.N,/RESET_N*%
X149980000Y-114950000D02*
X149980000Y-113290000D01*
X149980000Y-113290000D02*
X148340000Y-111650000D01*
X148340000Y-111650000D02*
X148340000Y-99670000D01*
X148340000Y-99670000D02*
X152380000Y-95630000D01*
X152380000Y-95630000D02*
X154730000Y-95630000D01*
%TO.N,/SDA*%
X143410000Y-102230000D02*
X145230000Y-102230000D01*
X137660001Y-107979999D02*
X143410000Y-102230000D01*
X137210705Y-107979999D02*
X137660001Y-107979999D01*
%TO.N,/SCL*%
X137209799Y-108980001D02*
X138649999Y-108980001D01*
X138649999Y-108980001D02*
X144300000Y-103330000D01*
X144300000Y-103330000D02*
X145230000Y-103330000D01*
%TO.N,+5V*%
D30*
X137730000Y-87640000D02*
X137730000Y-87125441D01*
X137730000Y-87125441D02*
X137723200Y-87118641D01*
X138560000Y-85520000D02*
X138570598Y-85520000D01*
X138570598Y-85520000D02*
X138940600Y-85890002D01*
X137723200Y-87118641D02*
X138711959Y-87118641D01*
X138711959Y-87118641D02*
X138940600Y-86890000D01*
%TO.N,Net-(U101-BYP)*%
X140390000Y-84860000D02*
X140390000Y-85690002D01*
X140390000Y-85690002D02*
X140190000Y-85890002D01*
%TO.N,Net-(U101-ADJ)*%
X141410000Y-86220001D02*
X142349402Y-86220001D01*
X142349402Y-86220001D02*
X142350000Y-86219403D01*
X141410000Y-86220001D02*
X141240000Y-86390001D01*
X141240000Y-86390001D02*
X140190000Y-86390001D01*
%TO.N,+3V3*%
X140710000Y-87260000D02*
X141389999Y-87260000D01*
X141389999Y-87260000D02*
X141410000Y-87239999D01*
X140710000Y-87260000D02*
X140710000Y-87670000D01*
X140710000Y-87670000D02*
X140460000Y-87920000D01*
X140710000Y-87260000D02*
X140560000Y-87260000D01*
X140560000Y-87260000D02*
X140190000Y-86890000D01*
X137210705Y-106960001D02*
X135739999Y-106960001D01*
X135739999Y-106960001D02*
X135720000Y-106980000D01*
X165653300Y-107978735D02*
X164241265Y-107978735D01*
X164241265Y-107978735D02*
X164240000Y-107980000D01*
D29*
X157084104Y-97555560D02*
X157998970Y-97555560D01*
X157998970Y-97555560D02*
X157999665Y-97556255D01*
X156150000Y-97450000D02*
X156978544Y-97450000D01*
X156978544Y-97450000D02*
X157084104Y-97555560D01*
X154730000Y-96730000D02*
X154730000Y-97070000D01*
X154730000Y-97070000D02*
X155110000Y-97450000D01*
X156150000Y-97450000D02*
X155110000Y-97450000D01*
X155110000Y-97450000D02*
X154730000Y-97830000D01*
D28*
X137590000Y-110380000D02*
X137589800Y-110380000D01*
X137589800Y-110380000D02*
X137209799Y-109999999D01*
D30*
X137210000Y-106500000D02*
X137210000Y-106959296D01*
X137210000Y-106959296D02*
X137210705Y-106960001D01*
%TO.N,+5V*%
D29*
X144730000Y-87605000D02*
X144730000Y-85810000D01*
X144730000Y-85810000D02*
X144720000Y-85800000D01*
%TO.N,/TXD*%
D28*
X154730000Y-103330000D02*
X153642447Y-103330000D01*
X153642447Y-103330000D02*
X153640000Y-103327553D01*
%TO.N,/RXD*%
X154730000Y-102230000D02*
X153641146Y-102230000D01*
X153641146Y-102230000D02*
X153640000Y-102228854D01*
%TO.N,/SDA*%
X137210705Y-107979999D02*
X135720000Y-107980000D01*
X134760000Y-107980000D02*
X135720000Y-107980000D01*
X164238863Y-106978863D02*
X164240000Y-106980000D01*
X163310000Y-106978863D02*
X164238863Y-106978863D01*
%TO.N,/SCL*%
X134770000Y-108980000D02*
X135720000Y-108980000D01*
X137209799Y-108980001D02*
X135720000Y-108980000D01*
%TO.N,/RF_IN*%
X145230000Y-96730000D02*
X140040000Y-96730000D01*
X140040000Y-96730000D02*
X138290000Y-94980000D01*
X138290000Y-94980000D02*
X132502500Y-94980000D01*
%TO.N,/TXD*%
X154900000Y-87615000D02*
X154890000Y-87605000D01*
X154900000Y-89370000D02*
X154900000Y-87615000D01*
%TO.N,/RXD*%
X152360000Y-82565000D02*
X152350000Y-82555000D01*
X152360000Y-84320000D02*
X152360000Y-82565000D01*
%TO.N,/SCL*%
X163240000Y-105700000D02*
X163240000Y-105780000D01*
X163438295Y-105978295D02*
X164238295Y-105978295D01*
X163240000Y-105780000D02*
X163438295Y-105978295D01*
X164238295Y-105978295D02*
X164240000Y-105980000D01*
%TO.N,/SAFEBOOT_N*%
X145230000Y-104430000D02*
X147440000Y-106640000D01*
X147440000Y-106640000D02*
X147440000Y-118260000D01*
%TD*%
%TA.AperFunction,Conductor*%
%TO.N,GND*%
G36*
X144126132Y-102533868D02*
G01*
X144129500Y-102542000D01*
X144129500Y-102649748D01*
X144141133Y-102708231D01*
X144141134Y-102708232D01*
X144184818Y-102773611D01*
X144186535Y-102782244D01*
X144184818Y-102786389D01*
X144141134Y-102851767D01*
X144141132Y-102851771D01*
X144129500Y-102910253D01*
X144129500Y-103074811D01*
X144128905Y-103076247D01*
X144129108Y-103077787D01*
X144127281Y-103080168D01*
X144126132Y-103082943D01*
X144123753Y-103084768D01*
X144119727Y-103087093D01*
X144119726Y-103087093D01*
X144115489Y-103089539D01*
X138528896Y-108676133D01*
X138520764Y-108679501D01*
X137695135Y-108679501D01*
X137687003Y-108676133D01*
X137684713Y-108672861D01*
X137673865Y-108649599D01*
X137673864Y-108649598D01*
X137673864Y-108649597D01*
X137590203Y-108565936D01*
X137482972Y-108515933D01*
X137458543Y-108512717D01*
X137434117Y-108509501D01*
X137434115Y-108509501D01*
X136985483Y-108509501D01*
X136985480Y-108509501D01*
X136948840Y-108514325D01*
X136936626Y-108515933D01*
X136841696Y-108560200D01*
X136829395Y-108565936D01*
X136745732Y-108649599D01*
X136734885Y-108672860D01*
X136733378Y-108674240D01*
X136732595Y-108676132D01*
X136730259Y-108677099D01*
X136728396Y-108678807D01*
X136724463Y-108679500D01*
X136707000Y-108679500D01*
X136698868Y-108676132D01*
X136695500Y-108668000D01*
X136695500Y-108660253D01*
X136693381Y-108649599D01*
X136683867Y-108601769D01*
X136639552Y-108535448D01*
X136639550Y-108535446D01*
X136573232Y-108491134D01*
X136573233Y-108491134D01*
X136573231Y-108491133D01*
X136573228Y-108491132D01*
X136572184Y-108490700D01*
X136572382Y-108490221D01*
X136566648Y-108486394D01*
X136564927Y-108477762D01*
X136569813Y-108470441D01*
X136572240Y-108469435D01*
X136572184Y-108469300D01*
X136573223Y-108468868D01*
X136573231Y-108468867D01*
X136639552Y-108424552D01*
X136683867Y-108358231D01*
X136695500Y-108299748D01*
X136695500Y-108291999D01*
X136698868Y-108283867D01*
X136707000Y-108280499D01*
X136725369Y-108280499D01*
X136733501Y-108283867D01*
X136735791Y-108287139D01*
X136746638Y-108310400D01*
X136746639Y-108310401D01*
X136746640Y-108310403D01*
X136830301Y-108394064D01*
X136937532Y-108444067D01*
X136986389Y-108450499D01*
X136986393Y-108450499D01*
X137435017Y-108450499D01*
X137435021Y-108450499D01*
X137483878Y-108444067D01*
X137591109Y-108394064D01*
X137674770Y-108310403D01*
X137685619Y-108287139D01*
X137692108Y-108281192D01*
X137696041Y-108280499D01*
X137699563Y-108280499D01*
X137775990Y-108260020D01*
X137844512Y-108220459D01*
X137900461Y-108164510D01*
X143531103Y-102533868D01*
X143539235Y-102530500D01*
X144118000Y-102530500D01*
X144126132Y-102533868D01*
G37*
%TD.AperFunction*%
%TA.AperFunction,Conductor*%
G36*
X165980259Y-79980511D02*
G01*
X166313307Y-79995909D01*
X166313889Y-79995951D01*
X166393975Y-80003839D01*
X166394382Y-80003887D01*
X166686408Y-80044623D01*
X166687056Y-80044733D01*
X166760932Y-80059428D01*
X166761141Y-80059473D01*
X167054108Y-80128378D01*
X167054782Y-80128560D01*
X167117434Y-80147565D01*
X167117565Y-80147607D01*
X167412910Y-80246596D01*
X167413581Y-80246847D01*
X167458099Y-80265287D01*
X167458182Y-80265323D01*
X167759404Y-80398326D01*
X167760168Y-80398698D01*
X167774844Y-80406542D01*
X168044347Y-80556654D01*
X168085007Y-80579302D01*
X168085910Y-80579862D01*
X168389795Y-80788027D01*
X168390641Y-80788665D01*
X168597275Y-80960252D01*
X168674033Y-81023991D01*
X168674818Y-81024706D01*
X168935293Y-81285181D01*
X168936008Y-81285966D01*
X169171332Y-81569356D01*
X169171972Y-81570204D01*
X169380137Y-81874089D01*
X169380697Y-81874992D01*
X169553405Y-82185062D01*
X169553500Y-82185237D01*
X169561297Y-82199825D01*
X169561675Y-82200601D01*
X169694631Y-82501714D01*
X169694736Y-82501958D01*
X169713137Y-82546381D01*
X169713414Y-82547122D01*
X169812361Y-82842339D01*
X169812462Y-82842656D01*
X169831434Y-82905201D01*
X169831624Y-82905906D01*
X169900506Y-83198771D01*
X169900590Y-83199161D01*
X169915264Y-83272940D01*
X169915375Y-83273594D01*
X169956107Y-83565589D01*
X169956162Y-83566051D01*
X169964046Y-83646103D01*
X169964089Y-83646699D01*
X169979488Y-83979740D01*
X169979500Y-83980271D01*
X169979500Y-94018000D01*
X169976132Y-94026132D01*
X169968000Y-94029500D01*
X164907752Y-94029500D01*
X164884488Y-94034127D01*
X164849271Y-94041132D01*
X164849267Y-94041134D01*
X164782949Y-94085446D01*
X164782946Y-94085449D01*
X164738634Y-94151767D01*
X164738632Y-94151771D01*
X164727000Y-94210253D01*
X164727000Y-94668000D01*
X164723632Y-94676132D01*
X164715500Y-94679500D01*
X164260438Y-94679500D01*
X164184012Y-94699978D01*
X164115489Y-94739539D01*
X158028897Y-100826132D01*
X158020765Y-100829500D01*
X155842000Y-100829500D01*
X155833868Y-100826132D01*
X155830500Y-100818000D01*
X155830500Y-100710253D01*
X155818867Y-100651771D01*
X155818867Y-100651769D01*
X155775181Y-100586389D01*
X155773464Y-100577756D01*
X155775181Y-100573611D01*
X155781700Y-100563853D01*
X155818867Y-100508231D01*
X155830500Y-100449748D01*
X155830500Y-99610252D01*
X155818867Y-99551769D01*
X155775181Y-99486389D01*
X155773464Y-99477756D01*
X155775181Y-99473611D01*
X155781700Y-99463853D01*
X155818867Y-99408231D01*
X155830500Y-99349748D01*
X155830500Y-98510252D01*
X155818867Y-98451769D01*
X155775181Y-98386389D01*
X155773464Y-98377756D01*
X155775181Y-98373611D01*
X155781700Y-98363853D01*
X155818867Y-98308231D01*
X155830500Y-98249748D01*
X155830500Y-97863382D01*
X155833868Y-97855250D01*
X155842000Y-97851882D01*
X155847747Y-97853422D01*
X155956814Y-97916392D01*
X156084108Y-97950500D01*
X156215892Y-97950500D01*
X156343186Y-97916392D01*
X156449087Y-97855250D01*
X156454645Y-97852041D01*
X156460395Y-97850500D01*
X156603327Y-97850500D01*
X156611459Y-97853868D01*
X156613749Y-97857140D01*
X156630878Y-97893873D01*
X156630879Y-97893874D01*
X156630880Y-97893876D01*
X156715788Y-97978784D01*
X156824617Y-98029532D01*
X156874203Y-98036060D01*
X157294004Y-98036059D01*
X157343591Y-98029532D01*
X157452420Y-97978784D01*
X157471776Y-97959428D01*
X157479908Y-97956060D01*
X157603166Y-97956060D01*
X157611298Y-97959428D01*
X157631349Y-97979479D01*
X157740178Y-98030227D01*
X157789764Y-98036755D01*
X158209565Y-98036754D01*
X158259152Y-98030227D01*
X158367981Y-97979479D01*
X158452889Y-97894571D01*
X158503637Y-97785742D01*
X158510165Y-97736156D01*
X158510164Y-97376355D01*
X158503637Y-97326768D01*
X158452889Y-97217939D01*
X158367981Y-97133031D01*
X158259152Y-97082283D01*
X158209566Y-97075755D01*
X158209565Y-97075755D01*
X157789768Y-97075755D01*
X157789762Y-97075756D01*
X157752574Y-97080651D01*
X157740178Y-97082283D01*
X157632839Y-97132336D01*
X157631349Y-97133031D01*
X157612688Y-97151692D01*
X157604556Y-97155060D01*
X157479908Y-97155060D01*
X157471776Y-97151692D01*
X157469830Y-97149746D01*
X157452420Y-97132336D01*
X157343591Y-97081588D01*
X157318798Y-97078324D01*
X157294007Y-97075060D01*
X157294005Y-97075060D01*
X157128178Y-97075060D01*
X157125202Y-97074668D01*
X157031271Y-97049500D01*
X156460395Y-97049500D01*
X156454645Y-97047959D01*
X156343190Y-96983610D01*
X156343188Y-96983609D01*
X156343186Y-96983608D01*
X156343182Y-96983607D01*
X156343180Y-96983606D01*
X156215892Y-96949500D01*
X156084108Y-96949500D01*
X155956819Y-96983606D01*
X155956809Y-96983610D01*
X155847750Y-97046576D01*
X155839024Y-97047725D01*
X155832041Y-97042367D01*
X155830500Y-97036617D01*
X155830500Y-96310253D01*
X155818867Y-96251771D01*
X155818867Y-96251769D01*
X155774552Y-96185448D01*
X155774550Y-96185446D01*
X155743294Y-96164562D01*
X155738404Y-96157244D01*
X155740121Y-96148611D01*
X155743294Y-96145438D01*
X155774552Y-96124552D01*
X155818867Y-96058231D01*
X155830500Y-95999748D01*
X155830500Y-95260252D01*
X155818867Y-95201769D01*
X155774552Y-95135448D01*
X155774550Y-95135446D01*
X155708232Y-95091134D01*
X155708233Y-95091134D01*
X155708231Y-95091133D01*
X155708229Y-95091132D01*
X155708228Y-95091132D01*
X155678788Y-95085276D01*
X155649748Y-95079500D01*
X153810252Y-95079500D01*
X153786988Y-95084127D01*
X153751771Y-95091132D01*
X153751767Y-95091134D01*
X153685449Y-95135446D01*
X153685446Y-95135449D01*
X153641134Y-95201767D01*
X153641132Y-95201771D01*
X153629500Y-95260253D01*
X153629500Y-95318000D01*
X153626132Y-95326132D01*
X153618000Y-95329500D01*
X152340438Y-95329500D01*
X152264017Y-95349976D01*
X152264007Y-95349980D01*
X152195489Y-95389539D01*
X148099539Y-99485489D01*
X148059978Y-99554012D01*
X148039500Y-99630438D01*
X148039500Y-111689561D01*
X148059978Y-111765987D01*
X148099539Y-111834510D01*
X149676132Y-113411103D01*
X149679500Y-113419235D01*
X149679500Y-113483000D01*
X149676132Y-113491132D01*
X149668000Y-113494500D01*
X149460252Y-113494500D01*
X149436988Y-113499127D01*
X149401771Y-113506132D01*
X149401767Y-113506134D01*
X149335449Y-113550446D01*
X149335446Y-113550449D01*
X149291134Y-113616767D01*
X149291132Y-113616771D01*
X149282388Y-113660731D01*
X149279500Y-113675252D01*
X149279500Y-116224748D01*
X149291133Y-116283231D01*
X149291134Y-116283232D01*
X149335446Y-116349550D01*
X149335448Y-116349552D01*
X149401769Y-116393867D01*
X149460252Y-116405500D01*
X149460254Y-116405500D01*
X150499746Y-116405500D01*
X150499748Y-116405500D01*
X150558231Y-116393867D01*
X150624552Y-116349552D01*
X150668867Y-116283231D01*
X150680500Y-116224748D01*
X150680500Y-113675252D01*
X150668867Y-113616769D01*
X150624552Y-113550448D01*
X150624550Y-113550446D01*
X150558232Y-113506134D01*
X150558233Y-113506134D01*
X150558231Y-113506133D01*
X150558229Y-113506132D01*
X150558228Y-113506132D01*
X150528788Y-113500276D01*
X150499748Y-113494500D01*
X150499746Y-113494500D01*
X150292000Y-113494500D01*
X150283868Y-113491132D01*
X150280500Y-113483000D01*
X150280500Y-113250438D01*
X150260021Y-113174012D01*
X150260021Y-113174011D01*
X150220460Y-113105489D01*
X150164511Y-113049540D01*
X148643868Y-111528897D01*
X148640500Y-111520765D01*
X148640500Y-99799235D01*
X148643868Y-99791103D01*
X152501103Y-95933868D01*
X152509235Y-95930500D01*
X153618000Y-95930500D01*
X153626132Y-95933868D01*
X153629500Y-95942000D01*
X153629500Y-95999748D01*
X153641133Y-96058231D01*
X153641134Y-96058232D01*
X153685446Y-96124550D01*
X153685449Y-96124553D01*
X153716704Y-96145438D01*
X153721594Y-96152757D01*
X153719877Y-96161389D01*
X153716704Y-96164562D01*
X153685449Y-96185446D01*
X153685446Y-96185449D01*
X153641134Y-96251767D01*
X153641132Y-96251771D01*
X153632388Y-96295731D01*
X153629500Y-96310252D01*
X153629500Y-97149748D01*
X153641133Y-97208231D01*
X153641274Y-97208442D01*
X153684818Y-97273611D01*
X153686535Y-97282244D01*
X153684818Y-97286389D01*
X153641134Y-97351767D01*
X153641132Y-97351771D01*
X153636242Y-97376358D01*
X153629500Y-97410252D01*
X153629500Y-98249748D01*
X153641133Y-98308231D01*
X153641134Y-98308232D01*
X153684818Y-98373611D01*
X153686535Y-98382244D01*
X153684818Y-98386389D01*
X153641134Y-98451767D01*
X153641132Y-98451771D01*
X153629500Y-98510253D01*
X153629500Y-98618000D01*
X153626132Y-98626132D01*
X153618000Y-98629500D01*
X150370438Y-98629500D01*
X150294017Y-98649976D01*
X150294007Y-98649980D01*
X150225489Y-98689539D01*
X149159539Y-99755489D01*
X149119978Y-99824012D01*
X149099500Y-99900438D01*
X149099500Y-111439561D01*
X149119978Y-111515987D01*
X149130385Y-111534012D01*
X149159539Y-111584510D01*
X152216132Y-114641103D01*
X152219500Y-114649235D01*
X152219500Y-116793000D01*
X152216132Y-116801132D01*
X152208000Y-116804500D01*
X152000252Y-116804500D01*
X151976988Y-116809127D01*
X151941771Y-116816132D01*
X151941767Y-116816134D01*
X151875449Y-116860446D01*
X151875446Y-116860449D01*
X151831134Y-116926767D01*
X151831132Y-116926771D01*
X151822388Y-116970731D01*
X151819500Y-116985252D01*
X151819500Y-119534748D01*
X151831133Y-119593231D01*
X151831134Y-119593232D01*
X151875446Y-119659550D01*
X151875448Y-119659552D01*
X151941769Y-119703867D01*
X152000252Y-119715500D01*
X152000254Y-119715500D01*
X153039746Y-119715500D01*
X153039748Y-119715500D01*
X153098231Y-119703867D01*
X153164552Y-119659552D01*
X153208867Y-119593231D01*
X153220500Y-119534748D01*
X153220500Y-116985252D01*
X153208867Y-116926769D01*
X153164552Y-116860448D01*
X153164550Y-116860446D01*
X153098232Y-116816134D01*
X153098233Y-116816134D01*
X153098231Y-116816133D01*
X153098229Y-116816132D01*
X153098228Y-116816132D01*
X153068788Y-116810276D01*
X153039748Y-116804500D01*
X153039746Y-116804500D01*
X152832000Y-116804500D01*
X152823868Y-116801132D01*
X152820500Y-116793000D01*
X152820500Y-114480438D01*
X152800021Y-114404011D01*
X152760460Y-114335489D01*
X152704511Y-114279540D01*
X149703868Y-111278897D01*
X149700500Y-111270765D01*
X149700500Y-100069235D01*
X149703868Y-100061103D01*
X150531103Y-99233868D01*
X150539235Y-99230500D01*
X153618000Y-99230500D01*
X153626132Y-99233868D01*
X153629500Y-99242000D01*
X153629500Y-99349748D01*
X153641133Y-99408231D01*
X153641134Y-99408232D01*
X153684818Y-99473611D01*
X153686535Y-99482244D01*
X153684818Y-99486389D01*
X153641134Y-99551767D01*
X153641132Y-99551771D01*
X153629500Y-99610253D01*
X153629500Y-99718000D01*
X153626132Y-99726132D01*
X153618000Y-99729500D01*
X151260438Y-99729500D01*
X151184012Y-99749978D01*
X151121641Y-99785988D01*
X151115489Y-99789539D01*
X150149539Y-100755489D01*
X150109978Y-100824012D01*
X150089500Y-100900438D01*
X150089500Y-108839561D01*
X150109978Y-108915987D01*
X150149539Y-108984510D01*
X154639897Y-113474868D01*
X154643265Y-113483000D01*
X154639897Y-113491132D01*
X154631765Y-113494500D01*
X154540252Y-113494500D01*
X154516988Y-113499127D01*
X154481771Y-113506132D01*
X154481767Y-113506134D01*
X154415449Y-113550446D01*
X154415446Y-113550449D01*
X154371134Y-113616767D01*
X154371132Y-113616771D01*
X154362388Y-113660731D01*
X154359500Y-113675252D01*
X154359500Y-116224748D01*
X154371133Y-116283231D01*
X154371134Y-116283232D01*
X154415446Y-116349550D01*
X154415448Y-116349552D01*
X154481769Y-116393867D01*
X154540252Y-116405500D01*
X154540254Y-116405500D01*
X155579746Y-116405500D01*
X155579748Y-116405500D01*
X155638231Y-116393867D01*
X155704552Y-116349552D01*
X155748867Y-116283231D01*
X155760500Y-116224748D01*
X155760500Y-113675252D01*
X155748867Y-113616769D01*
X155704552Y-113550448D01*
X155704550Y-113550446D01*
X155638232Y-113506134D01*
X155638233Y-113506134D01*
X155638231Y-113506133D01*
X155638229Y-113506132D01*
X155638228Y-113506132D01*
X155608788Y-113500276D01*
X155579748Y-113494500D01*
X155579746Y-113494500D01*
X155372000Y-113494500D01*
X155363868Y-113491132D01*
X155360500Y-113483000D01*
X155360500Y-113430438D01*
X155340021Y-113354012D01*
X155340021Y-113354011D01*
X155300460Y-113285489D01*
X155244511Y-113229540D01*
X150693868Y-108678897D01*
X150690500Y-108670765D01*
X150690500Y-101069235D01*
X150693868Y-101061103D01*
X151421103Y-100333868D01*
X151429235Y-100330500D01*
X153618000Y-100330500D01*
X153626132Y-100333868D01*
X153629500Y-100342000D01*
X153629500Y-100449748D01*
X153641133Y-100508231D01*
X153641134Y-100508232D01*
X153684818Y-100573611D01*
X153686535Y-100582244D01*
X153684818Y-100586389D01*
X153641134Y-100651767D01*
X153641132Y-100651771D01*
X153629500Y-100710253D01*
X153629500Y-100818000D01*
X153626132Y-100826132D01*
X153618000Y-100829500D01*
X152300438Y-100829500D01*
X152224012Y-100849978D01*
X152155489Y-100889539D01*
X151429539Y-101615489D01*
X151389978Y-101684012D01*
X151371823Y-101751767D01*
X151369500Y-101760438D01*
X151369500Y-108149562D01*
X151375490Y-108171915D01*
X151389978Y-108225987D01*
X151429539Y-108294510D01*
X157296132Y-114161103D01*
X157299500Y-114169235D01*
X157299500Y-116793000D01*
X157296132Y-116801132D01*
X157288000Y-116804500D01*
X157080252Y-116804500D01*
X157056988Y-116809127D01*
X157021771Y-116816132D01*
X157021767Y-116816134D01*
X156955449Y-116860446D01*
X156955446Y-116860449D01*
X156911134Y-116926767D01*
X156911132Y-116926771D01*
X156902388Y-116970731D01*
X156899500Y-116985252D01*
X156899500Y-119534748D01*
X156911133Y-119593231D01*
X156911134Y-119593232D01*
X156955446Y-119659550D01*
X156955448Y-119659552D01*
X157021769Y-119703867D01*
X157080252Y-119715500D01*
X157080254Y-119715500D01*
X158119746Y-119715500D01*
X158119748Y-119715500D01*
X158178231Y-119703867D01*
X158244552Y-119659552D01*
X158288867Y-119593231D01*
X158300500Y-119534748D01*
X158300500Y-116985252D01*
X158288867Y-116926769D01*
X158244552Y-116860448D01*
X158244550Y-116860446D01*
X158178232Y-116816134D01*
X158178233Y-116816134D01*
X158178231Y-116816133D01*
X158178229Y-116816132D01*
X158178228Y-116816132D01*
X158148788Y-116810276D01*
X158119748Y-116804500D01*
X158119746Y-116804500D01*
X157912000Y-116804500D01*
X157903868Y-116801132D01*
X157900500Y-116793000D01*
X157900500Y-114000438D01*
X157880021Y-113924012D01*
X157880021Y-113924011D01*
X157840460Y-113855489D01*
X157784511Y-113799540D01*
X153645223Y-109660252D01*
X167014500Y-109660252D01*
X167014500Y-110899748D01*
X167026133Y-110958231D01*
X167026134Y-110958232D01*
X167070446Y-111024550D01*
X167070448Y-111024552D01*
X167136769Y-111068867D01*
X167195252Y-111080500D01*
X167195254Y-111080500D01*
X169034746Y-111080500D01*
X169034748Y-111080500D01*
X169093231Y-111068867D01*
X169159552Y-111024552D01*
X169203867Y-110958231D01*
X169215500Y-110899748D01*
X169215500Y-109660252D01*
X169203867Y-109601769D01*
X169159552Y-109535448D01*
X169159550Y-109535446D01*
X169093232Y-109491134D01*
X169093233Y-109491134D01*
X169093231Y-109491133D01*
X169093229Y-109491132D01*
X169093228Y-109491132D01*
X169063788Y-109485276D01*
X169034748Y-109479500D01*
X167195252Y-109479500D01*
X167171988Y-109484127D01*
X167136771Y-109491132D01*
X167136767Y-109491134D01*
X167070449Y-109535446D01*
X167070446Y-109535449D01*
X167026134Y-109601767D01*
X167026132Y-109601771D01*
X167017388Y-109645731D01*
X167014500Y-109660252D01*
X153645223Y-109660252D01*
X151973868Y-107988897D01*
X151970500Y-107980765D01*
X151970500Y-105640691D01*
X162789500Y-105640691D01*
X162789500Y-105759309D01*
X162820201Y-105873886D01*
X162879511Y-105976613D01*
X162963387Y-106060489D01*
X163066114Y-106119799D01*
X163180691Y-106150500D01*
X163180765Y-106150500D01*
X163180800Y-106150514D01*
X163181440Y-106150599D01*
X163181417Y-106150770D01*
X163188897Y-106153868D01*
X163197835Y-106162806D01*
X163253784Y-106218755D01*
X163258749Y-106221621D01*
X163264108Y-106228604D01*
X163264500Y-106231581D01*
X163264500Y-106299748D01*
X163276133Y-106358231D01*
X163276134Y-106358232D01*
X163320446Y-106424550D01*
X163320448Y-106424552D01*
X163386769Y-106468867D01*
X163386774Y-106468868D01*
X163387816Y-106469300D01*
X163387617Y-106469778D01*
X163393354Y-106473611D01*
X163395071Y-106482244D01*
X163390181Y-106489562D01*
X163387760Y-106490564D01*
X163387816Y-106490700D01*
X163386767Y-106491134D01*
X163333951Y-106526425D01*
X163327562Y-106528363D01*
X163250691Y-106528363D01*
X163136115Y-106559063D01*
X163033387Y-106618373D01*
X162949510Y-106702250D01*
X162890200Y-106804978D01*
X162859500Y-106919554D01*
X162859500Y-107038171D01*
X162885262Y-107134319D01*
X162890201Y-107152749D01*
X162949511Y-107255476D01*
X163033387Y-107339352D01*
X163136114Y-107398662D01*
X163250691Y-107429363D01*
X163324159Y-107429363D01*
X163330548Y-107431301D01*
X163386769Y-107468867D01*
X163386774Y-107468868D01*
X163387816Y-107469300D01*
X163387617Y-107469778D01*
X163393354Y-107473611D01*
X163395071Y-107482244D01*
X163390181Y-107489562D01*
X163387760Y-107490564D01*
X163387816Y-107490700D01*
X163386767Y-107491134D01*
X163320449Y-107535446D01*
X163320446Y-107535449D01*
X163276134Y-107601767D01*
X163276132Y-107601771D01*
X163267388Y-107645731D01*
X163264500Y-107660252D01*
X163264500Y-108299748D01*
X163270276Y-108328788D01*
X163276132Y-108358228D01*
X163276132Y-108358229D01*
X163276133Y-108358231D01*
X163276134Y-108358232D01*
X163320446Y-108424550D01*
X163320449Y-108424553D01*
X163332250Y-108432438D01*
X163386769Y-108468867D01*
X163445252Y-108480500D01*
X163445254Y-108480500D01*
X165034746Y-108480500D01*
X165034748Y-108480500D01*
X165093231Y-108468867D01*
X165159552Y-108424552D01*
X165203867Y-108358231D01*
X165207794Y-108338491D01*
X165212684Y-108331173D01*
X165219073Y-108329235D01*
X165291222Y-108329235D01*
X165299354Y-108332603D01*
X165345986Y-108379235D01*
X165460114Y-108445127D01*
X165587408Y-108479235D01*
X165719192Y-108479235D01*
X165846486Y-108445127D01*
X165960614Y-108379235D01*
X166053800Y-108286049D01*
X166119692Y-108171921D01*
X166153800Y-108044627D01*
X166153800Y-107912843D01*
X166119692Y-107785549D01*
X166053800Y-107671421D01*
X165960614Y-107578235D01*
X165960613Y-107578234D01*
X165846490Y-107512345D01*
X165846488Y-107512344D01*
X165846486Y-107512343D01*
X165846482Y-107512342D01*
X165846480Y-107512341D01*
X165719192Y-107478235D01*
X165587408Y-107478235D01*
X165460119Y-107512341D01*
X165460109Y-107512345D01*
X165345986Y-107578234D01*
X165299354Y-107624867D01*
X165291222Y-107628235D01*
X165218569Y-107628235D01*
X165210437Y-107624867D01*
X165207290Y-107618978D01*
X165206474Y-107614876D01*
X165203867Y-107601769D01*
X165159552Y-107535448D01*
X165159550Y-107535446D01*
X165093232Y-107491134D01*
X165093233Y-107491134D01*
X165093231Y-107491133D01*
X165093228Y-107491132D01*
X165092184Y-107490700D01*
X165092382Y-107490221D01*
X165086648Y-107486394D01*
X165084927Y-107477762D01*
X165089813Y-107470441D01*
X165092240Y-107469435D01*
X165092184Y-107469300D01*
X165093223Y-107468868D01*
X165093231Y-107468867D01*
X165159552Y-107424552D01*
X165203867Y-107358231D01*
X165215500Y-107299748D01*
X165215500Y-106660252D01*
X165203867Y-106601769D01*
X165159552Y-106535448D01*
X165159550Y-106535446D01*
X165093232Y-106491134D01*
X165093233Y-106491134D01*
X165093231Y-106491133D01*
X165093228Y-106491132D01*
X165092184Y-106490700D01*
X165092382Y-106490221D01*
X165086648Y-106486394D01*
X165084927Y-106477762D01*
X165089813Y-106470441D01*
X165092240Y-106469435D01*
X165092184Y-106469300D01*
X165093223Y-106468868D01*
X165093231Y-106468867D01*
X165159552Y-106424552D01*
X165203867Y-106358231D01*
X165215500Y-106299748D01*
X165215500Y-105660252D01*
X165203867Y-105601769D01*
X165159552Y-105535448D01*
X165159550Y-105535446D01*
X165093232Y-105491134D01*
X165093233Y-105491134D01*
X165093231Y-105491133D01*
X165093229Y-105491132D01*
X165093228Y-105491132D01*
X165063788Y-105485276D01*
X165034748Y-105479500D01*
X165034746Y-105479500D01*
X163639525Y-105479500D01*
X163631393Y-105476132D01*
X163629566Y-105473750D01*
X163600489Y-105423387D01*
X163516612Y-105339510D01*
X163413884Y-105280200D01*
X163413885Y-105280200D01*
X163299309Y-105249500D01*
X163180691Y-105249500D01*
X163066115Y-105280200D01*
X162963387Y-105339510D01*
X162879510Y-105423387D01*
X162820200Y-105526115D01*
X162789500Y-105640691D01*
X151970500Y-105640691D01*
X151970500Y-104060252D01*
X167014500Y-104060252D01*
X167014500Y-105299748D01*
X167026133Y-105358231D01*
X167026134Y-105358232D01*
X167070446Y-105424550D01*
X167070448Y-105424552D01*
X167136769Y-105468867D01*
X167195252Y-105480500D01*
X167195254Y-105480500D01*
X169034746Y-105480500D01*
X169034748Y-105480500D01*
X169093231Y-105468867D01*
X169159552Y-105424552D01*
X169203867Y-105358231D01*
X169215500Y-105299748D01*
X169215500Y-104060252D01*
X169203867Y-104001769D01*
X169159552Y-103935448D01*
X169159550Y-103935446D01*
X169104422Y-103898611D01*
X169093231Y-103891133D01*
X169093229Y-103891132D01*
X169093228Y-103891132D01*
X169063788Y-103885276D01*
X169034748Y-103879500D01*
X167195252Y-103879500D01*
X167171988Y-103884127D01*
X167136771Y-103891132D01*
X167136767Y-103891134D01*
X167070449Y-103935446D01*
X167070446Y-103935449D01*
X167026134Y-104001767D01*
X167026132Y-104001771D01*
X167017388Y-104045731D01*
X167014500Y-104060252D01*
X151970500Y-104060252D01*
X151970500Y-101929235D01*
X151973868Y-101921103D01*
X152461103Y-101433868D01*
X152469235Y-101430500D01*
X153618000Y-101430500D01*
X153626132Y-101433868D01*
X153629500Y-101442000D01*
X153629500Y-101549748D01*
X153641133Y-101608231D01*
X153641134Y-101608232D01*
X153684818Y-101673611D01*
X153686535Y-101682244D01*
X153684818Y-101686389D01*
X153641134Y-101751767D01*
X153641132Y-101751771D01*
X153637686Y-101769098D01*
X153632796Y-101776416D01*
X153626407Y-101778354D01*
X153580691Y-101778354D01*
X153466115Y-101809054D01*
X153363387Y-101868364D01*
X153279510Y-101952241D01*
X153220200Y-102054969D01*
X153189500Y-102169545D01*
X153189500Y-102288163D01*
X153220201Y-102402740D01*
X153279511Y-102505467D01*
X153363387Y-102589343D01*
X153466114Y-102648653D01*
X153580691Y-102679354D01*
X153625951Y-102679354D01*
X153634083Y-102682722D01*
X153637230Y-102688610D01*
X153641133Y-102708231D01*
X153641134Y-102708232D01*
X153684818Y-102773611D01*
X153686535Y-102782244D01*
X153684818Y-102786389D01*
X153641134Y-102851767D01*
X153641132Y-102851771D01*
X153637945Y-102867797D01*
X153633055Y-102875115D01*
X153626666Y-102877053D01*
X153580691Y-102877053D01*
X153466115Y-102907753D01*
X153363387Y-102967063D01*
X153279510Y-103050940D01*
X153220200Y-103153668D01*
X153189500Y-103268244D01*
X153189500Y-103386862D01*
X153220201Y-103501439D01*
X153279511Y-103604166D01*
X153363387Y-103688042D01*
X153466114Y-103747352D01*
X153580691Y-103778053D01*
X153625692Y-103778053D01*
X153633824Y-103781421D01*
X153636971Y-103787309D01*
X153641132Y-103808229D01*
X153641133Y-103808231D01*
X153641134Y-103808232D01*
X153685446Y-103874550D01*
X153685449Y-103874553D01*
X153692853Y-103879500D01*
X153751769Y-103918867D01*
X153810252Y-103930500D01*
X153810254Y-103930500D01*
X155649746Y-103930500D01*
X155649748Y-103930500D01*
X155708231Y-103918867D01*
X155774552Y-103874552D01*
X155818867Y-103808231D01*
X155830500Y-103749748D01*
X155830500Y-102910252D01*
X155818867Y-102851769D01*
X155775181Y-102786389D01*
X155773464Y-102777756D01*
X155775181Y-102773611D01*
X155781700Y-102763853D01*
X155818867Y-102708231D01*
X155830500Y-102649748D01*
X155830500Y-101810252D01*
X155818867Y-101751769D01*
X155775181Y-101686389D01*
X155773464Y-101677756D01*
X155775181Y-101673611D01*
X155781700Y-101663853D01*
X155818867Y-101608231D01*
X155830500Y-101549748D01*
X155830500Y-101442000D01*
X155833868Y-101433868D01*
X155842000Y-101430500D01*
X158189562Y-101430500D01*
X158265989Y-101410021D01*
X158334511Y-101370460D01*
X158390460Y-101314511D01*
X164421103Y-95283868D01*
X164429235Y-95280500D01*
X164715500Y-95280500D01*
X164723632Y-95283868D01*
X164727000Y-95292000D01*
X164727000Y-95749748D01*
X164738633Y-95808231D01*
X164738774Y-95808442D01*
X164782946Y-95874550D01*
X164782948Y-95874552D01*
X164849269Y-95918867D01*
X164907752Y-95930500D01*
X169968000Y-95930500D01*
X169976132Y-95933868D01*
X169979500Y-95942000D01*
X169979500Y-115979728D01*
X169979488Y-115980259D01*
X169964089Y-116313299D01*
X169964046Y-116313895D01*
X169956162Y-116393947D01*
X169956107Y-116394409D01*
X169915375Y-116686404D01*
X169915264Y-116687058D01*
X169900590Y-116760837D01*
X169900506Y-116761227D01*
X169831624Y-117054092D01*
X169831434Y-117054797D01*
X169812462Y-117117342D01*
X169812361Y-117117659D01*
X169713416Y-117412871D01*
X169713137Y-117413617D01*
X169694736Y-117458040D01*
X169694631Y-117458284D01*
X169561675Y-117759397D01*
X169561297Y-117760173D01*
X169553500Y-117774761D01*
X169553405Y-117774936D01*
X169380697Y-118085007D01*
X169380137Y-118085910D01*
X169171972Y-118389795D01*
X169171332Y-118390643D01*
X168936008Y-118674033D01*
X168935293Y-118674818D01*
X168674818Y-118935293D01*
X168674033Y-118936008D01*
X168390643Y-119171332D01*
X168389795Y-119171972D01*
X168085910Y-119380137D01*
X168085007Y-119380697D01*
X167774936Y-119553405D01*
X167774761Y-119553500D01*
X167760173Y-119561297D01*
X167759397Y-119561675D01*
X167458284Y-119694631D01*
X167458040Y-119694736D01*
X167413617Y-119713137D01*
X167412871Y-119713416D01*
X167117659Y-119812361D01*
X167117342Y-119812462D01*
X167054797Y-119831434D01*
X167054092Y-119831624D01*
X166761227Y-119900506D01*
X166760837Y-119900590D01*
X166687058Y-119915264D01*
X166686404Y-119915375D01*
X166394409Y-119956107D01*
X166393947Y-119956162D01*
X166313895Y-119964046D01*
X166313299Y-119964089D01*
X165980260Y-119979488D01*
X165979729Y-119979500D01*
X133980271Y-119979500D01*
X133979740Y-119979488D01*
X133646699Y-119964089D01*
X133646103Y-119964046D01*
X133566051Y-119956162D01*
X133565589Y-119956107D01*
X133273594Y-119915375D01*
X133272940Y-119915264D01*
X133199161Y-119900590D01*
X133198771Y-119900506D01*
X132905906Y-119831624D01*
X132905201Y-119831434D01*
X132842656Y-119812462D01*
X132842339Y-119812361D01*
X132547122Y-119713414D01*
X132546387Y-119713139D01*
X132521816Y-119702961D01*
X132501958Y-119694736D01*
X132501714Y-119694631D01*
X132200601Y-119561675D01*
X132199825Y-119561297D01*
X132185237Y-119553500D01*
X132185062Y-119553405D01*
X131874992Y-119380697D01*
X131874089Y-119380137D01*
X131570204Y-119171972D01*
X131569356Y-119171332D01*
X131285966Y-118936008D01*
X131285181Y-118935293D01*
X131024706Y-118674818D01*
X131023991Y-118674033D01*
X130788667Y-118390643D01*
X130788027Y-118389795D01*
X130579862Y-118085910D01*
X130579302Y-118085007D01*
X130492262Y-117928740D01*
X130406542Y-117774844D01*
X130398698Y-117760168D01*
X130398323Y-117759397D01*
X130265323Y-117458182D01*
X130265287Y-117458099D01*
X130246847Y-117413581D01*
X130246596Y-117412910D01*
X130147607Y-117117565D01*
X130147565Y-117117434D01*
X130128560Y-117054782D01*
X130128378Y-117054108D01*
X130059473Y-116761141D01*
X130059428Y-116760932D01*
X130044733Y-116687056D01*
X130044623Y-116686404D01*
X130023264Y-116533285D01*
X130003887Y-116394382D01*
X130003839Y-116393975D01*
X129995951Y-116313889D01*
X129995909Y-116313299D01*
X129980512Y-115980259D01*
X129980500Y-115979728D01*
X129980500Y-114674108D01*
X143639500Y-114674108D01*
X143639500Y-114805892D01*
X143673608Y-114933186D01*
X143739500Y-115047314D01*
X143832686Y-115140500D01*
X143946814Y-115206392D01*
X144074108Y-115240500D01*
X144188000Y-115240500D01*
X144196132Y-115243868D01*
X144199500Y-115252000D01*
X144199500Y-116224748D01*
X144211133Y-116283231D01*
X144211134Y-116283232D01*
X144255446Y-116349550D01*
X144255448Y-116349552D01*
X144321769Y-116393867D01*
X144380252Y-116405500D01*
X144380254Y-116405500D01*
X145419746Y-116405500D01*
X145419748Y-116405500D01*
X145478231Y-116393867D01*
X145544552Y-116349552D01*
X145588867Y-116283231D01*
X145600500Y-116224748D01*
X145600500Y-113675252D01*
X145588867Y-113616769D01*
X145544552Y-113550448D01*
X145544550Y-113550446D01*
X145478232Y-113506134D01*
X145478233Y-113506134D01*
X145478231Y-113506133D01*
X145478229Y-113506132D01*
X145478228Y-113506132D01*
X145448788Y-113500276D01*
X145419748Y-113494500D01*
X144380252Y-113494500D01*
X144356988Y-113499127D01*
X144321771Y-113506132D01*
X144321767Y-113506134D01*
X144255449Y-113550446D01*
X144255446Y-113550449D01*
X144211134Y-113616767D01*
X144211132Y-113616771D01*
X144199500Y-113675253D01*
X144199500Y-114228000D01*
X144196132Y-114236132D01*
X144188000Y-114239500D01*
X144074108Y-114239500D01*
X143946819Y-114273606D01*
X143946809Y-114273610D01*
X143832686Y-114339499D01*
X143739499Y-114432686D01*
X143673610Y-114546809D01*
X143673606Y-114546819D01*
X143647441Y-114644471D01*
X143639500Y-114674108D01*
X129980500Y-114674108D01*
X129980500Y-109660252D01*
X130744500Y-109660252D01*
X130744500Y-110899748D01*
X130756133Y-110958231D01*
X130756134Y-110958232D01*
X130800446Y-111024550D01*
X130800448Y-111024552D01*
X130866769Y-111068867D01*
X130925252Y-111080500D01*
X130925254Y-111080500D01*
X132764746Y-111080500D01*
X132764748Y-111080500D01*
X132823231Y-111068867D01*
X132889552Y-111024552D01*
X132933867Y-110958231D01*
X132945500Y-110899748D01*
X132945500Y-109825683D01*
X136689299Y-109825683D01*
X136689299Y-110174315D01*
X136693485Y-110206115D01*
X136695731Y-110223170D01*
X136695730Y-110223170D01*
X136695731Y-110223172D01*
X136745734Y-110330403D01*
X136829395Y-110414064D01*
X136936626Y-110464067D01*
X136985483Y-110470499D01*
X137139033Y-110470499D01*
X137147165Y-110473867D01*
X137150141Y-110479023D01*
X137170201Y-110553886D01*
X137229511Y-110656613D01*
X137313387Y-110740489D01*
X137416114Y-110799799D01*
X137530691Y-110830500D01*
X137649309Y-110830500D01*
X137763886Y-110799799D01*
X137866613Y-110740489D01*
X137950489Y-110656613D01*
X138009799Y-110553886D01*
X138040500Y-110439309D01*
X138040500Y-110320691D01*
X138009799Y-110206114D01*
X137950489Y-110103387D01*
X137866613Y-110019511D01*
X137866612Y-110019510D01*
X137763885Y-109960200D01*
X137738822Y-109953484D01*
X137731839Y-109948126D01*
X137730299Y-109942376D01*
X137730299Y-109825686D01*
X137730299Y-109825683D01*
X137723867Y-109776826D01*
X137673864Y-109669595D01*
X137590203Y-109585934D01*
X137482972Y-109535931D01*
X137458543Y-109532715D01*
X137434117Y-109529499D01*
X137434115Y-109529499D01*
X136985483Y-109529499D01*
X136985480Y-109529499D01*
X136948840Y-109534323D01*
X136936626Y-109535931D01*
X136829395Y-109585934D01*
X136745734Y-109669595D01*
X136695731Y-109776826D01*
X136689299Y-109825683D01*
X132945500Y-109825683D01*
X132945500Y-109660252D01*
X132933867Y-109601769D01*
X132889552Y-109535448D01*
X132889550Y-109535446D01*
X132823232Y-109491134D01*
X132823233Y-109491134D01*
X132823231Y-109491133D01*
X132823229Y-109491132D01*
X132823228Y-109491132D01*
X132793788Y-109485276D01*
X132764748Y-109479500D01*
X130925252Y-109479500D01*
X130901988Y-109484127D01*
X130866771Y-109491132D01*
X130866767Y-109491134D01*
X130800449Y-109535446D01*
X130800446Y-109535449D01*
X130756134Y-109601767D01*
X130756132Y-109601771D01*
X130747388Y-109645731D01*
X130744500Y-109660252D01*
X129980500Y-109660252D01*
X129980500Y-107920691D01*
X134309500Y-107920691D01*
X134309500Y-108039309D01*
X134340201Y-108153886D01*
X134399511Y-108256613D01*
X134483387Y-108340489D01*
X134586114Y-108399799D01*
X134700691Y-108430500D01*
X134805861Y-108430500D01*
X134812250Y-108432438D01*
X134866769Y-108468867D01*
X134866774Y-108468868D01*
X134867816Y-108469300D01*
X134867617Y-108469778D01*
X134873354Y-108473611D01*
X134875071Y-108482244D01*
X134870181Y-108489562D01*
X134867760Y-108490564D01*
X134867816Y-108490700D01*
X134866767Y-108491134D01*
X134812250Y-108527562D01*
X134805861Y-108529500D01*
X134710691Y-108529500D01*
X134596115Y-108560200D01*
X134493387Y-108619510D01*
X134409510Y-108703387D01*
X134350200Y-108806115D01*
X134320760Y-108915987D01*
X134319500Y-108920691D01*
X134319500Y-109039309D01*
X134350201Y-109153886D01*
X134409511Y-109256613D01*
X134493387Y-109340489D01*
X134596114Y-109399799D01*
X134710691Y-109430500D01*
X134805861Y-109430500D01*
X134812250Y-109432438D01*
X134866769Y-109468867D01*
X134925252Y-109480500D01*
X134925254Y-109480500D01*
X136514746Y-109480500D01*
X136514748Y-109480500D01*
X136573231Y-109468867D01*
X136639552Y-109424552D01*
X136683867Y-109358231D01*
X136695500Y-109299748D01*
X136695500Y-109292000D01*
X136698868Y-109283868D01*
X136707000Y-109280500D01*
X136724462Y-109280500D01*
X136732594Y-109283868D01*
X136734884Y-109287140D01*
X136745732Y-109310402D01*
X136745733Y-109310403D01*
X136745734Y-109310405D01*
X136829395Y-109394066D01*
X136936626Y-109444069D01*
X136985483Y-109450501D01*
X136985487Y-109450501D01*
X137434111Y-109450501D01*
X137434115Y-109450501D01*
X137482972Y-109444069D01*
X137590203Y-109394066D01*
X137673864Y-109310405D01*
X137684713Y-109287141D01*
X137691202Y-109281194D01*
X137695135Y-109280501D01*
X138689561Y-109280501D01*
X138765988Y-109260022D01*
X138834510Y-109220461D01*
X138890459Y-109164512D01*
X138890460Y-109164511D01*
X144175759Y-103879210D01*
X144183890Y-103875843D01*
X144190279Y-103877781D01*
X144216704Y-103895438D01*
X144221594Y-103902757D01*
X144219877Y-103911389D01*
X144216704Y-103914562D01*
X144185449Y-103935446D01*
X144185446Y-103935449D01*
X144141134Y-104001767D01*
X144141132Y-104001771D01*
X144132388Y-104045731D01*
X144129500Y-104060252D01*
X144129500Y-104799748D01*
X144141133Y-104858231D01*
X144141134Y-104858232D01*
X144185446Y-104924550D01*
X144185448Y-104924552D01*
X144251769Y-104968867D01*
X144310252Y-104980500D01*
X145350765Y-104980500D01*
X145358897Y-104983868D01*
X147136132Y-106761103D01*
X147139500Y-106769235D01*
X147139500Y-116793000D01*
X147136132Y-116801132D01*
X147128000Y-116804500D01*
X146920252Y-116804500D01*
X146896988Y-116809127D01*
X146861771Y-116816132D01*
X146861767Y-116816134D01*
X146795449Y-116860446D01*
X146795446Y-116860449D01*
X146751134Y-116926767D01*
X146751132Y-116926771D01*
X146742388Y-116970731D01*
X146739500Y-116985252D01*
X146739500Y-119534748D01*
X146751133Y-119593231D01*
X146751134Y-119593232D01*
X146795446Y-119659550D01*
X146795448Y-119659552D01*
X146861769Y-119703867D01*
X146920252Y-119715500D01*
X146920254Y-119715500D01*
X147959746Y-119715500D01*
X147959748Y-119715500D01*
X148018231Y-119703867D01*
X148084552Y-119659552D01*
X148128867Y-119593231D01*
X148140500Y-119534748D01*
X148140500Y-116985252D01*
X148128867Y-116926769D01*
X148084552Y-116860448D01*
X148084550Y-116860446D01*
X148018232Y-116816134D01*
X148018233Y-116816134D01*
X148018231Y-116816133D01*
X148018229Y-116816132D01*
X148018228Y-116816132D01*
X147988788Y-116810276D01*
X147959748Y-116804500D01*
X147959746Y-116804500D01*
X147752000Y-116804500D01*
X147743868Y-116801132D01*
X147740500Y-116793000D01*
X147740500Y-106600438D01*
X147729479Y-106559308D01*
X147720021Y-106524011D01*
X147680460Y-106455489D01*
X147624511Y-106399540D01*
X146209511Y-104984540D01*
X146206143Y-104976408D01*
X146209511Y-104968276D01*
X146211247Y-104966851D01*
X146274552Y-104924552D01*
X146318867Y-104858231D01*
X146330500Y-104799748D01*
X146330500Y-104060252D01*
X146318867Y-104001769D01*
X146274552Y-103935448D01*
X146274550Y-103935446D01*
X146243294Y-103914562D01*
X146238404Y-103907244D01*
X146240121Y-103898611D01*
X146243294Y-103895438D01*
X146274552Y-103874552D01*
X146318867Y-103808231D01*
X146330500Y-103749748D01*
X146330500Y-102910252D01*
X146318867Y-102851769D01*
X146275181Y-102786389D01*
X146273464Y-102777756D01*
X146275181Y-102773611D01*
X146281700Y-102763853D01*
X146318867Y-102708231D01*
X146330500Y-102649748D01*
X146330500Y-101810252D01*
X146318867Y-101751769D01*
X146275181Y-101686389D01*
X146273464Y-101677756D01*
X146275181Y-101673611D01*
X146281700Y-101663853D01*
X146318867Y-101608231D01*
X146330500Y-101549748D01*
X146330500Y-100710252D01*
X146318867Y-100651769D01*
X146275181Y-100586389D01*
X146273464Y-100577756D01*
X146275181Y-100573611D01*
X146281700Y-100563853D01*
X146318867Y-100508231D01*
X146330500Y-100449748D01*
X146330500Y-99610252D01*
X146318867Y-99551769D01*
X146275181Y-99486389D01*
X146273464Y-99477756D01*
X146275181Y-99473611D01*
X146281700Y-99463853D01*
X146318867Y-99408231D01*
X146330500Y-99349748D01*
X146330500Y-98510252D01*
X146318867Y-98451769D01*
X146274552Y-98385448D01*
X146274550Y-98385446D01*
X146208232Y-98341134D01*
X146208233Y-98341134D01*
X146208231Y-98341133D01*
X146208229Y-98341132D01*
X146208228Y-98341132D01*
X146178788Y-98335276D01*
X146149748Y-98329500D01*
X144310252Y-98329500D01*
X144286988Y-98334127D01*
X144251771Y-98341132D01*
X144251767Y-98341134D01*
X144185449Y-98385446D01*
X144185446Y-98385449D01*
X144141134Y-98451767D01*
X144141132Y-98451771D01*
X144132388Y-98495731D01*
X144129500Y-98510252D01*
X144129500Y-99349748D01*
X144141133Y-99408231D01*
X144141134Y-99408232D01*
X144184818Y-99473611D01*
X144186535Y-99482244D01*
X144184818Y-99486389D01*
X144141134Y-99551767D01*
X144141132Y-99551771D01*
X144132388Y-99595731D01*
X144129500Y-99610252D01*
X144129500Y-100449748D01*
X144141133Y-100508231D01*
X144141134Y-100508232D01*
X144184818Y-100573611D01*
X144186535Y-100582244D01*
X144184818Y-100586389D01*
X144141134Y-100651767D01*
X144141132Y-100651771D01*
X144132388Y-100695731D01*
X144129500Y-100710252D01*
X144129500Y-101549748D01*
X144141133Y-101608231D01*
X144141134Y-101608232D01*
X144184818Y-101673611D01*
X144186535Y-101682244D01*
X144184818Y-101686389D01*
X144141134Y-101751767D01*
X144141132Y-101751771D01*
X144129500Y-101810253D01*
X144129500Y-101918000D01*
X144126132Y-101926132D01*
X144118000Y-101929500D01*
X143370438Y-101929500D01*
X143294017Y-101949976D01*
X143294007Y-101949980D01*
X143225489Y-101989539D01*
X137628233Y-107586795D01*
X137620101Y-107590163D01*
X137611970Y-107586795D01*
X137591109Y-107565934D01*
X137483878Y-107515931D01*
X137456609Y-107512341D01*
X137435023Y-107509499D01*
X137435021Y-107509499D01*
X136986389Y-107509499D01*
X136986386Y-107509499D01*
X136949746Y-107514323D01*
X136937532Y-107515931D01*
X136895676Y-107535449D01*
X136830301Y-107565934D01*
X136746638Y-107649597D01*
X136735791Y-107672859D01*
X136734284Y-107674239D01*
X136733501Y-107676131D01*
X136731165Y-107677098D01*
X136729302Y-107678806D01*
X136725369Y-107679499D01*
X136707000Y-107679499D01*
X136698868Y-107676131D01*
X136695500Y-107667999D01*
X136695500Y-107660253D01*
X136695500Y-107660252D01*
X136683867Y-107601769D01*
X136639552Y-107535448D01*
X136639550Y-107535446D01*
X136573232Y-107491134D01*
X136573233Y-107491134D01*
X136573231Y-107491133D01*
X136573228Y-107491132D01*
X136572184Y-107490700D01*
X136572382Y-107490221D01*
X136566648Y-107486394D01*
X136564927Y-107477762D01*
X136569813Y-107470441D01*
X136572240Y-107469435D01*
X136572184Y-107469300D01*
X136573223Y-107468868D01*
X136573231Y-107468867D01*
X136639552Y-107424552D01*
X136683867Y-107358231D01*
X136691520Y-107319757D01*
X136696410Y-107312439D01*
X136702799Y-107310501D01*
X136761972Y-107310501D01*
X136770104Y-107313869D01*
X136830301Y-107374066D01*
X136937532Y-107424069D01*
X136986389Y-107430501D01*
X136986393Y-107430501D01*
X137435017Y-107430501D01*
X137435021Y-107430501D01*
X137483878Y-107424069D01*
X137591109Y-107374066D01*
X137674770Y-107290405D01*
X137724773Y-107183174D01*
X137731205Y-107134317D01*
X137731205Y-106785685D01*
X137724773Y-106736828D01*
X137674770Y-106629597D01*
X137653355Y-106608182D01*
X137649987Y-106600050D01*
X137650377Y-106597080D01*
X137660500Y-106559309D01*
X137660500Y-106440691D01*
X137629799Y-106326114D01*
X137570489Y-106223387D01*
X137486613Y-106139511D01*
X137486612Y-106139510D01*
X137383884Y-106080200D01*
X137383885Y-106080200D01*
X137269309Y-106049500D01*
X137150691Y-106049500D01*
X137036115Y-106080200D01*
X136933387Y-106139510D01*
X136849510Y-106223387D01*
X136790200Y-106326115D01*
X136759500Y-106440691D01*
X136759500Y-106559308D01*
X136769070Y-106595025D01*
X136767921Y-106603751D01*
X136760938Y-106609109D01*
X136757962Y-106609501D01*
X136694754Y-106609501D01*
X136686622Y-106606133D01*
X136684131Y-106602405D01*
X136683868Y-106601772D01*
X136683867Y-106601771D01*
X136683867Y-106601769D01*
X136639552Y-106535448D01*
X136639550Y-106535446D01*
X136573232Y-106491134D01*
X136573233Y-106491134D01*
X136573231Y-106491133D01*
X136573229Y-106491132D01*
X136573228Y-106491132D01*
X136543788Y-106485276D01*
X136514748Y-106479500D01*
X134925252Y-106479500D01*
X134901988Y-106484127D01*
X134866771Y-106491132D01*
X134866767Y-106491134D01*
X134800449Y-106535446D01*
X134800446Y-106535449D01*
X134756134Y-106601767D01*
X134756132Y-106601771D01*
X134747388Y-106645731D01*
X134744500Y-106660252D01*
X134744500Y-107299748D01*
X134756133Y-107358231D01*
X134756134Y-107358232D01*
X134800446Y-107424550D01*
X134800449Y-107424553D01*
X134809351Y-107430501D01*
X134866769Y-107468867D01*
X134866774Y-107468868D01*
X134867816Y-107469300D01*
X134867617Y-107469778D01*
X134873354Y-107473611D01*
X134875071Y-107482244D01*
X134870181Y-107489562D01*
X134867760Y-107490564D01*
X134867816Y-107490700D01*
X134866767Y-107491134D01*
X134812250Y-107527562D01*
X134805861Y-107529500D01*
X134700691Y-107529500D01*
X134586115Y-107560200D01*
X134483387Y-107619510D01*
X134399510Y-107703387D01*
X134340200Y-107806115D01*
X134311603Y-107912843D01*
X134309500Y-107920691D01*
X129980500Y-107920691D01*
X129980500Y-104060252D01*
X130744500Y-104060252D01*
X130744500Y-105299748D01*
X130756133Y-105358231D01*
X130756134Y-105358232D01*
X130800446Y-105424550D01*
X130800448Y-105424552D01*
X130866769Y-105468867D01*
X130925252Y-105480500D01*
X130925254Y-105480500D01*
X132764746Y-105480500D01*
X132764748Y-105480500D01*
X132823231Y-105468867D01*
X132889552Y-105424552D01*
X132933867Y-105358231D01*
X132945500Y-105299748D01*
X132945500Y-104060252D01*
X132933867Y-104001769D01*
X132889552Y-103935448D01*
X132889550Y-103935446D01*
X132834422Y-103898611D01*
X132823231Y-103891133D01*
X132823229Y-103891132D01*
X132823228Y-103891132D01*
X132793788Y-103885276D01*
X132764748Y-103879500D01*
X130925252Y-103879500D01*
X130901988Y-103884127D01*
X130866771Y-103891132D01*
X130866767Y-103891134D01*
X130800449Y-103935446D01*
X130800446Y-103935449D01*
X130756134Y-104001767D01*
X130756132Y-104001771D01*
X130747388Y-104045731D01*
X130744500Y-104060252D01*
X129980500Y-104060252D01*
X129980500Y-95850299D01*
X129983868Y-95842167D01*
X129992000Y-95838799D01*
X135053217Y-95838799D01*
X135053218Y-95838799D01*
X135084952Y-95832488D01*
X135120941Y-95808441D01*
X135144988Y-95772452D01*
X135151300Y-95740719D01*
X135151300Y-95200300D01*
X135154668Y-95192168D01*
X135162800Y-95188800D01*
X138198748Y-95188800D01*
X138206880Y-95192168D01*
X139862987Y-96848274D01*
X139862988Y-96848276D01*
X139921724Y-96907012D01*
X139998467Y-96938800D01*
X139998468Y-96938800D01*
X140081533Y-96938800D01*
X144209701Y-96938800D01*
X144217833Y-96942168D01*
X144221201Y-96950300D01*
X144221201Y-97140718D01*
X144227512Y-97172452D01*
X144227513Y-97172453D01*
X144251557Y-97208439D01*
X144251559Y-97208441D01*
X144287548Y-97232488D01*
X144319281Y-97238800D01*
X146140718Y-97238799D01*
X146172452Y-97232488D01*
X146208441Y-97208441D01*
X146232488Y-97172452D01*
X146238800Y-97140719D01*
X146238799Y-96319282D01*
X146232488Y-96287548D01*
X146208583Y-96251771D01*
X146208442Y-96251560D01*
X146208439Y-96251557D01*
X146172453Y-96227513D01*
X146172454Y-96227513D01*
X146172452Y-96227512D01*
X146172449Y-96227511D01*
X146172448Y-96227511D01*
X146156368Y-96224312D01*
X146140719Y-96221200D01*
X146140718Y-96221200D01*
X144319282Y-96221200D01*
X144287551Y-96227511D01*
X144287546Y-96227513D01*
X144251560Y-96251557D01*
X144251557Y-96251560D01*
X144227513Y-96287546D01*
X144227511Y-96287551D01*
X144221200Y-96319281D01*
X144221200Y-96509700D01*
X144217832Y-96517832D01*
X144209700Y-96521200D01*
X140131251Y-96521200D01*
X140123119Y-96517832D01*
X138408277Y-94802989D01*
X138408276Y-94802988D01*
X138331533Y-94771200D01*
X138331531Y-94771200D01*
X135162799Y-94771200D01*
X135154667Y-94767832D01*
X135151299Y-94759700D01*
X135151299Y-94219282D01*
X135149503Y-94210252D01*
X135144988Y-94187548D01*
X135121083Y-94151771D01*
X135120942Y-94151560D01*
X135120939Y-94151557D01*
X135084953Y-94127513D01*
X135084954Y-94127513D01*
X135084952Y-94127512D01*
X135084949Y-94127511D01*
X135084948Y-94127511D01*
X135068868Y-94124312D01*
X135053219Y-94121200D01*
X135053218Y-94121200D01*
X129992000Y-94121200D01*
X129983868Y-94117832D01*
X129980500Y-94109700D01*
X129980500Y-86938737D01*
X137212700Y-86938737D01*
X137212700Y-87298537D01*
X137212701Y-87298541D01*
X137219228Y-87348128D01*
X137269976Y-87456957D01*
X137285527Y-87472508D01*
X137298940Y-87485921D01*
X137302308Y-87494053D01*
X137301916Y-87497029D01*
X137287272Y-87551684D01*
X137279500Y-87580691D01*
X137279500Y-87699309D01*
X137284011Y-87716143D01*
X137307895Y-87805282D01*
X137310201Y-87813886D01*
X137369511Y-87916613D01*
X137453387Y-88000489D01*
X137556114Y-88059799D01*
X137670691Y-88090500D01*
X137789309Y-88090500D01*
X137903886Y-88059799D01*
X138006613Y-88000489D01*
X138090489Y-87916613D01*
X138149799Y-87813886D01*
X138180500Y-87699309D01*
X138180500Y-87580691D01*
X138155208Y-87486302D01*
X138155411Y-87484762D01*
X138154816Y-87483325D01*
X138155965Y-87480551D01*
X138156357Y-87477577D01*
X138158186Y-87475194D01*
X138160873Y-87472508D01*
X138169003Y-87469141D01*
X138758103Y-87469141D01*
X138847247Y-87445255D01*
X138927171Y-87399111D01*
X139082414Y-87243868D01*
X139090546Y-87240500D01*
X139160346Y-87240500D01*
X139160348Y-87240500D01*
X139218831Y-87228867D01*
X139285152Y-87184552D01*
X139329467Y-87118231D01*
X139341100Y-87059748D01*
X139341100Y-86720252D01*
X139329467Y-86661769D01*
X139285152Y-86595448D01*
X139285150Y-86595446D01*
X139240938Y-86565904D01*
X139218831Y-86551133D01*
X139218829Y-86551132D01*
X139218828Y-86551132D01*
X139189388Y-86545276D01*
X139160348Y-86539500D01*
X138720852Y-86539500D01*
X138697588Y-86544127D01*
X138662371Y-86551132D01*
X138662367Y-86551134D01*
X138596049Y-86595446D01*
X138596046Y-86595449D01*
X138551734Y-86661767D01*
X138551732Y-86661771D01*
X138547416Y-86683470D01*
X138540824Y-86716615D01*
X138540100Y-86720253D01*
X138540100Y-86756641D01*
X138536732Y-86764773D01*
X138528600Y-86768141D01*
X138169004Y-86768141D01*
X138160872Y-86764773D01*
X138136600Y-86740501D01*
X138091516Y-86695417D01*
X137982687Y-86644669D01*
X137933101Y-86638141D01*
X137933100Y-86638141D01*
X137513303Y-86638141D01*
X137513297Y-86638142D01*
X137482136Y-86642244D01*
X137463713Y-86644669D01*
X137365426Y-86690501D01*
X137354884Y-86695417D01*
X137269976Y-86780325D01*
X137219228Y-86889155D01*
X137212700Y-86938737D01*
X129980500Y-86938737D01*
X129980500Y-85454108D01*
X138059500Y-85454108D01*
X138059500Y-85585892D01*
X138070277Y-85626114D01*
X138093606Y-85713180D01*
X138093610Y-85713190D01*
X138158817Y-85826132D01*
X138159500Y-85827314D01*
X138252686Y-85920500D01*
X138366814Y-85986392D01*
X138494108Y-86020500D01*
X138528600Y-86020500D01*
X138536732Y-86023868D01*
X138540100Y-86032000D01*
X138540100Y-86059750D01*
X138551733Y-86118233D01*
X138551734Y-86118234D01*
X138596046Y-86184552D01*
X138596048Y-86184554D01*
X138662369Y-86228869D01*
X138720852Y-86240502D01*
X138720854Y-86240502D01*
X139160346Y-86240502D01*
X139160348Y-86240502D01*
X139218831Y-86228869D01*
X139285152Y-86184554D01*
X139329467Y-86118233D01*
X139341100Y-86059750D01*
X139341100Y-85720254D01*
X139789500Y-85720254D01*
X139789500Y-86059750D01*
X139801133Y-86118233D01*
X139801134Y-86118234D01*
X139811409Y-86133612D01*
X139813126Y-86142245D01*
X139811409Y-86146390D01*
X139801134Y-86161768D01*
X139801132Y-86161772D01*
X139789500Y-86220254D01*
X139789500Y-86559747D01*
X139796600Y-86595446D01*
X139801133Y-86618232D01*
X139801134Y-86618233D01*
X139811409Y-86633611D01*
X139813126Y-86642244D01*
X139811409Y-86646389D01*
X139801134Y-86661767D01*
X139801132Y-86661771D01*
X139796816Y-86683470D01*
X139789500Y-86720252D01*
X139789500Y-87059748D01*
X139801133Y-87118231D01*
X139801134Y-87118232D01*
X139845446Y-87184550D01*
X139845448Y-87184552D01*
X139911769Y-87228867D01*
X139970252Y-87240500D01*
X140040054Y-87240500D01*
X140048186Y-87243868D01*
X140211965Y-87407647D01*
X140215333Y-87415779D01*
X140211965Y-87423911D01*
X140208693Y-87426201D01*
X140121686Y-87466774D01*
X140121684Y-87466776D01*
X140036776Y-87551684D01*
X139989036Y-87654064D01*
X139986028Y-87660514D01*
X139979500Y-87710096D01*
X139979500Y-88129896D01*
X139979501Y-88129900D01*
X139986028Y-88179487D01*
X140036776Y-88288316D01*
X140121684Y-88373224D01*
X140230513Y-88423972D01*
X140280099Y-88430500D01*
X140639900Y-88430499D01*
X140689487Y-88423972D01*
X140798316Y-88373224D01*
X140883224Y-88288316D01*
X140933972Y-88179487D01*
X140940500Y-88129901D01*
X140940499Y-87939944D01*
X140943867Y-87931813D01*
X140959068Y-87916612D01*
X140990469Y-87885212D01*
X141036614Y-87805288D01*
X141044652Y-87775288D01*
X141060500Y-87716144D01*
X141060500Y-87686525D01*
X141063868Y-87678393D01*
X141072000Y-87675025D01*
X141076860Y-87676103D01*
X141136822Y-87704065D01*
X141136823Y-87704065D01*
X141136827Y-87704067D01*
X141185684Y-87710499D01*
X141185688Y-87710499D01*
X141634312Y-87710499D01*
X141634316Y-87710499D01*
X141683173Y-87704067D01*
X141790404Y-87654064D01*
X141874065Y-87570403D01*
X141924068Y-87463172D01*
X141930500Y-87414315D01*
X141930500Y-87065683D01*
X141924068Y-87016826D01*
X141874065Y-86909595D01*
X141790404Y-86825934D01*
X141683173Y-86775931D01*
X141658744Y-86772715D01*
X141634318Y-86769499D01*
X141634316Y-86769499D01*
X141185684Y-86769499D01*
X141185681Y-86769499D01*
X141149041Y-86774323D01*
X141136827Y-86775931D01*
X141098915Y-86793610D01*
X141029594Y-86825935D01*
X141010058Y-86845469D01*
X141001926Y-86848837D01*
X140996177Y-86847296D01*
X140903190Y-86793610D01*
X140903188Y-86793609D01*
X140903186Y-86793608D01*
X140903182Y-86793607D01*
X140903180Y-86793606D01*
X140789361Y-86763109D01*
X140782378Y-86757751D01*
X140781229Y-86749025D01*
X140786587Y-86742042D01*
X140792337Y-86740501D01*
X141286144Y-86740501D01*
X141375288Y-86716615D01*
X141417850Y-86692042D01*
X141423600Y-86690501D01*
X141634312Y-86690501D01*
X141634316Y-86690501D01*
X141683173Y-86684069D01*
X141790404Y-86634066D01*
X141850601Y-86573869D01*
X141858733Y-86570501D01*
X141901865Y-86570501D01*
X141909997Y-86573869D01*
X141969596Y-86633468D01*
X142076827Y-86683471D01*
X142125684Y-86689903D01*
X142125688Y-86689903D01*
X142574312Y-86689903D01*
X142574316Y-86689903D01*
X142623173Y-86683471D01*
X142730404Y-86633468D01*
X142814065Y-86549807D01*
X142864068Y-86442576D01*
X142870500Y-86393719D01*
X142870500Y-86045087D01*
X142865914Y-86010252D01*
X144029500Y-86010252D01*
X144029500Y-89199748D01*
X144035276Y-89228788D01*
X144041132Y-89258228D01*
X144041132Y-89258229D01*
X144041133Y-89258231D01*
X144055904Y-89280338D01*
X144085446Y-89324550D01*
X144085449Y-89324553D01*
X144107555Y-89339323D01*
X144151769Y-89368867D01*
X144210252Y-89380500D01*
X144210254Y-89380500D01*
X145249746Y-89380500D01*
X145249748Y-89380500D01*
X145308231Y-89368867D01*
X145374552Y-89324552D01*
X145418867Y-89258231D01*
X145430500Y-89199748D01*
X145430500Y-86010252D01*
X146569500Y-86010252D01*
X146569500Y-89199748D01*
X146575276Y-89228788D01*
X146581132Y-89258228D01*
X146581132Y-89258229D01*
X146581133Y-89258231D01*
X146595904Y-89280338D01*
X146625446Y-89324550D01*
X146625449Y-89324553D01*
X146647555Y-89339323D01*
X146691769Y-89368867D01*
X146750252Y-89380500D01*
X146750254Y-89380500D01*
X147789746Y-89380500D01*
X147789748Y-89380500D01*
X147848231Y-89368867D01*
X147914552Y-89324552D01*
X147958867Y-89258231D01*
X147970500Y-89199748D01*
X147970500Y-86010253D01*
X149109500Y-86010253D01*
X149109500Y-89199749D01*
X149121133Y-89258232D01*
X149121134Y-89258233D01*
X149165446Y-89324551D01*
X149165447Y-89324552D01*
X149165448Y-89324553D01*
X149231769Y-89368868D01*
X149290252Y-89380501D01*
X149290254Y-89380501D01*
X150329746Y-89380501D01*
X150329748Y-89380501D01*
X150388231Y-89368868D01*
X150454552Y-89324553D01*
X150498867Y-89258232D01*
X150510500Y-89199749D01*
X150510500Y-86010253D01*
X150510500Y-86010252D01*
X151649500Y-86010252D01*
X151649500Y-89199748D01*
X151655276Y-89228788D01*
X151661132Y-89258228D01*
X151661132Y-89258229D01*
X151661133Y-89258231D01*
X151675904Y-89280338D01*
X151705446Y-89324550D01*
X151705449Y-89324553D01*
X151727555Y-89339323D01*
X151771769Y-89368867D01*
X151830252Y-89380500D01*
X151830254Y-89380500D01*
X152869746Y-89380500D01*
X152869748Y-89380500D01*
X152928231Y-89368867D01*
X152994552Y-89324552D01*
X153038867Y-89258231D01*
X153050500Y-89199748D01*
X153050500Y-86010252D01*
X154189500Y-86010252D01*
X154189500Y-89199748D01*
X154195276Y-89228788D01*
X154201132Y-89258228D01*
X154201132Y-89258229D01*
X154201133Y-89258231D01*
X154215904Y-89280338D01*
X154245446Y-89324550D01*
X154245449Y-89324553D01*
X154267555Y-89339323D01*
X154311769Y-89368867D01*
X154370252Y-89380500D01*
X154438000Y-89380500D01*
X154446132Y-89383868D01*
X154449500Y-89392000D01*
X154449500Y-89429309D01*
X154480201Y-89543886D01*
X154539511Y-89646613D01*
X154623387Y-89730489D01*
X154726114Y-89789799D01*
X154840691Y-89820500D01*
X154959309Y-89820500D01*
X155073886Y-89789799D01*
X155176613Y-89730489D01*
X155260489Y-89646613D01*
X155319799Y-89543886D01*
X155350500Y-89429309D01*
X155350500Y-89392000D01*
X155353868Y-89383868D01*
X155362000Y-89380500D01*
X155409746Y-89380500D01*
X155409748Y-89380500D01*
X155468231Y-89368867D01*
X155534552Y-89324552D01*
X155578867Y-89258231D01*
X155590500Y-89199748D01*
X155590500Y-86010252D01*
X155578867Y-85951769D01*
X155547759Y-85905213D01*
X155534553Y-85885449D01*
X155534550Y-85885446D01*
X155490338Y-85855904D01*
X155468231Y-85841133D01*
X155468229Y-85841132D01*
X155468228Y-85841132D01*
X155438788Y-85835276D01*
X155409748Y-85829500D01*
X154370252Y-85829500D01*
X154346988Y-85834127D01*
X154311771Y-85841132D01*
X154311767Y-85841134D01*
X154245449Y-85885446D01*
X154245446Y-85885449D01*
X154201134Y-85951767D01*
X154201132Y-85951771D01*
X154201132Y-85951772D01*
X154189500Y-86010252D01*
X153050500Y-86010252D01*
X153038867Y-85951769D01*
X153007759Y-85905213D01*
X152994553Y-85885449D01*
X152994550Y-85885446D01*
X152950338Y-85855904D01*
X152928231Y-85841133D01*
X152928229Y-85841132D01*
X152928228Y-85841132D01*
X152898788Y-85835276D01*
X152869748Y-85829500D01*
X151830252Y-85829500D01*
X151806988Y-85834127D01*
X151771771Y-85841132D01*
X151771767Y-85841134D01*
X151705449Y-85885446D01*
X151705446Y-85885449D01*
X151661134Y-85951767D01*
X151661132Y-85951771D01*
X151661132Y-85951772D01*
X151649500Y-86010252D01*
X150510500Y-86010252D01*
X150498867Y-85951770D01*
X150454552Y-85885449D01*
X150454551Y-85885448D01*
X150454550Y-85885447D01*
X150388232Y-85841135D01*
X150388233Y-85841135D01*
X150388231Y-85841134D01*
X150388229Y-85841133D01*
X150388228Y-85841133D01*
X150358788Y-85835277D01*
X150329748Y-85829501D01*
X149290252Y-85829501D01*
X149266988Y-85834128D01*
X149231771Y-85841133D01*
X149231767Y-85841135D01*
X149165449Y-85885447D01*
X149165446Y-85885450D01*
X149121134Y-85951768D01*
X149121132Y-85951772D01*
X149114247Y-85986389D01*
X149109500Y-86010253D01*
X147970500Y-86010253D01*
X147970500Y-86010252D01*
X147958867Y-85951769D01*
X147927759Y-85905213D01*
X147914553Y-85885449D01*
X147914550Y-85885446D01*
X147870338Y-85855904D01*
X147848231Y-85841133D01*
X147848229Y-85841132D01*
X147848228Y-85841132D01*
X147818788Y-85835276D01*
X147789748Y-85829500D01*
X146750252Y-85829500D01*
X146726988Y-85834127D01*
X146691771Y-85841132D01*
X146691767Y-85841134D01*
X146625449Y-85885446D01*
X146625446Y-85885449D01*
X146581134Y-85951767D01*
X146581132Y-85951771D01*
X146581132Y-85951772D01*
X146569500Y-86010252D01*
X145430500Y-86010252D01*
X145418867Y-85951769D01*
X145387759Y-85905213D01*
X145374553Y-85885449D01*
X145374550Y-85885446D01*
X145330338Y-85855904D01*
X145308231Y-85841133D01*
X145308229Y-85841132D01*
X145308228Y-85841132D01*
X145278788Y-85835276D01*
X145249748Y-85829500D01*
X145249746Y-85829500D01*
X145182000Y-85829500D01*
X145173868Y-85826132D01*
X145170500Y-85818000D01*
X145170500Y-85740691D01*
X145139799Y-85626115D01*
X145139799Y-85626114D01*
X145080489Y-85523387D01*
X144996613Y-85439511D01*
X144996612Y-85439510D01*
X144893884Y-85380200D01*
X144893885Y-85380200D01*
X144779309Y-85349500D01*
X144660691Y-85349500D01*
X144546115Y-85380200D01*
X144443387Y-85439510D01*
X144359510Y-85523387D01*
X144300200Y-85626115D01*
X144269500Y-85740691D01*
X144269500Y-85818000D01*
X144266132Y-85826132D01*
X144258000Y-85829500D01*
X144210252Y-85829500D01*
X144186988Y-85834127D01*
X144151771Y-85841132D01*
X144151767Y-85841134D01*
X144085449Y-85885446D01*
X144085446Y-85885449D01*
X144041134Y-85951767D01*
X144041132Y-85951771D01*
X144041132Y-85951772D01*
X144029500Y-86010252D01*
X142865914Y-86010252D01*
X142864068Y-85996230D01*
X142814065Y-85888999D01*
X142730404Y-85805338D01*
X142623173Y-85755335D01*
X142598744Y-85752119D01*
X142574318Y-85748903D01*
X142574316Y-85748903D01*
X142125684Y-85748903D01*
X142125681Y-85748903D01*
X142089041Y-85753727D01*
X142076827Y-85755335D01*
X141969596Y-85805338D01*
X141908801Y-85866133D01*
X141900669Y-85869501D01*
X141858733Y-85869501D01*
X141850601Y-85866133D01*
X141825600Y-85841132D01*
X141790404Y-85805936D01*
X141683173Y-85755933D01*
X141658744Y-85752717D01*
X141634318Y-85749501D01*
X141634316Y-85749501D01*
X141185684Y-85749501D01*
X141185681Y-85749501D01*
X141149041Y-85754325D01*
X141136827Y-85755933D01*
X141029596Y-85805936D01*
X140945935Y-85889597D01*
X140896211Y-85996231D01*
X140895932Y-85996829D01*
X140891630Y-86029502D01*
X140887229Y-86037125D01*
X140880228Y-86039501D01*
X140602000Y-86039501D01*
X140593868Y-86036133D01*
X140590500Y-86028001D01*
X140590500Y-85989948D01*
X140593868Y-85981816D01*
X140623917Y-85951767D01*
X140670470Y-85905214D01*
X140716614Y-85825290D01*
X140735525Y-85754714D01*
X140740500Y-85736146D01*
X140740500Y-85305803D01*
X140743867Y-85297672D01*
X140813224Y-85228316D01*
X140863972Y-85119487D01*
X140870500Y-85069901D01*
X140870499Y-84650100D01*
X140863972Y-84600513D01*
X140813224Y-84491684D01*
X140728316Y-84406776D01*
X140619487Y-84356028D01*
X140569901Y-84349500D01*
X140569900Y-84349500D01*
X140210103Y-84349500D01*
X140210097Y-84349501D01*
X140172909Y-84354396D01*
X140160513Y-84356028D01*
X140051684Y-84406776D01*
X139966776Y-84491684D01*
X139917848Y-84596612D01*
X139916028Y-84600514D01*
X139909500Y-84650096D01*
X139909500Y-85069896D01*
X139909501Y-85069900D01*
X139916028Y-85119487D01*
X139966776Y-85228316D01*
X140036132Y-85297672D01*
X140039500Y-85305803D01*
X140039500Y-85528002D01*
X140036132Y-85536134D01*
X140028000Y-85539502D01*
X139970252Y-85539502D01*
X139946988Y-85544129D01*
X139911771Y-85551134D01*
X139911767Y-85551136D01*
X139845449Y-85595448D01*
X139845446Y-85595451D01*
X139801134Y-85661769D01*
X139801132Y-85661773D01*
X139792388Y-85705733D01*
X139789500Y-85720254D01*
X139341100Y-85720254D01*
X139329467Y-85661771D01*
X139285152Y-85595450D01*
X139285150Y-85595448D01*
X139218832Y-85551136D01*
X139218833Y-85551136D01*
X139218831Y-85551135D01*
X139218829Y-85551134D01*
X139218828Y-85551134D01*
X139189388Y-85545278D01*
X139160348Y-85539502D01*
X139160346Y-85539502D01*
X139090546Y-85539502D01*
X139082414Y-85536134D01*
X139063868Y-85517588D01*
X139060500Y-85509456D01*
X139060500Y-85454108D01*
X139056589Y-85439511D01*
X139026392Y-85326814D01*
X138960500Y-85212686D01*
X138867314Y-85119500D01*
X138867313Y-85119499D01*
X138753190Y-85053610D01*
X138753188Y-85053609D01*
X138753186Y-85053608D01*
X138753182Y-85053607D01*
X138753180Y-85053606D01*
X138625892Y-85019500D01*
X138494108Y-85019500D01*
X138366819Y-85053606D01*
X138366809Y-85053610D01*
X138252686Y-85119499D01*
X138159499Y-85212686D01*
X138093610Y-85326809D01*
X138093606Y-85326819D01*
X138087529Y-85349500D01*
X138059500Y-85454108D01*
X129980500Y-85454108D01*
X129980500Y-83980271D01*
X129980512Y-83979740D01*
X129995909Y-83646699D01*
X129995952Y-83646103D01*
X130003840Y-83566012D01*
X130003885Y-83565631D01*
X130044625Y-83273580D01*
X130044734Y-83272940D01*
X130059433Y-83199041D01*
X130059465Y-83198893D01*
X130128382Y-82905875D01*
X130128555Y-82905233D01*
X130147578Y-82842523D01*
X130147591Y-82842482D01*
X130246603Y-82547068D01*
X130246839Y-82546437D01*
X130265292Y-82501886D01*
X130398336Y-82200573D01*
X130398687Y-82199852D01*
X130406538Y-82185163D01*
X130579306Y-81874984D01*
X130579857Y-81874096D01*
X130788036Y-81570190D01*
X130788657Y-81569368D01*
X131024000Y-81285955D01*
X131024695Y-81285192D01*
X131285192Y-81024695D01*
X131285955Y-81024000D01*
X131362724Y-80960252D01*
X144029500Y-80960252D01*
X144029500Y-84149748D01*
X144041133Y-84208231D01*
X144041134Y-84208232D01*
X144085446Y-84274550D01*
X144085448Y-84274552D01*
X144151769Y-84318867D01*
X144210252Y-84330500D01*
X144210254Y-84330500D01*
X145249746Y-84330500D01*
X145249748Y-84330500D01*
X145308231Y-84318867D01*
X145374552Y-84274552D01*
X145418867Y-84208231D01*
X145430500Y-84149748D01*
X145430500Y-80960252D01*
X146569500Y-80960252D01*
X146569500Y-84149748D01*
X146581133Y-84208231D01*
X146581134Y-84208232D01*
X146625446Y-84274550D01*
X146625448Y-84274552D01*
X146691769Y-84318867D01*
X146750252Y-84330500D01*
X146750254Y-84330500D01*
X147789746Y-84330500D01*
X147789748Y-84330500D01*
X147848231Y-84318867D01*
X147914552Y-84274552D01*
X147958867Y-84208231D01*
X147970500Y-84149748D01*
X147970500Y-80960252D01*
X151649500Y-80960252D01*
X151649500Y-84149748D01*
X151661133Y-84208231D01*
X151661134Y-84208232D01*
X151705446Y-84274550D01*
X151705448Y-84274552D01*
X151771769Y-84318867D01*
X151830252Y-84330500D01*
X151898000Y-84330500D01*
X151906132Y-84333868D01*
X151909500Y-84342000D01*
X151909500Y-84379309D01*
X151940201Y-84493886D01*
X151999511Y-84596613D01*
X152083387Y-84680489D01*
X152186114Y-84739799D01*
X152300691Y-84770500D01*
X152419309Y-84770500D01*
X152533886Y-84739799D01*
X152636613Y-84680489D01*
X152720489Y-84596613D01*
X152779799Y-84493886D01*
X152810500Y-84379309D01*
X152810500Y-84342000D01*
X152813868Y-84333868D01*
X152822000Y-84330500D01*
X152869746Y-84330500D01*
X152869748Y-84330500D01*
X152928231Y-84318867D01*
X152994552Y-84274552D01*
X153038867Y-84208231D01*
X153050500Y-84149748D01*
X153050500Y-80960252D01*
X154189500Y-80960252D01*
X154189500Y-84149748D01*
X154201133Y-84208231D01*
X154201134Y-84208232D01*
X154245446Y-84274550D01*
X154245448Y-84274552D01*
X154311769Y-84318867D01*
X154370252Y-84330500D01*
X154370254Y-84330500D01*
X155409746Y-84330500D01*
X155409748Y-84330500D01*
X155468231Y-84318867D01*
X155534552Y-84274552D01*
X155578867Y-84208231D01*
X155590500Y-84149748D01*
X155590500Y-80960252D01*
X155578867Y-80901769D01*
X155534552Y-80835448D01*
X155534550Y-80835446D01*
X155468232Y-80791134D01*
X155468233Y-80791134D01*
X155468231Y-80791133D01*
X155468229Y-80791132D01*
X155468228Y-80791132D01*
X155438788Y-80785276D01*
X155409748Y-80779500D01*
X154370252Y-80779500D01*
X154346988Y-80784127D01*
X154311771Y-80791132D01*
X154311767Y-80791134D01*
X154245449Y-80835446D01*
X154245446Y-80835449D01*
X154201134Y-80901767D01*
X154201132Y-80901771D01*
X154192388Y-80945731D01*
X154189500Y-80960252D01*
X153050500Y-80960252D01*
X153038867Y-80901769D01*
X152994552Y-80835448D01*
X152994550Y-80835446D01*
X152928232Y-80791134D01*
X152928233Y-80791134D01*
X152928231Y-80791133D01*
X152928229Y-80791132D01*
X152928228Y-80791132D01*
X152898788Y-80785276D01*
X152869748Y-80779500D01*
X151830252Y-80779500D01*
X151806988Y-80784127D01*
X151771771Y-80791132D01*
X151771767Y-80791134D01*
X151705449Y-80835446D01*
X151705446Y-80835449D01*
X151661134Y-80901767D01*
X151661132Y-80901771D01*
X151652388Y-80945731D01*
X151649500Y-80960252D01*
X147970500Y-80960252D01*
X147958867Y-80901769D01*
X147914552Y-80835448D01*
X147914550Y-80835446D01*
X147848232Y-80791134D01*
X147848233Y-80791134D01*
X147848231Y-80791133D01*
X147848229Y-80791132D01*
X147848228Y-80791132D01*
X147818788Y-80785276D01*
X147789748Y-80779500D01*
X146750252Y-80779500D01*
X146726988Y-80784127D01*
X146691771Y-80791132D01*
X146691767Y-80791134D01*
X146625449Y-80835446D01*
X146625446Y-80835449D01*
X146581134Y-80901767D01*
X146581132Y-80901771D01*
X146572388Y-80945731D01*
X146569500Y-80960252D01*
X145430500Y-80960252D01*
X145418867Y-80901769D01*
X145374552Y-80835448D01*
X145374550Y-80835446D01*
X145308232Y-80791134D01*
X145308233Y-80791134D01*
X145308231Y-80791133D01*
X145308229Y-80791132D01*
X145308228Y-80791132D01*
X145278788Y-80785276D01*
X145249748Y-80779500D01*
X144210252Y-80779500D01*
X144186988Y-80784127D01*
X144151771Y-80791132D01*
X144151767Y-80791134D01*
X144085449Y-80835446D01*
X144085446Y-80835449D01*
X144041134Y-80901767D01*
X144041132Y-80901771D01*
X144032388Y-80945731D01*
X144029500Y-80960252D01*
X131362724Y-80960252D01*
X131569368Y-80788657D01*
X131570190Y-80788036D01*
X131874096Y-80579857D01*
X131874984Y-80579306D01*
X132185163Y-80406538D01*
X132199852Y-80398687D01*
X132200573Y-80398336D01*
X132501886Y-80265292D01*
X132546437Y-80246839D01*
X132547068Y-80246603D01*
X132842482Y-80147591D01*
X132842523Y-80147578D01*
X132905233Y-80128555D01*
X132905875Y-80128382D01*
X133198893Y-80059465D01*
X133199041Y-80059433D01*
X133272955Y-80044731D01*
X133273579Y-80044625D01*
X133565631Y-80003885D01*
X133566012Y-80003840D01*
X133646116Y-79995951D01*
X133646687Y-79995909D01*
X133979740Y-79980511D01*
X133980271Y-79980500D01*
X133980500Y-79980500D01*
X165979500Y-79980500D01*
X165979729Y-79980500D01*
X165980259Y-79980511D01*
G37*
%TD.AperFunction*%
%TD*%
%TA.AperFunction,NonConductor*%
G36*
X140635795Y-86743869D02*
G01*
X140639163Y-86752001D01*
X140635795Y-86760133D01*
X140630639Y-86763109D01*
X140604976Y-86769985D01*
X140603436Y-86769782D01*
X140602000Y-86770377D01*
X140599225Y-86769227D01*
X140596250Y-86768836D01*
X140595304Y-86767604D01*
X140593868Y-86767009D01*
X140592718Y-86764233D01*
X140590892Y-86761853D01*
X140590500Y-86758877D01*
X140590500Y-86752001D01*
X140593868Y-86743869D01*
X140602000Y-86740501D01*
X140627663Y-86740501D01*
X140635795Y-86743869D01*
G37*
%TD.AperFunction*%
M02*
