%TF.GenerationSoftware,KiCad,Pcbnew,10.0.2*%
%TF.CreationDate,2026-05-16T13:24:58-03:00*%
%TF.ProjectId,u-blox-MAX-F10S-00B,752d626c-6f78-42d4-9d41-582d46313053,rev?*%
%TF.SameCoordinates,Original*%
%TF.FileFunction,Legend,Top*%
%TF.FilePolarity,Positive*%
%FSLAX46Y46*%
G04 Gerber Fmt 4.6, Leading zero omitted, Abs format (unit mm)*
G04 Created by KiCad (PCBNEW 10.0.2) date 2026-05-16 13:24:58*
%MOMM*%
%LPD*%
G01*
G04 APERTURE LIST*
%ADD10C,0.150000*%
%ADD11C,0.254000*%
%ADD12C,0.120000*%
%ADD13C,0.171655*%
%ADD14C,0.127000*%
%ADD15C,0.200000*%
%ADD16C,0.100000*%
G04 APERTURE END LIST*
D10*
X139434819Y-117890714D02*
X140149104Y-117890714D01*
X140149104Y-117890714D02*
X140291961Y-117938333D01*
X140291961Y-117938333D02*
X140387200Y-118033571D01*
X140387200Y-118033571D02*
X140434819Y-118176428D01*
X140434819Y-118176428D02*
X140434819Y-118271666D01*
X140434819Y-116890714D02*
X140434819Y-117462142D01*
X140434819Y-117176428D02*
X139434819Y-117176428D01*
X139434819Y-117176428D02*
X139577676Y-117271666D01*
X139577676Y-117271666D02*
X139672914Y-117366904D01*
X139672914Y-117366904D02*
X139720533Y-117462142D01*
X139434819Y-116271666D02*
X139434819Y-116176428D01*
X139434819Y-116176428D02*
X139482438Y-116081190D01*
X139482438Y-116081190D02*
X139530057Y-116033571D01*
X139530057Y-116033571D02*
X139625295Y-115985952D01*
X139625295Y-115985952D02*
X139815771Y-115938333D01*
X139815771Y-115938333D02*
X140053866Y-115938333D01*
X140053866Y-115938333D02*
X140244342Y-115985952D01*
X140244342Y-115985952D02*
X140339580Y-116033571D01*
X140339580Y-116033571D02*
X140387200Y-116081190D01*
X140387200Y-116081190D02*
X140434819Y-116176428D01*
X140434819Y-116176428D02*
X140434819Y-116271666D01*
X140434819Y-116271666D02*
X140387200Y-116366904D01*
X140387200Y-116366904D02*
X140339580Y-116414523D01*
X140339580Y-116414523D02*
X140244342Y-116462142D01*
X140244342Y-116462142D02*
X140053866Y-116509761D01*
X140053866Y-116509761D02*
X139815771Y-116509761D01*
X139815771Y-116509761D02*
X139625295Y-116462142D01*
X139625295Y-116462142D02*
X139530057Y-116414523D01*
X139530057Y-116414523D02*
X139482438Y-116366904D01*
X139482438Y-116366904D02*
X139434819Y-116271666D01*
X139768152Y-115081190D02*
X140434819Y-115081190D01*
X139387200Y-115319285D02*
X140101485Y-115557380D01*
X140101485Y-115557380D02*
X140101485Y-114938333D01*
X135952315Y-85656681D02*
X136524735Y-86229101D01*
X136524735Y-86229101D02*
X136625750Y-86262773D01*
X136625750Y-86262773D02*
X136693094Y-86262773D01*
X136693094Y-86262773D02*
X136794109Y-86229101D01*
X136794109Y-86229101D02*
X136928796Y-86094414D01*
X136928796Y-86094414D02*
X136962468Y-85993399D01*
X136962468Y-85993399D02*
X136962468Y-85926055D01*
X136962468Y-85926055D02*
X136928796Y-85825040D01*
X136928796Y-85825040D02*
X136356376Y-85252620D01*
X137770590Y-85252620D02*
X137366529Y-85656681D01*
X137568559Y-85454651D02*
X136861453Y-84747544D01*
X136861453Y-84747544D02*
X136895124Y-84915903D01*
X136895124Y-84915903D02*
X136895124Y-85050590D01*
X136895124Y-85050590D02*
X136861453Y-85151605D01*
X137501216Y-84107781D02*
X137568559Y-84040437D01*
X137568559Y-84040437D02*
X137669575Y-84006766D01*
X137669575Y-84006766D02*
X137736918Y-84006766D01*
X137736918Y-84006766D02*
X137837933Y-84040437D01*
X137837933Y-84040437D02*
X138006292Y-84141453D01*
X138006292Y-84141453D02*
X138174651Y-84309811D01*
X138174651Y-84309811D02*
X138275666Y-84478170D01*
X138275666Y-84478170D02*
X138309338Y-84579185D01*
X138309338Y-84579185D02*
X138309338Y-84646529D01*
X138309338Y-84646529D02*
X138275666Y-84747544D01*
X138275666Y-84747544D02*
X138208323Y-84814888D01*
X138208323Y-84814888D02*
X138107307Y-84848559D01*
X138107307Y-84848559D02*
X138039964Y-84848559D01*
X138039964Y-84848559D02*
X137938949Y-84814888D01*
X137938949Y-84814888D02*
X137770590Y-84713872D01*
X137770590Y-84713872D02*
X137602231Y-84545514D01*
X137602231Y-84545514D02*
X137501216Y-84377155D01*
X137501216Y-84377155D02*
X137467544Y-84276140D01*
X137467544Y-84276140D02*
X137467544Y-84208796D01*
X137467544Y-84208796D02*
X137501216Y-84107781D01*
X139117460Y-83905750D02*
X138713399Y-84309811D01*
X138915429Y-84107781D02*
X138208323Y-83400674D01*
X138208323Y-83400674D02*
X138241994Y-83569033D01*
X138241994Y-83569033D02*
X138241994Y-83703720D01*
X138241994Y-83703720D02*
X138208323Y-83804735D01*
X137800000Y-85094820D02*
X137800000Y-85332915D01*
X137561905Y-85237677D02*
X137800000Y-85332915D01*
X137800000Y-85332915D02*
X138038095Y-85237677D01*
X137657143Y-85523391D02*
X137800000Y-85332915D01*
X137800000Y-85332915D02*
X137942857Y-85523391D01*
X137800000Y-85094820D02*
X137800000Y-85332915D01*
X137561905Y-85237677D02*
X137800000Y-85332915D01*
X137800000Y-85332915D02*
X138038095Y-85237677D01*
X137657143Y-85523391D02*
X137800000Y-85332915D01*
X137800000Y-85332915D02*
X137942857Y-85523391D01*
X165404285Y-102674819D02*
X165404285Y-103389104D01*
X165404285Y-103389104D02*
X165356666Y-103531961D01*
X165356666Y-103531961D02*
X165261428Y-103627200D01*
X165261428Y-103627200D02*
X165118571Y-103674819D01*
X165118571Y-103674819D02*
X165023333Y-103674819D01*
X166404285Y-103674819D02*
X165832857Y-103674819D01*
X166118571Y-103674819D02*
X166118571Y-102674819D01*
X166118571Y-102674819D02*
X166023333Y-102817676D01*
X166023333Y-102817676D02*
X165928095Y-102912914D01*
X165928095Y-102912914D02*
X165832857Y-102960533D01*
X167023333Y-102674819D02*
X167118571Y-102674819D01*
X167118571Y-102674819D02*
X167213809Y-102722438D01*
X167213809Y-102722438D02*
X167261428Y-102770057D01*
X167261428Y-102770057D02*
X167309047Y-102865295D01*
X167309047Y-102865295D02*
X167356666Y-103055771D01*
X167356666Y-103055771D02*
X167356666Y-103293866D01*
X167356666Y-103293866D02*
X167309047Y-103484342D01*
X167309047Y-103484342D02*
X167261428Y-103579580D01*
X167261428Y-103579580D02*
X167213809Y-103627200D01*
X167213809Y-103627200D02*
X167118571Y-103674819D01*
X167118571Y-103674819D02*
X167023333Y-103674819D01*
X167023333Y-103674819D02*
X166928095Y-103627200D01*
X166928095Y-103627200D02*
X166880476Y-103579580D01*
X166880476Y-103579580D02*
X166832857Y-103484342D01*
X166832857Y-103484342D02*
X166785238Y-103293866D01*
X166785238Y-103293866D02*
X166785238Y-103055771D01*
X166785238Y-103055771D02*
X166832857Y-102865295D01*
X166832857Y-102865295D02*
X166880476Y-102770057D01*
X166880476Y-102770057D02*
X166928095Y-102722438D01*
X166928095Y-102722438D02*
X167023333Y-102674819D01*
X167690000Y-102674819D02*
X168309047Y-102674819D01*
X168309047Y-102674819D02*
X167975714Y-103055771D01*
X167975714Y-103055771D02*
X168118571Y-103055771D01*
X168118571Y-103055771D02*
X168213809Y-103103390D01*
X168213809Y-103103390D02*
X168261428Y-103151009D01*
X168261428Y-103151009D02*
X168309047Y-103246247D01*
X168309047Y-103246247D02*
X168309047Y-103484342D01*
X168309047Y-103484342D02*
X168261428Y-103579580D01*
X168261428Y-103579580D02*
X168213809Y-103627200D01*
X168213809Y-103627200D02*
X168118571Y-103674819D01*
X168118571Y-103674819D02*
X167832857Y-103674819D01*
X167832857Y-103674819D02*
X167737619Y-103627200D01*
X167737619Y-103627200D02*
X167690000Y-103579580D01*
X140409580Y-83579047D02*
X140457200Y-83626666D01*
X140457200Y-83626666D02*
X140504819Y-83769523D01*
X140504819Y-83769523D02*
X140504819Y-83864761D01*
X140504819Y-83864761D02*
X140457200Y-84007618D01*
X140457200Y-84007618D02*
X140361961Y-84102856D01*
X140361961Y-84102856D02*
X140266723Y-84150475D01*
X140266723Y-84150475D02*
X140076247Y-84198094D01*
X140076247Y-84198094D02*
X139933390Y-84198094D01*
X139933390Y-84198094D02*
X139742914Y-84150475D01*
X139742914Y-84150475D02*
X139647676Y-84102856D01*
X139647676Y-84102856D02*
X139552438Y-84007618D01*
X139552438Y-84007618D02*
X139504819Y-83864761D01*
X139504819Y-83864761D02*
X139504819Y-83769523D01*
X139504819Y-83769523D02*
X139552438Y-83626666D01*
X139552438Y-83626666D02*
X139600057Y-83579047D01*
X140504819Y-82626666D02*
X140504819Y-83198094D01*
X140504819Y-82912380D02*
X139504819Y-82912380D01*
X139504819Y-82912380D02*
X139647676Y-83007618D01*
X139647676Y-83007618D02*
X139742914Y-83102856D01*
X139742914Y-83102856D02*
X139790533Y-83198094D01*
X139504819Y-82007618D02*
X139504819Y-81912380D01*
X139504819Y-81912380D02*
X139552438Y-81817142D01*
X139552438Y-81817142D02*
X139600057Y-81769523D01*
X139600057Y-81769523D02*
X139695295Y-81721904D01*
X139695295Y-81721904D02*
X139885771Y-81674285D01*
X139885771Y-81674285D02*
X140123866Y-81674285D01*
X140123866Y-81674285D02*
X140314342Y-81721904D01*
X140314342Y-81721904D02*
X140409580Y-81769523D01*
X140409580Y-81769523D02*
X140457200Y-81817142D01*
X140457200Y-81817142D02*
X140504819Y-81912380D01*
X140504819Y-81912380D02*
X140504819Y-82007618D01*
X140504819Y-82007618D02*
X140457200Y-82102856D01*
X140457200Y-82102856D02*
X140409580Y-82150475D01*
X140409580Y-82150475D02*
X140314342Y-82198094D01*
X140314342Y-82198094D02*
X140123866Y-82245713D01*
X140123866Y-82245713D02*
X139885771Y-82245713D01*
X139885771Y-82245713D02*
X139695295Y-82198094D01*
X139695295Y-82198094D02*
X139600057Y-82150475D01*
X139600057Y-82150475D02*
X139552438Y-82102856D01*
X139552438Y-82102856D02*
X139504819Y-82007618D01*
X140504819Y-80721904D02*
X140504819Y-81293332D01*
X140504819Y-81007618D02*
X139504819Y-81007618D01*
X139504819Y-81007618D02*
X139647676Y-81102856D01*
X139647676Y-81102856D02*
X139742914Y-81198094D01*
X139742914Y-81198094D02*
X139790533Y-81293332D01*
X157739580Y-101959047D02*
X157787200Y-102006666D01*
X157787200Y-102006666D02*
X157834819Y-102149523D01*
X157834819Y-102149523D02*
X157834819Y-102244761D01*
X157834819Y-102244761D02*
X157787200Y-102387618D01*
X157787200Y-102387618D02*
X157691961Y-102482856D01*
X157691961Y-102482856D02*
X157596723Y-102530475D01*
X157596723Y-102530475D02*
X157406247Y-102578094D01*
X157406247Y-102578094D02*
X157263390Y-102578094D01*
X157263390Y-102578094D02*
X157072914Y-102530475D01*
X157072914Y-102530475D02*
X156977676Y-102482856D01*
X156977676Y-102482856D02*
X156882438Y-102387618D01*
X156882438Y-102387618D02*
X156834819Y-102244761D01*
X156834819Y-102244761D02*
X156834819Y-102149523D01*
X156834819Y-102149523D02*
X156882438Y-102006666D01*
X156882438Y-102006666D02*
X156930057Y-101959047D01*
X157834819Y-101006666D02*
X157834819Y-101578094D01*
X157834819Y-101292380D02*
X156834819Y-101292380D01*
X156834819Y-101292380D02*
X156977676Y-101387618D01*
X156977676Y-101387618D02*
X157072914Y-101482856D01*
X157072914Y-101482856D02*
X157120533Y-101578094D01*
X156834819Y-100387618D02*
X156834819Y-100292380D01*
X156834819Y-100292380D02*
X156882438Y-100197142D01*
X156882438Y-100197142D02*
X156930057Y-100149523D01*
X156930057Y-100149523D02*
X157025295Y-100101904D01*
X157025295Y-100101904D02*
X157215771Y-100054285D01*
X157215771Y-100054285D02*
X157453866Y-100054285D01*
X157453866Y-100054285D02*
X157644342Y-100101904D01*
X157644342Y-100101904D02*
X157739580Y-100149523D01*
X157739580Y-100149523D02*
X157787200Y-100197142D01*
X157787200Y-100197142D02*
X157834819Y-100292380D01*
X157834819Y-100292380D02*
X157834819Y-100387618D01*
X157834819Y-100387618D02*
X157787200Y-100482856D01*
X157787200Y-100482856D02*
X157739580Y-100530475D01*
X157739580Y-100530475D02*
X157644342Y-100578094D01*
X157644342Y-100578094D02*
X157453866Y-100625713D01*
X157453866Y-100625713D02*
X157215771Y-100625713D01*
X157215771Y-100625713D02*
X157025295Y-100578094D01*
X157025295Y-100578094D02*
X156930057Y-100530475D01*
X156930057Y-100530475D02*
X156882438Y-100482856D01*
X156882438Y-100482856D02*
X156834819Y-100387618D01*
X157168152Y-99197142D02*
X157834819Y-99197142D01*
X156787200Y-99435237D02*
X157501485Y-99673332D01*
X157501485Y-99673332D02*
X157501485Y-99054285D01*
X142024819Y-90849047D02*
X141548628Y-91182380D01*
X142024819Y-91420475D02*
X141024819Y-91420475D01*
X141024819Y-91420475D02*
X141024819Y-91039523D01*
X141024819Y-91039523D02*
X141072438Y-90944285D01*
X141072438Y-90944285D02*
X141120057Y-90896666D01*
X141120057Y-90896666D02*
X141215295Y-90849047D01*
X141215295Y-90849047D02*
X141358152Y-90849047D01*
X141358152Y-90849047D02*
X141453390Y-90896666D01*
X141453390Y-90896666D02*
X141501009Y-90944285D01*
X141501009Y-90944285D02*
X141548628Y-91039523D01*
X141548628Y-91039523D02*
X141548628Y-91420475D01*
X142024819Y-89896666D02*
X142024819Y-90468094D01*
X142024819Y-90182380D02*
X141024819Y-90182380D01*
X141024819Y-90182380D02*
X141167676Y-90277618D01*
X141167676Y-90277618D02*
X141262914Y-90372856D01*
X141262914Y-90372856D02*
X141310533Y-90468094D01*
X141024819Y-89277618D02*
X141024819Y-89182380D01*
X141024819Y-89182380D02*
X141072438Y-89087142D01*
X141072438Y-89087142D02*
X141120057Y-89039523D01*
X141120057Y-89039523D02*
X141215295Y-88991904D01*
X141215295Y-88991904D02*
X141405771Y-88944285D01*
X141405771Y-88944285D02*
X141643866Y-88944285D01*
X141643866Y-88944285D02*
X141834342Y-88991904D01*
X141834342Y-88991904D02*
X141929580Y-89039523D01*
X141929580Y-89039523D02*
X141977200Y-89087142D01*
X141977200Y-89087142D02*
X142024819Y-89182380D01*
X142024819Y-89182380D02*
X142024819Y-89277618D01*
X142024819Y-89277618D02*
X141977200Y-89372856D01*
X141977200Y-89372856D02*
X141929580Y-89420475D01*
X141929580Y-89420475D02*
X141834342Y-89468094D01*
X141834342Y-89468094D02*
X141643866Y-89515713D01*
X141643866Y-89515713D02*
X141405771Y-89515713D01*
X141405771Y-89515713D02*
X141215295Y-89468094D01*
X141215295Y-89468094D02*
X141120057Y-89420475D01*
X141120057Y-89420475D02*
X141072438Y-89372856D01*
X141072438Y-89372856D02*
X141024819Y-89277618D01*
X141024819Y-88610951D02*
X141024819Y-87991904D01*
X141024819Y-87991904D02*
X141405771Y-88325237D01*
X141405771Y-88325237D02*
X141405771Y-88182380D01*
X141405771Y-88182380D02*
X141453390Y-88087142D01*
X141453390Y-88087142D02*
X141501009Y-88039523D01*
X141501009Y-88039523D02*
X141596247Y-87991904D01*
X141596247Y-87991904D02*
X141834342Y-87991904D01*
X141834342Y-87991904D02*
X141929580Y-88039523D01*
X141929580Y-88039523D02*
X141977200Y-88087142D01*
X141977200Y-88087142D02*
X142024819Y-88182380D01*
X142024819Y-88182380D02*
X142024819Y-88468094D01*
X142024819Y-88468094D02*
X141977200Y-88563332D01*
X141977200Y-88563332D02*
X141929580Y-88610951D01*
X140119580Y-91379047D02*
X140167200Y-91426666D01*
X140167200Y-91426666D02*
X140214819Y-91569523D01*
X140214819Y-91569523D02*
X140214819Y-91664761D01*
X140214819Y-91664761D02*
X140167200Y-91807618D01*
X140167200Y-91807618D02*
X140071961Y-91902856D01*
X140071961Y-91902856D02*
X139976723Y-91950475D01*
X139976723Y-91950475D02*
X139786247Y-91998094D01*
X139786247Y-91998094D02*
X139643390Y-91998094D01*
X139643390Y-91998094D02*
X139452914Y-91950475D01*
X139452914Y-91950475D02*
X139357676Y-91902856D01*
X139357676Y-91902856D02*
X139262438Y-91807618D01*
X139262438Y-91807618D02*
X139214819Y-91664761D01*
X139214819Y-91664761D02*
X139214819Y-91569523D01*
X139214819Y-91569523D02*
X139262438Y-91426666D01*
X139262438Y-91426666D02*
X139310057Y-91379047D01*
X140214819Y-90426666D02*
X140214819Y-90998094D01*
X140214819Y-90712380D02*
X139214819Y-90712380D01*
X139214819Y-90712380D02*
X139357676Y-90807618D01*
X139357676Y-90807618D02*
X139452914Y-90902856D01*
X139452914Y-90902856D02*
X139500533Y-90998094D01*
X139214819Y-89807618D02*
X139214819Y-89712380D01*
X139214819Y-89712380D02*
X139262438Y-89617142D01*
X139262438Y-89617142D02*
X139310057Y-89569523D01*
X139310057Y-89569523D02*
X139405295Y-89521904D01*
X139405295Y-89521904D02*
X139595771Y-89474285D01*
X139595771Y-89474285D02*
X139833866Y-89474285D01*
X139833866Y-89474285D02*
X140024342Y-89521904D01*
X140024342Y-89521904D02*
X140119580Y-89569523D01*
X140119580Y-89569523D02*
X140167200Y-89617142D01*
X140167200Y-89617142D02*
X140214819Y-89712380D01*
X140214819Y-89712380D02*
X140214819Y-89807618D01*
X140214819Y-89807618D02*
X140167200Y-89902856D01*
X140167200Y-89902856D02*
X140119580Y-89950475D01*
X140119580Y-89950475D02*
X140024342Y-89998094D01*
X140024342Y-89998094D02*
X139833866Y-90045713D01*
X139833866Y-90045713D02*
X139595771Y-90045713D01*
X139595771Y-90045713D02*
X139405295Y-89998094D01*
X139405295Y-89998094D02*
X139310057Y-89950475D01*
X139310057Y-89950475D02*
X139262438Y-89902856D01*
X139262438Y-89902856D02*
X139214819Y-89807618D01*
X139214819Y-89140951D02*
X139214819Y-88521904D01*
X139214819Y-88521904D02*
X139595771Y-88855237D01*
X139595771Y-88855237D02*
X139595771Y-88712380D01*
X139595771Y-88712380D02*
X139643390Y-88617142D01*
X139643390Y-88617142D02*
X139691009Y-88569523D01*
X139691009Y-88569523D02*
X139786247Y-88521904D01*
X139786247Y-88521904D02*
X140024342Y-88521904D01*
X140024342Y-88521904D02*
X140119580Y-88569523D01*
X140119580Y-88569523D02*
X140167200Y-88617142D01*
X140167200Y-88617142D02*
X140214819Y-88712380D01*
X140214819Y-88712380D02*
X140214819Y-88998094D01*
X140214819Y-88998094D02*
X140167200Y-89093332D01*
X140167200Y-89093332D02*
X140119580Y-89140951D01*
X137864819Y-113479047D02*
X137388628Y-113812380D01*
X137864819Y-114050475D02*
X136864819Y-114050475D01*
X136864819Y-114050475D02*
X136864819Y-113669523D01*
X136864819Y-113669523D02*
X136912438Y-113574285D01*
X136912438Y-113574285D02*
X136960057Y-113526666D01*
X136960057Y-113526666D02*
X137055295Y-113479047D01*
X137055295Y-113479047D02*
X137198152Y-113479047D01*
X137198152Y-113479047D02*
X137293390Y-113526666D01*
X137293390Y-113526666D02*
X137341009Y-113574285D01*
X137341009Y-113574285D02*
X137388628Y-113669523D01*
X137388628Y-113669523D02*
X137388628Y-114050475D01*
X137864819Y-112526666D02*
X137864819Y-113098094D01*
X137864819Y-112812380D02*
X136864819Y-112812380D01*
X136864819Y-112812380D02*
X137007676Y-112907618D01*
X137007676Y-112907618D02*
X137102914Y-113002856D01*
X137102914Y-113002856D02*
X137150533Y-113098094D01*
X136864819Y-111907618D02*
X136864819Y-111812380D01*
X136864819Y-111812380D02*
X136912438Y-111717142D01*
X136912438Y-111717142D02*
X136960057Y-111669523D01*
X136960057Y-111669523D02*
X137055295Y-111621904D01*
X137055295Y-111621904D02*
X137245771Y-111574285D01*
X137245771Y-111574285D02*
X137483866Y-111574285D01*
X137483866Y-111574285D02*
X137674342Y-111621904D01*
X137674342Y-111621904D02*
X137769580Y-111669523D01*
X137769580Y-111669523D02*
X137817200Y-111717142D01*
X137817200Y-111717142D02*
X137864819Y-111812380D01*
X137864819Y-111812380D02*
X137864819Y-111907618D01*
X137864819Y-111907618D02*
X137817200Y-112002856D01*
X137817200Y-112002856D02*
X137769580Y-112050475D01*
X137769580Y-112050475D02*
X137674342Y-112098094D01*
X137674342Y-112098094D02*
X137483866Y-112145713D01*
X137483866Y-112145713D02*
X137245771Y-112145713D01*
X137245771Y-112145713D02*
X137055295Y-112098094D01*
X137055295Y-112098094D02*
X136960057Y-112050475D01*
X136960057Y-112050475D02*
X136912438Y-112002856D01*
X136912438Y-112002856D02*
X136864819Y-111907618D01*
X136960057Y-111193332D02*
X136912438Y-111145713D01*
X136912438Y-111145713D02*
X136864819Y-111050475D01*
X136864819Y-111050475D02*
X136864819Y-110812380D01*
X136864819Y-110812380D02*
X136912438Y-110717142D01*
X136912438Y-110717142D02*
X136960057Y-110669523D01*
X136960057Y-110669523D02*
X137055295Y-110621904D01*
X137055295Y-110621904D02*
X137150533Y-110621904D01*
X137150533Y-110621904D02*
X137293390Y-110669523D01*
X137293390Y-110669523D02*
X137864819Y-111240951D01*
X137864819Y-111240951D02*
X137864819Y-110621904D01*
X159139580Y-101949047D02*
X159187200Y-101996666D01*
X159187200Y-101996666D02*
X159234819Y-102139523D01*
X159234819Y-102139523D02*
X159234819Y-102234761D01*
X159234819Y-102234761D02*
X159187200Y-102377618D01*
X159187200Y-102377618D02*
X159091961Y-102472856D01*
X159091961Y-102472856D02*
X158996723Y-102520475D01*
X158996723Y-102520475D02*
X158806247Y-102568094D01*
X158806247Y-102568094D02*
X158663390Y-102568094D01*
X158663390Y-102568094D02*
X158472914Y-102520475D01*
X158472914Y-102520475D02*
X158377676Y-102472856D01*
X158377676Y-102472856D02*
X158282438Y-102377618D01*
X158282438Y-102377618D02*
X158234819Y-102234761D01*
X158234819Y-102234761D02*
X158234819Y-102139523D01*
X158234819Y-102139523D02*
X158282438Y-101996666D01*
X158282438Y-101996666D02*
X158330057Y-101949047D01*
X159234819Y-100996666D02*
X159234819Y-101568094D01*
X159234819Y-101282380D02*
X158234819Y-101282380D01*
X158234819Y-101282380D02*
X158377676Y-101377618D01*
X158377676Y-101377618D02*
X158472914Y-101472856D01*
X158472914Y-101472856D02*
X158520533Y-101568094D01*
X158234819Y-100377618D02*
X158234819Y-100282380D01*
X158234819Y-100282380D02*
X158282438Y-100187142D01*
X158282438Y-100187142D02*
X158330057Y-100139523D01*
X158330057Y-100139523D02*
X158425295Y-100091904D01*
X158425295Y-100091904D02*
X158615771Y-100044285D01*
X158615771Y-100044285D02*
X158853866Y-100044285D01*
X158853866Y-100044285D02*
X159044342Y-100091904D01*
X159044342Y-100091904D02*
X159139580Y-100139523D01*
X159139580Y-100139523D02*
X159187200Y-100187142D01*
X159187200Y-100187142D02*
X159234819Y-100282380D01*
X159234819Y-100282380D02*
X159234819Y-100377618D01*
X159234819Y-100377618D02*
X159187200Y-100472856D01*
X159187200Y-100472856D02*
X159139580Y-100520475D01*
X159139580Y-100520475D02*
X159044342Y-100568094D01*
X159044342Y-100568094D02*
X158853866Y-100615713D01*
X158853866Y-100615713D02*
X158615771Y-100615713D01*
X158615771Y-100615713D02*
X158425295Y-100568094D01*
X158425295Y-100568094D02*
X158330057Y-100520475D01*
X158330057Y-100520475D02*
X158282438Y-100472856D01*
X158282438Y-100472856D02*
X158234819Y-100377618D01*
X158234819Y-99139523D02*
X158234819Y-99615713D01*
X158234819Y-99615713D02*
X158711009Y-99663332D01*
X158711009Y-99663332D02*
X158663390Y-99615713D01*
X158663390Y-99615713D02*
X158615771Y-99520475D01*
X158615771Y-99520475D02*
X158615771Y-99282380D01*
X158615771Y-99282380D02*
X158663390Y-99187142D01*
X158663390Y-99187142D02*
X158711009Y-99139523D01*
X158711009Y-99139523D02*
X158806247Y-99091904D01*
X158806247Y-99091904D02*
X159044342Y-99091904D01*
X159044342Y-99091904D02*
X159139580Y-99139523D01*
X159139580Y-99139523D02*
X159187200Y-99187142D01*
X159187200Y-99187142D02*
X159234819Y-99282380D01*
X159234819Y-99282380D02*
X159234819Y-99520475D01*
X159234819Y-99520475D02*
X159187200Y-99615713D01*
X159187200Y-99615713D02*
X159139580Y-99663332D01*
X135917319Y-99265714D02*
X136631604Y-99265714D01*
X136631604Y-99265714D02*
X136774461Y-99313333D01*
X136774461Y-99313333D02*
X136869700Y-99408571D01*
X136869700Y-99408571D02*
X136917319Y-99551428D01*
X136917319Y-99551428D02*
X136917319Y-99646666D01*
X136917319Y-98265714D02*
X136917319Y-98837142D01*
X136917319Y-98551428D02*
X135917319Y-98551428D01*
X135917319Y-98551428D02*
X136060176Y-98646666D01*
X136060176Y-98646666D02*
X136155414Y-98741904D01*
X136155414Y-98741904D02*
X136203033Y-98837142D01*
X135917319Y-97646666D02*
X135917319Y-97551428D01*
X135917319Y-97551428D02*
X135964938Y-97456190D01*
X135964938Y-97456190D02*
X136012557Y-97408571D01*
X136012557Y-97408571D02*
X136107795Y-97360952D01*
X136107795Y-97360952D02*
X136298271Y-97313333D01*
X136298271Y-97313333D02*
X136536366Y-97313333D01*
X136536366Y-97313333D02*
X136726842Y-97360952D01*
X136726842Y-97360952D02*
X136822080Y-97408571D01*
X136822080Y-97408571D02*
X136869700Y-97456190D01*
X136869700Y-97456190D02*
X136917319Y-97551428D01*
X136917319Y-97551428D02*
X136917319Y-97646666D01*
X136917319Y-97646666D02*
X136869700Y-97741904D01*
X136869700Y-97741904D02*
X136822080Y-97789523D01*
X136822080Y-97789523D02*
X136726842Y-97837142D01*
X136726842Y-97837142D02*
X136536366Y-97884761D01*
X136536366Y-97884761D02*
X136298271Y-97884761D01*
X136298271Y-97884761D02*
X136107795Y-97837142D01*
X136107795Y-97837142D02*
X136012557Y-97789523D01*
X136012557Y-97789523D02*
X135964938Y-97741904D01*
X135964938Y-97741904D02*
X135917319Y-97646666D01*
X135917319Y-96456190D02*
X135917319Y-96646666D01*
X135917319Y-96646666D02*
X135964938Y-96741904D01*
X135964938Y-96741904D02*
X136012557Y-96789523D01*
X136012557Y-96789523D02*
X136155414Y-96884761D01*
X136155414Y-96884761D02*
X136345890Y-96932380D01*
X136345890Y-96932380D02*
X136726842Y-96932380D01*
X136726842Y-96932380D02*
X136822080Y-96884761D01*
X136822080Y-96884761D02*
X136869700Y-96837142D01*
X136869700Y-96837142D02*
X136917319Y-96741904D01*
X136917319Y-96741904D02*
X136917319Y-96551428D01*
X136917319Y-96551428D02*
X136869700Y-96456190D01*
X136869700Y-96456190D02*
X136822080Y-96408571D01*
X136822080Y-96408571D02*
X136726842Y-96360952D01*
X136726842Y-96360952D02*
X136488747Y-96360952D01*
X136488747Y-96360952D02*
X136393509Y-96408571D01*
X136393509Y-96408571D02*
X136345890Y-96456190D01*
X136345890Y-96456190D02*
X136298271Y-96551428D01*
X136298271Y-96551428D02*
X136298271Y-96741904D01*
X136298271Y-96741904D02*
X136345890Y-96837142D01*
X136345890Y-96837142D02*
X136393509Y-96884761D01*
X136393509Y-96884761D02*
X136488747Y-96932380D01*
X131984285Y-102664819D02*
X131984285Y-103379104D01*
X131984285Y-103379104D02*
X131936666Y-103521961D01*
X131936666Y-103521961D02*
X131841428Y-103617200D01*
X131841428Y-103617200D02*
X131698571Y-103664819D01*
X131698571Y-103664819D02*
X131603333Y-103664819D01*
X132984285Y-103664819D02*
X132412857Y-103664819D01*
X132698571Y-103664819D02*
X132698571Y-102664819D01*
X132698571Y-102664819D02*
X132603333Y-102807676D01*
X132603333Y-102807676D02*
X132508095Y-102902914D01*
X132508095Y-102902914D02*
X132412857Y-102950533D01*
X133603333Y-102664819D02*
X133698571Y-102664819D01*
X133698571Y-102664819D02*
X133793809Y-102712438D01*
X133793809Y-102712438D02*
X133841428Y-102760057D01*
X133841428Y-102760057D02*
X133889047Y-102855295D01*
X133889047Y-102855295D02*
X133936666Y-103045771D01*
X133936666Y-103045771D02*
X133936666Y-103283866D01*
X133936666Y-103283866D02*
X133889047Y-103474342D01*
X133889047Y-103474342D02*
X133841428Y-103569580D01*
X133841428Y-103569580D02*
X133793809Y-103617200D01*
X133793809Y-103617200D02*
X133698571Y-103664819D01*
X133698571Y-103664819D02*
X133603333Y-103664819D01*
X133603333Y-103664819D02*
X133508095Y-103617200D01*
X133508095Y-103617200D02*
X133460476Y-103569580D01*
X133460476Y-103569580D02*
X133412857Y-103474342D01*
X133412857Y-103474342D02*
X133365238Y-103283866D01*
X133365238Y-103283866D02*
X133365238Y-103045771D01*
X133365238Y-103045771D02*
X133412857Y-102855295D01*
X133412857Y-102855295D02*
X133460476Y-102760057D01*
X133460476Y-102760057D02*
X133508095Y-102712438D01*
X133508095Y-102712438D02*
X133603333Y-102664819D01*
X134317619Y-102760057D02*
X134365238Y-102712438D01*
X134365238Y-102712438D02*
X134460476Y-102664819D01*
X134460476Y-102664819D02*
X134698571Y-102664819D01*
X134698571Y-102664819D02*
X134793809Y-102712438D01*
X134793809Y-102712438D02*
X134841428Y-102760057D01*
X134841428Y-102760057D02*
X134889047Y-102855295D01*
X134889047Y-102855295D02*
X134889047Y-102950533D01*
X134889047Y-102950533D02*
X134841428Y-103093390D01*
X134841428Y-103093390D02*
X134270000Y-103664819D01*
X134270000Y-103664819D02*
X134889047Y-103664819D01*
X162962319Y-93265714D02*
X163676604Y-93265714D01*
X163676604Y-93265714D02*
X163819461Y-93313333D01*
X163819461Y-93313333D02*
X163914700Y-93408571D01*
X163914700Y-93408571D02*
X163962319Y-93551428D01*
X163962319Y-93551428D02*
X163962319Y-93646666D01*
X163962319Y-92265714D02*
X163962319Y-92837142D01*
X163962319Y-92551428D02*
X162962319Y-92551428D01*
X162962319Y-92551428D02*
X163105176Y-92646666D01*
X163105176Y-92646666D02*
X163200414Y-92741904D01*
X163200414Y-92741904D02*
X163248033Y-92837142D01*
X162962319Y-91646666D02*
X162962319Y-91551428D01*
X162962319Y-91551428D02*
X163009938Y-91456190D01*
X163009938Y-91456190D02*
X163057557Y-91408571D01*
X163057557Y-91408571D02*
X163152795Y-91360952D01*
X163152795Y-91360952D02*
X163343271Y-91313333D01*
X163343271Y-91313333D02*
X163581366Y-91313333D01*
X163581366Y-91313333D02*
X163771842Y-91360952D01*
X163771842Y-91360952D02*
X163867080Y-91408571D01*
X163867080Y-91408571D02*
X163914700Y-91456190D01*
X163914700Y-91456190D02*
X163962319Y-91551428D01*
X163962319Y-91551428D02*
X163962319Y-91646666D01*
X163962319Y-91646666D02*
X163914700Y-91741904D01*
X163914700Y-91741904D02*
X163867080Y-91789523D01*
X163867080Y-91789523D02*
X163771842Y-91837142D01*
X163771842Y-91837142D02*
X163581366Y-91884761D01*
X163581366Y-91884761D02*
X163343271Y-91884761D01*
X163343271Y-91884761D02*
X163152795Y-91837142D01*
X163152795Y-91837142D02*
X163057557Y-91789523D01*
X163057557Y-91789523D02*
X163009938Y-91741904D01*
X163009938Y-91741904D02*
X162962319Y-91646666D01*
X162962319Y-90408571D02*
X162962319Y-90884761D01*
X162962319Y-90884761D02*
X163438509Y-90932380D01*
X163438509Y-90932380D02*
X163390890Y-90884761D01*
X163390890Y-90884761D02*
X163343271Y-90789523D01*
X163343271Y-90789523D02*
X163343271Y-90551428D01*
X163343271Y-90551428D02*
X163390890Y-90456190D01*
X163390890Y-90456190D02*
X163438509Y-90408571D01*
X163438509Y-90408571D02*
X163533747Y-90360952D01*
X163533747Y-90360952D02*
X163771842Y-90360952D01*
X163771842Y-90360952D02*
X163867080Y-90408571D01*
X163867080Y-90408571D02*
X163914700Y-90456190D01*
X163914700Y-90456190D02*
X163962319Y-90551428D01*
X163962319Y-90551428D02*
X163962319Y-90789523D01*
X163962319Y-90789523D02*
X163914700Y-90884761D01*
X163914700Y-90884761D02*
X163867080Y-90932380D01*
X137895524Y-105829047D02*
X137419333Y-106162380D01*
X137895524Y-106400475D02*
X136895524Y-106400475D01*
X136895524Y-106400475D02*
X136895524Y-106019523D01*
X136895524Y-106019523D02*
X136943143Y-105924285D01*
X136943143Y-105924285D02*
X136990762Y-105876666D01*
X136990762Y-105876666D02*
X137086000Y-105829047D01*
X137086000Y-105829047D02*
X137228857Y-105829047D01*
X137228857Y-105829047D02*
X137324095Y-105876666D01*
X137324095Y-105876666D02*
X137371714Y-105924285D01*
X137371714Y-105924285D02*
X137419333Y-106019523D01*
X137419333Y-106019523D02*
X137419333Y-106400475D01*
X137895524Y-104876666D02*
X137895524Y-105448094D01*
X137895524Y-105162380D02*
X136895524Y-105162380D01*
X136895524Y-105162380D02*
X137038381Y-105257618D01*
X137038381Y-105257618D02*
X137133619Y-105352856D01*
X137133619Y-105352856D02*
X137181238Y-105448094D01*
X136895524Y-104257618D02*
X136895524Y-104162380D01*
X136895524Y-104162380D02*
X136943143Y-104067142D01*
X136943143Y-104067142D02*
X136990762Y-104019523D01*
X136990762Y-104019523D02*
X137086000Y-103971904D01*
X137086000Y-103971904D02*
X137276476Y-103924285D01*
X137276476Y-103924285D02*
X137514571Y-103924285D01*
X137514571Y-103924285D02*
X137705047Y-103971904D01*
X137705047Y-103971904D02*
X137800285Y-104019523D01*
X137800285Y-104019523D02*
X137847905Y-104067142D01*
X137847905Y-104067142D02*
X137895524Y-104162380D01*
X137895524Y-104162380D02*
X137895524Y-104257618D01*
X137895524Y-104257618D02*
X137847905Y-104352856D01*
X137847905Y-104352856D02*
X137800285Y-104400475D01*
X137800285Y-104400475D02*
X137705047Y-104448094D01*
X137705047Y-104448094D02*
X137514571Y-104495713D01*
X137514571Y-104495713D02*
X137276476Y-104495713D01*
X137276476Y-104495713D02*
X137086000Y-104448094D01*
X137086000Y-104448094D02*
X136990762Y-104400475D01*
X136990762Y-104400475D02*
X136943143Y-104352856D01*
X136943143Y-104352856D02*
X136895524Y-104257618D01*
X137895524Y-102971904D02*
X137895524Y-103543332D01*
X137895524Y-103257618D02*
X136895524Y-103257618D01*
X136895524Y-103257618D02*
X137038381Y-103352856D01*
X137038381Y-103352856D02*
X137133619Y-103448094D01*
X137133619Y-103448094D02*
X137181238Y-103543332D01*
X157154285Y-81944819D02*
X157154285Y-82659104D01*
X157154285Y-82659104D02*
X157106666Y-82801961D01*
X157106666Y-82801961D02*
X157011428Y-82897200D01*
X157011428Y-82897200D02*
X156868571Y-82944819D01*
X156868571Y-82944819D02*
X156773333Y-82944819D01*
X158154285Y-82944819D02*
X157582857Y-82944819D01*
X157868571Y-82944819D02*
X157868571Y-81944819D01*
X157868571Y-81944819D02*
X157773333Y-82087676D01*
X157773333Y-82087676D02*
X157678095Y-82182914D01*
X157678095Y-82182914D02*
X157582857Y-82230533D01*
X158773333Y-81944819D02*
X158868571Y-81944819D01*
X158868571Y-81944819D02*
X158963809Y-81992438D01*
X158963809Y-81992438D02*
X159011428Y-82040057D01*
X159011428Y-82040057D02*
X159059047Y-82135295D01*
X159059047Y-82135295D02*
X159106666Y-82325771D01*
X159106666Y-82325771D02*
X159106666Y-82563866D01*
X159106666Y-82563866D02*
X159059047Y-82754342D01*
X159059047Y-82754342D02*
X159011428Y-82849580D01*
X159011428Y-82849580D02*
X158963809Y-82897200D01*
X158963809Y-82897200D02*
X158868571Y-82944819D01*
X158868571Y-82944819D02*
X158773333Y-82944819D01*
X158773333Y-82944819D02*
X158678095Y-82897200D01*
X158678095Y-82897200D02*
X158630476Y-82849580D01*
X158630476Y-82849580D02*
X158582857Y-82754342D01*
X158582857Y-82754342D02*
X158535238Y-82563866D01*
X158535238Y-82563866D02*
X158535238Y-82325771D01*
X158535238Y-82325771D02*
X158582857Y-82135295D01*
X158582857Y-82135295D02*
X158630476Y-82040057D01*
X158630476Y-82040057D02*
X158678095Y-81992438D01*
X158678095Y-81992438D02*
X158773333Y-81944819D01*
X159440000Y-81944819D02*
X160106666Y-81944819D01*
X160106666Y-81944819D02*
X159678095Y-82944819D01*
D11*
X147530713Y-100604318D02*
X147530713Y-99334318D01*
X148861190Y-100483365D02*
X148800714Y-100543842D01*
X148800714Y-100543842D02*
X148619285Y-100604318D01*
X148619285Y-100604318D02*
X148498333Y-100604318D01*
X148498333Y-100604318D02*
X148316904Y-100543842D01*
X148316904Y-100543842D02*
X148195952Y-100422889D01*
X148195952Y-100422889D02*
X148135475Y-100301937D01*
X148135475Y-100301937D02*
X148074999Y-100060032D01*
X148074999Y-100060032D02*
X148074999Y-99878603D01*
X148074999Y-99878603D02*
X148135475Y-99636699D01*
X148135475Y-99636699D02*
X148195952Y-99515746D01*
X148195952Y-99515746D02*
X148316904Y-99394794D01*
X148316904Y-99394794D02*
X148498333Y-99334318D01*
X148498333Y-99334318D02*
X148619285Y-99334318D01*
X148619285Y-99334318D02*
X148800714Y-99394794D01*
X148800714Y-99394794D02*
X148861190Y-99455270D01*
X150070714Y-100604318D02*
X149344999Y-100604318D01*
X149707856Y-100604318D02*
X149707856Y-99334318D01*
X149707856Y-99334318D02*
X149586904Y-99515746D01*
X149586904Y-99515746D02*
X149465952Y-99636699D01*
X149465952Y-99636699D02*
X149344999Y-99697175D01*
X150856904Y-99334318D02*
X150977857Y-99334318D01*
X150977857Y-99334318D02*
X151098809Y-99394794D01*
X151098809Y-99394794D02*
X151159285Y-99455270D01*
X151159285Y-99455270D02*
X151219761Y-99576222D01*
X151219761Y-99576222D02*
X151280238Y-99818127D01*
X151280238Y-99818127D02*
X151280238Y-100120508D01*
X151280238Y-100120508D02*
X151219761Y-100362413D01*
X151219761Y-100362413D02*
X151159285Y-100483365D01*
X151159285Y-100483365D02*
X151098809Y-100543842D01*
X151098809Y-100543842D02*
X150977857Y-100604318D01*
X150977857Y-100604318D02*
X150856904Y-100604318D01*
X150856904Y-100604318D02*
X150735952Y-100543842D01*
X150735952Y-100543842D02*
X150675476Y-100483365D01*
X150675476Y-100483365D02*
X150614999Y-100362413D01*
X150614999Y-100362413D02*
X150554523Y-100120508D01*
X150554523Y-100120508D02*
X150554523Y-99818127D01*
X150554523Y-99818127D02*
X150614999Y-99576222D01*
X150614999Y-99576222D02*
X150675476Y-99455270D01*
X150675476Y-99455270D02*
X150735952Y-99394794D01*
X150735952Y-99394794D02*
X150856904Y-99334318D01*
X152489762Y-100604318D02*
X151764047Y-100604318D01*
X152126904Y-100604318D02*
X152126904Y-99334318D01*
X152126904Y-99334318D02*
X152005952Y-99515746D01*
X152005952Y-99515746D02*
X151885000Y-99636699D01*
X151885000Y-99636699D02*
X151764047Y-99697175D01*
D10*
X138009580Y-90649047D02*
X138057200Y-90696666D01*
X138057200Y-90696666D02*
X138104819Y-90839523D01*
X138104819Y-90839523D02*
X138104819Y-90934761D01*
X138104819Y-90934761D02*
X138057200Y-91077618D01*
X138057200Y-91077618D02*
X137961961Y-91172856D01*
X137961961Y-91172856D02*
X137866723Y-91220475D01*
X137866723Y-91220475D02*
X137676247Y-91268094D01*
X137676247Y-91268094D02*
X137533390Y-91268094D01*
X137533390Y-91268094D02*
X137342914Y-91220475D01*
X137342914Y-91220475D02*
X137247676Y-91172856D01*
X137247676Y-91172856D02*
X137152438Y-91077618D01*
X137152438Y-91077618D02*
X137104819Y-90934761D01*
X137104819Y-90934761D02*
X137104819Y-90839523D01*
X137104819Y-90839523D02*
X137152438Y-90696666D01*
X137152438Y-90696666D02*
X137200057Y-90649047D01*
X138104819Y-89696666D02*
X138104819Y-90268094D01*
X138104819Y-89982380D02*
X137104819Y-89982380D01*
X137104819Y-89982380D02*
X137247676Y-90077618D01*
X137247676Y-90077618D02*
X137342914Y-90172856D01*
X137342914Y-90172856D02*
X137390533Y-90268094D01*
X137104819Y-89077618D02*
X137104819Y-88982380D01*
X137104819Y-88982380D02*
X137152438Y-88887142D01*
X137152438Y-88887142D02*
X137200057Y-88839523D01*
X137200057Y-88839523D02*
X137295295Y-88791904D01*
X137295295Y-88791904D02*
X137485771Y-88744285D01*
X137485771Y-88744285D02*
X137723866Y-88744285D01*
X137723866Y-88744285D02*
X137914342Y-88791904D01*
X137914342Y-88791904D02*
X138009580Y-88839523D01*
X138009580Y-88839523D02*
X138057200Y-88887142D01*
X138057200Y-88887142D02*
X138104819Y-88982380D01*
X138104819Y-88982380D02*
X138104819Y-89077618D01*
X138104819Y-89077618D02*
X138057200Y-89172856D01*
X138057200Y-89172856D02*
X138009580Y-89220475D01*
X138009580Y-89220475D02*
X137914342Y-89268094D01*
X137914342Y-89268094D02*
X137723866Y-89315713D01*
X137723866Y-89315713D02*
X137485771Y-89315713D01*
X137485771Y-89315713D02*
X137295295Y-89268094D01*
X137295295Y-89268094D02*
X137200057Y-89220475D01*
X137200057Y-89220475D02*
X137152438Y-89172856D01*
X137152438Y-89172856D02*
X137104819Y-89077618D01*
X137200057Y-88363332D02*
X137152438Y-88315713D01*
X137152438Y-88315713D02*
X137104819Y-88220475D01*
X137104819Y-88220475D02*
X137104819Y-87982380D01*
X137104819Y-87982380D02*
X137152438Y-87887142D01*
X137152438Y-87887142D02*
X137200057Y-87839523D01*
X137200057Y-87839523D02*
X137295295Y-87791904D01*
X137295295Y-87791904D02*
X137390533Y-87791904D01*
X137390533Y-87791904D02*
X137533390Y-87839523D01*
X137533390Y-87839523D02*
X138104819Y-88410951D01*
X138104819Y-88410951D02*
X138104819Y-87791904D01*
X143284819Y-90839047D02*
X142808628Y-91172380D01*
X143284819Y-91410475D02*
X142284819Y-91410475D01*
X142284819Y-91410475D02*
X142284819Y-91029523D01*
X142284819Y-91029523D02*
X142332438Y-90934285D01*
X142332438Y-90934285D02*
X142380057Y-90886666D01*
X142380057Y-90886666D02*
X142475295Y-90839047D01*
X142475295Y-90839047D02*
X142618152Y-90839047D01*
X142618152Y-90839047D02*
X142713390Y-90886666D01*
X142713390Y-90886666D02*
X142761009Y-90934285D01*
X142761009Y-90934285D02*
X142808628Y-91029523D01*
X142808628Y-91029523D02*
X142808628Y-91410475D01*
X143284819Y-89886666D02*
X143284819Y-90458094D01*
X143284819Y-90172380D02*
X142284819Y-90172380D01*
X142284819Y-90172380D02*
X142427676Y-90267618D01*
X142427676Y-90267618D02*
X142522914Y-90362856D01*
X142522914Y-90362856D02*
X142570533Y-90458094D01*
X142284819Y-89267618D02*
X142284819Y-89172380D01*
X142284819Y-89172380D02*
X142332438Y-89077142D01*
X142332438Y-89077142D02*
X142380057Y-89029523D01*
X142380057Y-89029523D02*
X142475295Y-88981904D01*
X142475295Y-88981904D02*
X142665771Y-88934285D01*
X142665771Y-88934285D02*
X142903866Y-88934285D01*
X142903866Y-88934285D02*
X143094342Y-88981904D01*
X143094342Y-88981904D02*
X143189580Y-89029523D01*
X143189580Y-89029523D02*
X143237200Y-89077142D01*
X143237200Y-89077142D02*
X143284819Y-89172380D01*
X143284819Y-89172380D02*
X143284819Y-89267618D01*
X143284819Y-89267618D02*
X143237200Y-89362856D01*
X143237200Y-89362856D02*
X143189580Y-89410475D01*
X143189580Y-89410475D02*
X143094342Y-89458094D01*
X143094342Y-89458094D02*
X142903866Y-89505713D01*
X142903866Y-89505713D02*
X142665771Y-89505713D01*
X142665771Y-89505713D02*
X142475295Y-89458094D01*
X142475295Y-89458094D02*
X142380057Y-89410475D01*
X142380057Y-89410475D02*
X142332438Y-89362856D01*
X142332438Y-89362856D02*
X142284819Y-89267618D01*
X142618152Y-88077142D02*
X143284819Y-88077142D01*
X142237200Y-88315237D02*
X142951485Y-88553332D01*
X142951485Y-88553332D02*
X142951485Y-87934285D01*
%TO.C,J104*%
D12*
X158410000Y-115225000D02*
X158980000Y-115225000D01*
X155870000Y-115225000D02*
X158980000Y-115225000D01*
X150790000Y-115225000D02*
X154250000Y-115225000D01*
X145710000Y-115225000D02*
X149170000Y-115225000D01*
X141550000Y-115225000D02*
X144090000Y-115225000D01*
X158980000Y-117985000D02*
X158980000Y-115225000D01*
X153330000Y-117985000D02*
X156790000Y-117985000D01*
X148250000Y-117985000D02*
X151710000Y-117985000D01*
X143170000Y-117985000D02*
X146630000Y-117985000D01*
X141550000Y-117985000D02*
X141550000Y-119455000D01*
X140980000Y-117985000D02*
X140980000Y-115225000D01*
X140980000Y-117985000D02*
X141550000Y-117985000D01*
%TO.C,U101*%
D13*
X138542782Y-85880001D02*
G75*
G02*
X138371128Y-85880001I-85827J0D01*
G01*
X138371128Y-85880001D02*
G75*
G02*
X138542782Y-85880001I85827J0D01*
G01*
%TO.C,J103*%
D14*
X164565000Y-104480000D02*
X166895000Y-104480000D01*
X164565000Y-105360000D02*
X164565000Y-104480000D01*
X164565000Y-110480000D02*
X164565000Y-109600000D01*
X166895000Y-110480000D02*
X164565000Y-110480000D01*
X168815000Y-109360000D02*
X168815000Y-105600000D01*
D15*
X163040000Y-108980000D02*
G75*
G02*
X162840000Y-108980000I-100000J0D01*
G01*
X162840000Y-108980000D02*
G75*
G02*
X163040000Y-108980000I100000J0D01*
G01*
%TO.C,C101*%
D12*
X140017836Y-84500000D02*
X139802164Y-84500000D01*
X140017836Y-85220000D02*
X139802164Y-85220000D01*
%TO.C,C104*%
X156724104Y-97927724D02*
X156724104Y-98143396D01*
X157444104Y-97927724D02*
X157444104Y-98143396D01*
%TO.C,R103*%
X141030000Y-86883641D02*
X141030000Y-86576359D01*
X141790000Y-86883641D02*
X141790000Y-86576359D01*
%TO.C,C103*%
X140087836Y-87560000D02*
X139872164Y-87560000D01*
X140087836Y-88280000D02*
X139872164Y-88280000D01*
%TO.C,R102*%
X136829799Y-109643641D02*
X136829799Y-109336359D01*
X137589799Y-109643641D02*
X137589799Y-109336359D01*
%TO.C,C105*%
X157639665Y-97928419D02*
X157639665Y-98144091D01*
X158359665Y-97928419D02*
X158359665Y-98144091D01*
%TO.C,J106*%
X135712500Y-94980000D02*
X136212500Y-95230000D01*
X136212500Y-94730000D02*
X135712500Y-94980000D01*
X136212500Y-95230000D02*
X136212500Y-94730000D01*
%TO.C,J102*%
D14*
X131145000Y-105600000D02*
X131145000Y-109360000D01*
X133065000Y-104480000D02*
X135395000Y-104480000D01*
X135395000Y-104480000D02*
X135395000Y-105360000D01*
X135395000Y-109600000D02*
X135395000Y-110480000D01*
X135395000Y-110480000D02*
X133065000Y-110480000D01*
D15*
X137120000Y-105980000D02*
G75*
G02*
X136920000Y-105980000I-100000J0D01*
G01*
X136920000Y-105980000D02*
G75*
G02*
X137120000Y-105980000I100000J0D01*
G01*
%TO.C,J105*%
D12*
X163757500Y-94730000D02*
X163757500Y-95230000D01*
X163757500Y-95230000D02*
X164257500Y-94980000D01*
X164257500Y-94980000D02*
X163757500Y-94730000D01*
%TO.C,R101*%
X136830705Y-107316359D02*
X136830705Y-107623641D01*
X137590705Y-107316359D02*
X137590705Y-107623641D01*
%TO.C,J107*%
X143350000Y-82430000D02*
X143350000Y-87730000D01*
X143920000Y-82430000D02*
X143350000Y-82430000D01*
X143920000Y-87730000D02*
X143350000Y-87730000D01*
X146460000Y-82430000D02*
X145540000Y-82430000D01*
X146460000Y-87730000D02*
X145540000Y-87730000D01*
X149000000Y-82430001D02*
X148080000Y-82430000D01*
X149000000Y-87729999D02*
X148080000Y-87730000D01*
X151540000Y-82430000D02*
X150620000Y-82430001D01*
X151540000Y-87730000D02*
X150620000Y-87729999D01*
X154080000Y-82430000D02*
X153160000Y-82430000D01*
X154080000Y-87730000D02*
X153160000Y-87730000D01*
X155700000Y-81040001D02*
X155700000Y-82430000D01*
X156270000Y-82430000D02*
X155700000Y-82430000D01*
X156270000Y-82430000D02*
X156270000Y-87730000D01*
X156270000Y-87730000D02*
X155700000Y-87730000D01*
%TO.C,IC101*%
D15*
X153480000Y-94980000D02*
X146480000Y-94980000D01*
X153480000Y-105080000D02*
X146480000Y-105080000D01*
D16*
X156080000Y-104430000D02*
X156080000Y-104430000D01*
X156180000Y-104430000D02*
X156180000Y-104430000D01*
X156080000Y-104430000D02*
G75*
G02*
X156180000Y-104430000I50000J0D01*
G01*
X156180000Y-104430000D02*
G75*
G02*
X156080000Y-104430000I-50000J0D01*
G01*
%TO.C,C102*%
D12*
X137363200Y-86746477D02*
X137363200Y-86530805D01*
X138083200Y-86746477D02*
X138083200Y-86530805D01*
%TO.C,R104*%
X141970000Y-86575761D02*
X141970000Y-86883043D01*
X142730000Y-86575761D02*
X142730000Y-86883043D01*
%TD*%
M02*
