%TF.GenerationSoftware,KiCad,Pcbnew,10.0.2*%
%TF.CreationDate,2026-05-16T13:24:58-03:00*%
%TF.ProjectId,u-blox-MAX-F10S-00B,752d626c-6f78-42d4-9d41-582d46313053,rev?*%
%TF.SameCoordinates,Original*%
%TF.FileFunction,Paste,Top*%
%TF.FilePolarity,Positive*%
%FSLAX46Y46*%
G04 Gerber Fmt 4.6, Leading zero omitted, Abs format (unit mm)*
G04 Created by KiCad (PCBNEW 10.0.2) date 2026-05-16 13:24:58*
%MOMM*%
%LPD*%
G01*
G04 APERTURE LIST*
G04 Aperture macros list*
%AMRoundRect*
0 Rectangle with rounded corners*
0 $1 Rounding radius*
0 $2 $3 $4 $5 $6 $7 $8 $9 X,Y pos of 4 corners*
0 Add a 4 corners polygon primitive as box body*
4,1,4,$2,$3,$4,$5,$6,$7,$8,$9,$2,$3,0*
0 Add four circle primitives for the rounded corners*
1,1,$1+$1,$2,$3*
1,1,$1+$1,$4,$5*
1,1,$1+$1,$6,$7*
1,1,$1+$1,$8,$9*
0 Add four rect primitives between the rounded corners*
20,1,$1+$1,$2,$3,$4,$5,0*
20,1,$1+$1,$4,$5,$6,$7,0*
20,1,$1+$1,$6,$7,$8,$9,0*
20,1,$1+$1,$8,$9,$2,$3,0*%
G04 Aperture macros list end*
%ADD10R,1.000000X2.510000*%
%ADD11R,0.550000X1.310000*%
%ADD12R,0.400000X0.300000*%
%ADD13R,1.550000X0.600000*%
%ADD14R,1.800000X1.200000*%
%ADD15RoundRect,0.140000X0.140000X0.170000X-0.140000X0.170000X-0.140000X-0.170000X0.140000X-0.170000X0*%
%ADD16RoundRect,0.140000X-0.170000X0.140000X-0.170000X-0.140000X0.170000X-0.140000X0.170000X0.140000X0*%
%ADD17RoundRect,0.135000X0.185000X-0.135000X0.185000X0.135000X-0.185000X0.135000X-0.185000X-0.135000X0*%
%ADD18R,5.080000X1.500000*%
%ADD19RoundRect,0.135000X-0.185000X0.135000X-0.185000X-0.135000X0.185000X-0.135000X0.185000X0.135000X0*%
%ADD20R,1.000000X3.150000*%
%ADD21R,1.800000X0.700000*%
%ADD22R,1.800000X0.800000*%
%ADD23RoundRect,0.140000X0.170000X-0.140000X0.170000X0.140000X-0.170000X0.140000X-0.170000X-0.140000X0*%
G04 APERTURE END LIST*
D10*
%TO.C,J104*%
X157600000Y-118260000D03*
X155060000Y-114950000D03*
X152520000Y-118260000D03*
X149980000Y-114950000D03*
X147440000Y-118260000D03*
X144900000Y-114950000D03*
X142360000Y-118260000D03*
%TD*%
D11*
%TO.C,U101*%
X139565300Y-86390001D03*
D12*
X140190000Y-85890002D03*
X140190000Y-86390001D03*
X140190000Y-86890000D03*
X138940600Y-86890000D03*
X138940600Y-86390001D03*
X138940600Y-85890002D03*
%TD*%
D13*
%TO.C,J103*%
X164240000Y-108980000D03*
X164240000Y-107980000D03*
X164240000Y-106980000D03*
X164240000Y-105980000D03*
D14*
X168115000Y-110280000D03*
X168115000Y-104680000D03*
%TD*%
D15*
%TO.C,C101*%
X140390000Y-84860000D03*
X139430000Y-84860000D03*
%TD*%
D16*
%TO.C,C104*%
X157084104Y-97555560D03*
X157084104Y-98515560D03*
%TD*%
D17*
%TO.C,R103*%
X141410000Y-87239999D03*
X141410000Y-86220001D03*
%TD*%
D15*
%TO.C,C103*%
X140460000Y-87920000D03*
X139500000Y-87920000D03*
%TD*%
D17*
%TO.C,R102*%
X137209799Y-109999999D03*
X137209799Y-108980001D03*
%TD*%
D16*
%TO.C,C105*%
X157999665Y-97556255D03*
X157999665Y-98516255D03*
%TD*%
D18*
%TO.C,J106*%
X132502500Y-94980000D03*
X132502500Y-99230000D03*
X132502500Y-90730000D03*
%TD*%
D13*
%TO.C,J102*%
X135720000Y-105980000D03*
X135720000Y-106980000D03*
X135720000Y-107980000D03*
X135720000Y-108980000D03*
D14*
X131845000Y-104680000D03*
X131845000Y-110280000D03*
%TD*%
D18*
%TO.C,J105*%
X167467500Y-94980000D03*
X167467500Y-90730000D03*
X167467500Y-99230000D03*
%TD*%
D19*
%TO.C,R101*%
X137210705Y-106960001D03*
X137210705Y-107979999D03*
%TD*%
D20*
%TO.C,J107*%
X154890000Y-82555000D03*
X154890000Y-87605000D03*
X152350000Y-82555000D03*
X152350000Y-87605000D03*
X149810000Y-82554999D03*
X149810000Y-87605001D03*
X147270000Y-82555000D03*
X147270000Y-87605000D03*
X144730000Y-82555000D03*
X144730000Y-87605000D03*
%TD*%
D21*
%TO.C,IC101*%
X154730000Y-104430000D03*
D22*
X154730000Y-103330000D03*
X154730000Y-102230000D03*
X154730000Y-101130000D03*
X154730000Y-100030000D03*
X154730000Y-98930000D03*
X154730000Y-97830000D03*
X154730000Y-96730000D03*
D21*
X154730000Y-95630000D03*
X145230000Y-95630000D03*
D22*
X145230000Y-96730000D03*
X145230000Y-97830000D03*
X145230000Y-98930000D03*
X145230000Y-100030000D03*
X145230000Y-101130000D03*
X145230000Y-102230000D03*
X145230000Y-103330000D03*
D21*
X145230000Y-104430000D03*
%TD*%
D23*
%TO.C,C102*%
X137723200Y-87118641D03*
X137723200Y-86158641D03*
%TD*%
D19*
%TO.C,R104*%
X142350000Y-86219403D03*
X142350000Y-87239401D03*
%TD*%
M02*
